<svg width="1110" height="801" viewBox="0 0 1110 801" fill="none" xmlns="http://www.w3.org/2000/svg">
<path fill-rule="evenodd" clip-rule="evenodd" d="M1004.84 0H103.712C103.449 57.1611 57.1612 103.449 0 103.711V109.072H0.00155926C8.82966 109.072 15.9862 116.229 15.9862 125.057C15.9862 133.885 8.82966 141.041 0.00155926 141.041H0V151.384H0.00155926C8.82966 151.384 15.9862 158.541 15.9862 167.369C15.9862 176.197 8.82966 183.354 0.00155926 183.354H0V193.697H0.00155926C8.82966 193.697 15.9862 200.853 15.9862 209.681C15.9862 218.51 8.82966 225.666 0.00155926 225.666H0V236.009H0.00155926C8.82966 236.009 15.9862 243.166 15.9862 251.994C15.9862 260.822 8.82966 267.979 0.00155926 267.979H0V278.322H0.00155926C8.82966 278.322 15.9862 285.478 15.9862 294.306C15.9862 303.134 8.82966 310.291 0.00155926 310.291H0V320.634H0.00155926C8.82966 320.634 15.9862 327.791 15.9862 336.619C15.9862 345.447 8.82966 352.603 0.00155926 352.603H0V362.946H0.00155926C8.82966 362.946 15.9862 370.103 15.9862 378.931C15.9862 387.759 8.82966 394.916 0.00155926 394.916H0V405.259H0.00155926C8.82966 405.259 15.9862 412.415 15.9862 421.243C15.9862 430.072 8.82966 437.228 0.00155926 437.228H0V447.571H0.00155926C8.82966 447.571 15.9862 454.728 15.9862 463.556C15.9862 472.384 8.82966 479.541 0.00155926 479.541H0V489.884H0.00155926C8.82966 489.884 15.9862 497.04 15.9862 505.868C15.9862 514.696 8.82966 521.853 0.00155926 521.853H0V532.196H0.00155926C8.82966 532.196 15.9862 539.353 15.9862 548.181C15.9862 557.009 8.82966 564.165 0.00155926 564.165H0V574.508H0.00155926C8.82966 574.508 15.9862 581.665 15.9862 590.493C15.9862 599.321 8.82966 606.478 0.00155926 606.478H0V616.821H0.00155926C8.82966 616.821 15.9862 623.977 15.9862 632.806C15.9862 641.634 8.82966 648.79 0.00155926 648.79H0V659.133H0.00155926C8.82966 659.133 15.9862 666.29 15.9862 675.118C15.9862 683.946 8.82966 691.103 0.00155926 691.103H0V695.656C57.3242 695.919 103.713 742.47 103.713 799.856C103.713 799.962 103.713 800.068 103.713 800.175H1004.84C1004.84 800.068 1004.84 799.962 1004.84 799.856C1004.84 742.307 1051.49 695.655 1109.04 695.655C1109.2 695.655 1109.36 695.655 1109.53 695.656V691.103C1100.7 691.102 1093.54 683.945 1093.54 675.118C1093.54 666.29 1100.7 659.134 1109.53 659.133V648.79C1100.7 648.789 1093.54 641.633 1093.54 632.806C1093.54 623.978 1100.7 616.822 1109.53 616.821V606.478C1100.7 606.477 1093.54 599.321 1093.54 590.493C1093.54 581.666 1100.7 574.509 1109.53 574.508V564.165C1100.7 564.165 1093.54 557.008 1093.54 548.181C1093.54 539.353 1100.7 532.197 1109.53 532.196V521.853C1100.7 521.852 1093.54 514.696 1093.54 505.868C1093.54 497.041 1100.7 489.884 1109.53 489.884V479.541C1100.7 479.54 1093.54 472.383 1093.54 463.556C1093.54 454.728 1100.7 447.572 1109.53 447.571V437.228C1100.7 437.227 1093.54 430.071 1093.54 421.243C1093.54 412.416 1100.7 405.26 1109.53 405.259V394.916C1100.7 394.915 1093.54 387.759 1093.54 378.931C1093.54 370.103 1100.7 362.947 1109.53 362.946V352.603C1100.7 352.603 1093.54 345.446 1093.54 336.619C1093.54 327.791 1100.7 320.635 1109.53 320.634V310.291C1100.7 310.29 1093.54 303.134 1093.54 294.306C1093.54 285.479 1100.7 278.322 1109.53 278.322V267.979C1100.7 267.978 1093.54 260.821 1093.54 251.994C1093.54 243.166 1100.7 236.01 1109.53 236.009V225.666C1100.7 225.665 1093.54 218.509 1093.54 209.681C1093.54 200.854 1100.7 193.698 1109.53 193.697V183.354C1100.7 183.353 1093.54 176.197 1093.54 167.369C1093.54 158.542 1100.7 151.385 1109.53 151.384V141.041C1100.7 141.04 1093.54 133.884 1093.54 125.057C1093.54 116.229 1100.7 109.073 1109.53 109.072V103.711C1109.36 103.712 1109.2 103.712 1109.04 103.712C1051.65 103.712 1005.1 57.3238 1004.84 0Z" fill="white"/>
</svg>
