<svg width="236" height="24" viewBox="0 0 236 24" fill="none" xmlns="http://www.w3.org/2000/svg">
<path d="M12.8402 0.479736L0 4.81766V0.479736H12.8402ZM0 5.51173C0 6.20579 1.0411 6.72634 2.25572 6.72634C2.77627 6.72634 3.1233 6.55283 3.47034 6.55283C3.99089 6.37931 15.9636 2.2149 15.9636 2.2149V19.3931C15.9636 19.3931 3.99089 23.5575 3.64385 23.731C3.29682 23.9045 2.77627 23.9045 2.42924 23.9045C1.21462 23.9045 0.173517 23.2104 0.173517 22.1693L0 5.51173Z" fill="#EC751A"/>
<path d="M31.9284 11.9317C31.9284 14.7079 30.8873 16.2696 28.111 16.2696C25.3347 16.2696 24.1201 14.7079 24.1201 11.9317V3.77637H25.8553V11.9317C25.8553 13.8403 26.3758 14.8814 28.111 14.8814C29.8462 14.8814 30.3667 13.8403 30.3667 11.9317V3.77637H32.1019V11.9317H31.9284Z" fill="black"/>
<path d="M39.0427 10.8904C39.0427 10.0228 38.5221 9.32874 37.6546 9.32874C36.6135 9.32874 36.0929 10.0228 36.0929 10.8904V16.2694H34.5312V7.94061H36.0929V8.63467C36.4399 8.28764 36.9605 7.76709 38.0016 7.76709C39.5632 7.76709 40.7779 8.80819 40.7779 10.7169V16.0959H39.2162V10.8904H39.0427Z" fill="black"/>
<path d="M43.7257 6.37908C43.0316 6.37908 42.6846 6.03204 42.6846 5.33798C42.6846 4.64391 43.0316 4.29688 43.7257 4.29688C44.4197 4.29688 44.7668 4.64391 44.7668 5.33798C44.7668 6.03204 44.4197 6.37908 43.7257 6.37908ZM44.5933 7.94073V16.2695H43.0316V7.94073H44.5933Z" fill="black"/>
<path d="M45.8096 7.94092H47.5447L49.6269 14.1875L51.7091 7.94092H53.4443L50.321 16.2697H48.7594L45.8096 7.94092Z" fill="black"/>
<path d="M55.3507 12.7991C55.5242 14.3607 56.3918 14.8813 57.4329 14.8813C58.6475 14.8813 59.3416 14.5342 60.0357 14.1872L60.3827 15.7489C59.6886 16.0959 58.8211 16.2694 57.6064 16.2694C55.5242 16.2694 53.7891 15.0548 53.7891 12.105C53.7891 9.32874 55.3507 7.76709 57.2594 7.76709C59.5151 7.76709 60.7297 9.32874 60.7297 11.758V12.6256H55.3507V12.7991ZM58.9946 11.5845C58.9946 10.1963 58.3005 9.32874 57.0859 9.32874C56.2183 9.32874 55.3507 9.84929 55.1772 11.5845H58.9946Z" fill="black"/>
<path d="M66.2835 9.6759C66.11 9.6759 65.763 9.50238 65.2424 9.50238C64.5483 9.50238 64.2013 10.0229 64.2013 10.8905V16.2695H62.6396V7.94073H64.2013V8.80831C64.3748 8.28776 64.8954 7.76721 65.763 7.76721C66.11 7.76721 66.457 7.94073 66.457 7.94073L66.2835 9.6759Z" fill="black"/>
<path d="M73.2235 16.2697H67.1504L71.1413 9.32905H67.3239V7.94092H73.5705L69.7531 14.8816H73.397V16.2697H73.2235Z" fill="black"/>
<path d="M75.8263 6.37908C75.1322 6.37908 74.7852 6.03204 74.7852 5.33798C74.7852 4.64391 75.1322 4.29688 75.8263 4.29688C76.5203 4.29688 76.8674 4.64391 76.8674 5.33798C76.8674 6.03204 76.5203 6.37908 75.8263 6.37908ZM76.5203 7.94073V16.2695H74.9587V7.94073H76.5203Z" fill="black"/>
<path d="M82.9411 16.0959C82.5941 16.2694 82.2471 16.4429 81.553 16.4429C80.5119 16.4429 79.4708 16.0959 79.4708 14.1872V9.32875H78.4297V7.94062H79.4708V4.81732L81.0324 4.6438V8.11414H82.4206V9.50227H81.0324V14.3607C81.0324 14.8813 81.3795 15.0548 81.7265 15.0548C82.0735 15.0548 82.4206 14.8813 82.7676 14.8813L82.9411 16.0959Z" fill="black"/>
<path d="M88.8419 15.5757C88.4948 15.9227 87.9743 16.4432 86.7597 16.4432C85.0245 16.4432 83.9834 15.5757 83.9834 13.8405C83.9834 12.1053 85.198 11.0642 86.7597 11.0642C87.6272 11.0642 88.3213 11.4113 88.6683 11.7583V10.7172C88.6683 9.67609 87.9743 9.32905 87.1067 9.32905C86.0656 9.32905 85.198 9.67609 84.851 9.8496L84.6775 8.46147C85.198 8.28795 86.0656 7.94092 87.2802 7.94092C89.1889 7.94092 90.23 8.98202 90.23 10.7172V16.2697H88.6683V15.5757H88.8419ZM88.8419 13.4935C88.8419 12.7994 87.9743 12.4524 87.2802 12.4524C86.4126 12.4524 85.7186 12.7994 85.7186 13.8405C85.7186 14.7081 86.4126 15.0551 87.2802 15.0551C88.1478 15.0551 88.8419 14.5346 88.8419 13.8405V13.4935Z" fill="black"/>
<path d="M99.0784 16.2696V5.33802H95.9551V3.77637H103.763V5.33802H100.64V16.2696H99.0784Z" fill="black"/>
<path d="M106.887 16.4431C104.804 16.4431 103.069 15.2284 103.069 12.2787C103.069 9.32888 104.978 8.11426 106.887 8.11426C108.795 8.11426 110.704 9.32888 110.704 12.2787C110.704 15.2284 108.969 16.4431 106.887 16.4431ZM106.887 9.32888C105.672 9.32888 104.805 10.37 104.805 12.1051C104.805 13.8403 105.672 14.8814 106.887 14.8814C108.101 14.8814 108.969 13.8403 108.969 12.1051C109.142 10.37 108.275 9.32888 106.887 9.32888Z" fill="black"/>
<path d="M121.981 10.8904C121.981 10.0228 121.46 9.32874 120.593 9.32874C119.552 9.32874 119.031 10.0228 119.031 10.8904V16.2694H117.469V10.8904C117.469 10.0228 116.949 9.32874 116.081 9.32874C115.04 9.32874 114.52 10.0228 114.52 10.8904V16.2694H112.958V7.94061H114.52V8.63467C114.867 8.28764 115.387 7.76709 116.428 7.76709C117.469 7.76709 118.337 8.28764 118.684 8.98171C119.205 8.28764 119.899 7.76709 120.94 7.76709C122.501 7.76709 123.716 8.80819 123.716 10.7169V16.0959H122.154V10.8904H121.981Z" fill="black"/>
<path d="M130.138 15.5756C129.965 15.9227 129.27 16.4432 128.229 16.4432C126.494 16.4432 125.453 15.5756 125.453 13.8405C125.453 12.1053 126.668 11.0642 128.229 11.0642C129.097 11.0642 129.791 11.4112 130.138 11.7583V10.7172C130.138 9.67607 129.444 9.32904 128.576 9.32904C127.535 9.32904 126.668 9.67607 126.321 9.84959L126.147 8.46146C126.668 8.28794 127.535 7.94091 128.75 7.94091C130.659 7.94091 131.7 8.98201 131.7 10.7172V16.2697H130.138V15.5756ZM130.138 13.4934C130.138 12.7994 129.27 12.4523 128.576 12.4523C127.709 12.4523 127.015 12.7994 127.015 13.8405C127.015 14.7081 127.709 15.0551 128.576 15.0551C129.444 14.8816 130.138 14.361 130.138 13.8405V13.4934ZM129.097 4.12354H130.832L129.27 6.89981H128.056L129.097 4.12354Z" fill="black"/>
<path d="M136.385 16.4432C134.997 16.4432 134.129 16.0962 133.608 15.9227L133.955 14.361C134.649 14.7081 135.517 14.8816 136.385 14.8816C137.079 14.8816 137.773 14.7081 137.773 13.8405C137.773 13.1464 136.905 12.9729 136.038 12.6259C134.997 12.4523 133.608 12.1053 133.608 10.3701C133.608 8.63497 134.823 7.94091 136.732 7.94091C137.946 7.94091 138.64 8.28794 139.334 8.46146L139.161 9.84959C138.467 9.50256 137.946 9.32904 136.905 9.32904C136.038 9.32904 135.344 9.67607 135.344 10.3701C135.344 10.8907 136.038 11.2377 136.905 11.4112C138.12 11.7583 139.681 12.1053 139.681 14.014C139.508 15.4021 138.467 16.4432 136.385 16.4432ZM134.129 4.12354H135.517L136.558 5.68519L137.599 4.12354H138.987L137.426 6.89981H135.691L134.129 4.12354Z" fill="black"/>
<path d="M142.456 12.7992C142.63 14.3609 143.497 14.8814 144.538 14.8814C145.753 14.8814 146.447 14.5344 147.141 14.1873L147.488 15.749C146.794 16.096 145.927 16.2695 144.712 16.2695C142.63 16.2695 140.895 15.0549 140.895 12.1051C140.895 9.32886 142.456 7.76721 144.365 7.76721C146.621 7.76721 147.835 9.32886 147.835 11.7581V12.6257H142.456V12.7992ZM146.274 11.5846C146.274 10.1964 145.579 9.32886 144.365 9.32886C143.497 9.32886 142.63 9.84941 142.456 11.5846H146.274Z" fill="black"/>
<path d="M157.205 16.2696H153.734V3.77637H157.552C159.807 3.77637 161.196 4.99099 161.196 7.07319C161.196 8.46132 160.502 9.32891 159.46 9.84946C160.675 10.37 161.369 11.4111 161.369 12.7992C161.196 14.8814 159.634 16.2696 157.205 16.2696ZM157.552 5.33802H155.47V8.98187H157.378C158.593 8.98187 159.46 8.28781 159.46 7.07319C159.46 5.85857 158.593 5.33802 157.552 5.33802ZM157.205 10.5435H155.296V14.7079H157.205C158.593 14.7079 159.46 14.0139 159.46 12.6257C159.46 11.4111 158.593 10.5435 157.205 10.5435Z" fill="black"/>
<path d="M167.619 15.5757C167.445 15.9227 166.751 16.4432 165.71 16.4432C163.975 16.4432 162.934 15.5757 162.934 13.8405C162.934 12.1053 164.148 11.0642 165.71 11.0642C166.577 11.0642 167.272 11.4113 167.619 11.7583V10.7172C167.619 9.67609 166.924 9.32905 166.057 9.32905C165.016 9.32905 164.148 9.67609 163.801 9.8496L163.628 8.46147C164.148 8.28795 165.016 7.94092 166.23 7.94092C168.139 7.94092 169.18 8.98202 169.18 10.7172V16.2697H167.619V15.5757ZM167.619 13.4935C167.619 12.7994 166.751 12.4524 166.057 12.4524C165.189 12.4524 164.495 12.7994 164.495 13.8405C164.495 14.7081 165.189 15.0551 166.057 15.0551C166.924 15.0551 167.619 14.5346 167.619 13.8405V13.4935Z" fill="black"/>
<path d="M175.252 16.0959C174.905 16.2694 174.558 16.4429 173.864 16.4429C172.822 16.4429 171.781 16.0959 171.781 14.1872V9.32875H170.74V7.94062H171.781V4.81732L173.343 4.6438V8.11414H174.731V9.50227H173.343V14.3607C173.343 14.8813 173.69 15.0548 174.037 15.0548C174.384 15.0548 174.731 14.8813 175.078 14.8813L175.252 16.0959Z" fill="black"/>
<path d="M177.508 6.37908C176.814 6.37908 176.467 6.03204 176.467 5.33798C176.467 4.64391 176.814 4.29688 177.508 4.29688C178.202 4.29688 178.549 4.64391 178.549 5.33798C178.549 6.03204 178.202 6.37908 177.508 6.37908ZM178.375 7.94073V16.2695H176.814V7.94073H178.375Z" fill="black"/>
<path d="M183.581 7.94092H185.316L187.398 14.1875L189.481 7.94092H191.216L188.266 16.2697H186.704L183.581 7.94092Z" fill="black"/>
<path d="M193.125 12.7992C193.299 14.3609 194.166 14.8814 195.207 14.8814C196.422 14.8814 197.116 14.5344 197.81 14.1873L198.157 15.749C197.463 16.096 196.595 16.2695 195.381 16.2695C193.299 16.2695 191.563 15.0549 191.563 12.1051C191.563 9.32886 193.125 7.76721 195.034 7.76721C197.29 7.76721 198.504 9.32886 198.504 11.7581V12.6257H193.125V12.7992ZM196.769 11.5846C196.769 10.1964 196.075 9.32886 194.86 9.32886C193.993 9.32886 193.125 9.84941 192.952 11.5846H196.769Z" fill="black"/>
<path d="M210.65 16.2696H203.362L208.568 5.33802H203.709V3.77637H210.997L205.792 14.7079H210.65V16.2696Z" fill="black"/>
<path d="M214.292 3.77625V16.2695H212.73V3.77625H214.292Z" fill="black"/>
<path d="M217.764 4.12354H219.499L217.937 6.8998H216.723L217.764 4.12354ZM218.284 7.94091V16.2697H216.723V7.94091H218.284Z" fill="black"/>
<path d="M225.227 10.8904C225.227 10.0228 224.707 9.32874 223.839 9.32874C222.798 9.32874 222.277 10.0228 222.277 10.8904V16.2694H220.716V7.94061H222.277V8.63467C222.625 8.28764 223.145 7.76709 224.186 7.76709C225.748 7.76709 226.962 8.80819 226.962 10.7169V16.0959H225.401V10.8904H225.227Z" fill="black"/>
<path d="M230.431 12.7993C230.604 14.3609 231.472 14.8815 232.513 14.8815C233.728 14.8815 234.422 14.5344 235.116 14.1874L235.463 15.749C234.769 16.0961 233.901 16.2696 232.687 16.2696C230.604 16.2696 228.869 15.055 228.869 12.1052C228.869 9.32892 230.431 7.76727 232.339 7.76727C234.595 7.76727 235.81 9.32892 235.81 11.7582V12.6257H230.431V12.7993ZM229.737 4.12341H231.125L232.166 5.68506L233.207 4.12341H234.595L233.034 6.89968H231.298L229.737 4.12341ZM234.075 11.5846C234.075 10.1965 233.381 9.32892 232.166 9.32892C231.298 9.32892 230.431 9.84947 230.257 11.5846H234.075Z" fill="black"/>
</svg>
