<svg width="194" height="31" viewBox="0 0 194 31" fill="none" xmlns="http://www.w3.org/2000/svg">
<path d="M24.1969 23.1104V24.2491H21.0655V28.3769H19.9268V19.4096H24.7662V20.5483H21.0655V23.1104H24.1969Z" fill="black"/>
<path d="M28.3253 27.8078C28.1829 27.9501 27.7559 28.3771 26.9019 28.3771C25.6209 28.3771 24.9092 27.6654 24.9092 26.5267C24.9092 25.2457 25.7632 24.534 26.9019 24.534C27.4713 24.534 28.0406 24.8187 28.3253 24.961V24.2493C28.3253 23.5376 27.8983 23.253 27.1866 23.253C26.4749 23.253 25.9055 23.5376 25.4785 23.68L25.3362 22.6836C25.7632 22.5413 26.3326 22.2566 27.1866 22.2566C28.4676 22.2566 29.3216 22.9683 29.3216 24.2493V28.2348H28.1829V27.8078H28.3253ZM28.3253 26.3844C28.3253 25.9574 27.7559 25.6727 27.1866 25.6727C26.6172 25.6727 26.0479 25.9574 26.0479 26.6691C26.0479 27.2384 26.6172 27.5231 27.1866 27.5231C27.8983 27.5231 28.3253 27.0961 28.3253 26.6691V26.3844Z" fill="black"/>
<path d="M32.3106 28.3769H31.1719V19.4096H32.3106V24.8184L34.3033 22.3987H35.7267L33.5916 24.9608L36.1537 28.3769H34.7303L32.4529 25.2454V28.3769H32.3106Z" fill="black"/>
<path d="M40.139 27.8075C39.9967 28.0922 39.5696 28.3769 38.7156 28.3769C37.5769 28.3769 36.8652 27.5228 36.8652 26.2418V22.3987H38.0039V26.2418C38.0039 26.9535 38.2886 27.3805 39.0003 27.3805C39.8543 27.3805 40.2813 26.8111 40.2813 26.0995V22.3987H41.2777V28.3769H40.139V27.8075Z" fill="black"/>
<path d="M44.125 19.4097V28.3769H42.9863V19.4097H44.125Z" fill="black"/>
<path d="M48.5377 28.2343C48.3953 28.3767 48.1107 28.3767 47.5413 28.3767C46.8296 28.3767 46.1179 28.092 46.1179 26.811V23.2525H45.4062V22.2562H46.1179V19.9788L47.2566 19.8364V22.2562H48.253V23.2525H47.2566V26.811C47.2566 27.238 47.5413 27.3803 47.6837 27.3803C47.9683 27.3803 48.253 27.238 48.3953 27.238L48.5377 28.2343Z" fill="black"/>
<path d="M52.6641 27.8078C52.5218 27.9501 52.0948 28.3771 51.2408 28.3771C49.9597 28.3771 49.248 27.6654 49.248 26.5267C49.248 25.2457 50.1021 24.534 51.2408 24.534C51.8101 24.534 52.3795 24.8187 52.6641 24.961V24.2493C52.6641 23.5376 52.2371 23.253 51.5254 23.253C50.8138 23.253 50.2444 23.5376 49.8174 23.68V22.6836C50.2444 22.5413 50.8138 22.2566 51.6678 22.2566C52.9488 22.2566 53.8028 22.9683 53.8028 24.2493V28.2348H52.6641V27.8078ZM52.6641 26.3844C52.6641 25.9574 52.0948 25.6727 51.5254 25.6727C50.9561 25.6727 50.3868 25.9574 50.3868 26.6691C50.3868 27.2384 50.9561 27.5231 51.5254 27.5231C52.2371 27.5231 52.6641 27.0961 52.6641 26.6691V26.3844Z" fill="black"/>
<path d="M61.4893 27.8078C61.347 27.9502 60.92 28.3772 60.066 28.3772C58.7849 28.3772 58.0732 27.6655 58.0732 26.5268C58.0732 25.2457 58.9273 24.5341 60.066 24.5341C60.6353 24.5341 61.2047 24.8187 61.4893 24.9611V24.2494C61.4893 23.5377 61.0623 23.253 60.3506 23.253C59.639 23.253 59.0696 23.5377 58.6426 23.68L58.5003 22.6837C58.9273 22.5413 59.4966 22.2567 60.3506 22.2567C61.6317 22.2567 62.4857 22.9683 62.4857 24.2494V28.2348H61.347V27.8078H61.4893ZM61.4893 26.3844C61.4893 25.9574 60.92 25.6728 60.3506 25.6728C59.7813 25.6728 59.2119 25.9574 59.2119 26.6691C59.2119 27.2385 59.7813 27.5231 60.3506 27.5231C61.0623 27.5231 61.4893 27.0961 61.4893 26.6691V26.3844Z" fill="black"/>
<path d="M66.899 28.3771C66.045 28.3771 65.618 28.0924 65.4756 27.8078V30.6545H64.3369V22.2566H65.4756V22.8259C65.618 22.6836 65.9026 22.2566 66.899 22.2566C68.18 22.2566 69.3187 23.253 69.3187 25.388C69.3187 27.6654 68.0377 28.3771 66.899 28.3771ZM66.7567 23.3953C66.045 23.3953 65.4756 23.8223 65.4756 24.8187V26.0997C65.4756 27.0961 66.045 27.5231 66.7567 27.5231C67.6107 27.5231 68.18 27.0961 68.18 25.6727C68.18 23.9646 67.4683 23.3953 66.7567 23.3953Z" fill="black"/>
<path d="M71.8799 19.4097V28.3769H70.7412V19.4097H71.8799Z" fill="black"/>
<path d="M74.3006 21.2598C73.8735 21.2598 73.5889 20.9751 73.5889 20.5481C73.5889 20.1211 73.8735 19.8364 74.3006 19.8364C74.7276 19.8364 75.0122 20.1211 75.0122 20.5481C75.0122 21.1175 74.7276 21.2598 74.3006 21.2598ZM74.8699 22.3985V28.3767H73.7312V22.3985H74.8699Z" fill="black"/>
<path d="M77.7168 28.3769H76.5781V19.4097H77.7168V24.8185L79.7096 22.3988H81.1329L78.9979 24.9608L81.5599 28.3769H80.1366L77.8592 25.2455V28.3769H77.7168Z" fill="black"/>
<path d="M84.1214 28.3769C82.698 28.3769 81.417 27.5228 81.417 25.3878C81.417 23.2527 82.698 22.3987 84.1214 22.3987C85.5448 22.3987 86.8258 23.2527 86.8258 25.3878C86.8258 27.6652 85.5448 28.3769 84.1214 28.3769ZM84.1214 23.395C83.2674 23.395 82.5557 24.1067 82.5557 25.3878C82.5557 26.6688 83.2674 27.3805 84.1214 27.3805C84.9754 27.3805 85.6871 26.6688 85.6871 25.3878C85.5448 24.1067 84.9754 23.395 84.1214 23.395Z" fill="black"/>
<path d="M87.1094 22.3987H88.2481L89.6714 26.8111L91.0948 22.3987H92.5182L90.3831 28.3769H89.2444L87.1094 22.3987Z" fill="black"/>
<path d="M96.0763 27.8078C95.9339 27.9501 95.5069 28.3771 94.6529 28.3771C93.3718 28.3771 92.6602 27.6654 92.6602 26.5267C92.6602 25.2457 93.5142 24.534 94.6529 24.534C95.2222 24.534 95.7916 24.8187 96.0763 24.961V24.2493C96.0763 23.5376 95.6492 23.253 94.9376 23.253C94.2259 23.253 93.6565 23.5376 93.2295 23.68L93.0872 22.6836C93.5142 22.5413 94.0835 22.2566 94.9376 22.2566C96.2186 22.2566 97.0726 22.9683 97.0726 24.2493V28.2348H95.9339V27.8078H96.0763ZM96.0763 26.3844C96.0763 25.9574 95.5069 25.6727 94.9376 25.6727C94.3682 25.6727 93.7989 25.9574 93.7989 26.6691C93.7989 27.2384 94.3682 27.5231 94.9376 27.5231C95.6492 27.5231 96.0763 27.0961 96.0763 26.6691V26.3844Z" fill="black"/>
<path d="M102.339 24.534C102.339 23.8223 101.912 23.3953 101.343 23.3953C100.631 23.3953 100.204 23.8223 100.204 24.534V28.3771H99.0654V22.3989H100.204V22.8259C100.346 22.5413 100.916 22.2566 101.628 22.2566C102.766 22.2566 103.62 23.1106 103.62 24.3917V28.2348H102.482V24.534H102.339Z" fill="black"/>
<path d="M106.041 25.8148C106.183 26.9535 106.753 27.3806 107.607 27.3806C108.461 27.3806 109.03 27.2382 109.457 26.9535L109.599 28.0922C109.03 28.3769 108.461 28.5193 107.607 28.5193C106.183 28.5193 104.902 27.6652 104.902 25.5302C104.902 23.5374 106.041 22.3987 107.464 22.3987C109.03 22.3987 109.884 23.5374 109.884 25.2455V25.8148H106.041ZM108.603 24.9608C108.603 23.9645 108.034 23.3951 107.322 23.3951C106.753 23.3951 106.183 23.6798 106.041 24.9608H108.603ZM107.464 19.6943H108.745L107.607 21.6871H106.753L107.464 19.6943Z" fill="black"/>
<path d="M114.582 21.2598C114.155 21.2598 113.87 20.9751 113.87 20.5481C113.87 20.1211 114.155 19.8364 114.582 19.8364C115.009 19.8364 115.293 20.1211 115.293 20.5481C115.293 21.1175 115.151 21.2598 114.582 21.2598ZM115.151 22.3985V28.3767H114.012V22.3985H115.151Z" fill="black"/>
<path d="M120.275 24.534C120.275 23.8223 119.848 23.3953 119.278 23.3953C118.567 23.3953 118.14 23.8223 118.14 24.534V28.3771H117.001V22.3989H118.14V22.8259C118.282 22.5413 118.851 22.2566 119.563 22.2566C120.702 22.2566 121.556 23.1106 121.556 24.3917V28.2348H120.417V24.534H120.275Z" fill="black"/>
<path d="M125.825 20.5484C125.682 20.406 125.255 20.2637 124.971 20.2637C124.544 20.2637 124.401 20.5484 124.401 20.9754V22.3988H125.398V23.3951H124.401V28.3769H123.262V23.3951H122.551V22.3988H123.262V21.1177C123.262 19.8367 123.974 19.2673 124.971 19.2673C125.54 19.2673 125.825 19.4097 125.967 19.552L125.825 20.5484Z" fill="black"/>
<path d="M128.815 28.3768C127.391 28.3768 126.11 27.5228 126.11 25.3877C126.11 23.2526 127.391 22.3986 128.815 22.3986C130.238 22.3986 131.519 23.2526 131.519 25.3877C131.519 27.6651 130.238 28.3768 128.815 28.3768ZM128.815 23.395C127.961 23.395 127.249 24.1067 127.249 25.3877C127.249 26.6687 127.961 27.3804 128.815 27.3804C129.669 27.3804 130.38 26.6687 130.38 25.3877C130.38 24.1067 129.669 23.395 128.815 23.395Z" fill="black"/>
<path d="M135.504 23.6797C135.362 23.6797 135.077 23.5374 134.793 23.5374C134.366 23.5374 133.938 23.9644 133.938 24.5337V28.3769H132.8V22.3987H133.938V23.1104C134.081 22.6834 134.366 22.3987 135.077 22.3987C135.362 22.3987 135.504 22.3987 135.647 22.541L135.504 23.6797Z" fill="black"/>
<path d="M143.333 24.534C143.333 23.8223 142.906 23.3953 142.336 23.3953C141.625 23.3953 141.198 23.8223 141.198 24.534V28.3771H140.059V24.534C140.059 23.8223 139.632 23.3953 139.063 23.3953C138.351 23.3953 137.924 23.8223 137.924 24.534V28.3771H136.785V22.3989H137.924V22.8259C138.066 22.5413 138.636 22.2566 139.347 22.2566C140.059 22.2566 140.628 22.5413 141.055 23.1106C141.34 22.6836 141.909 22.2566 142.763 22.2566C143.902 22.2566 144.756 23.1106 144.756 24.3917V28.2348H143.617V24.534H143.333Z" fill="black"/>
<path d="M149.312 27.8078C149.169 27.9501 148.742 28.3771 147.888 28.3771C146.607 28.3771 145.896 27.6654 145.896 26.5267C145.896 25.2457 146.75 24.534 147.888 24.534C148.458 24.534 149.027 24.8187 149.312 24.961V24.2493C149.312 23.5376 148.885 23.253 148.173 23.253C147.461 23.253 146.892 23.5376 146.465 23.68L146.323 22.6836C146.75 22.5413 147.319 22.2566 148.173 22.2566C149.454 22.2566 150.308 22.9683 150.308 24.2493V28.2348H149.169V27.8078H149.312ZM149.312 26.3844C149.312 25.9574 148.742 25.6727 148.173 25.6727C147.604 25.6727 147.034 25.9574 147.034 26.6691C147.034 27.2384 147.604 27.5231 148.173 27.5231C148.885 27.5231 149.312 27.0961 149.312 26.6691V26.3844Z" fill="black"/>
<path d="M154.721 28.2343C154.579 28.3767 154.294 28.3767 153.725 28.3767C153.013 28.3767 152.302 28.092 152.302 26.811V23.2525H151.59V22.2562H152.302V19.9788L153.44 19.8364V22.2562H154.437V23.2525H153.44V26.811C153.44 27.238 153.725 27.3803 153.867 27.3803C154.152 27.3803 154.437 27.238 154.579 27.238L154.721 28.2343Z" fill="black"/>
<path d="M156.429 21.2598C156.002 21.2598 155.718 20.9751 155.718 20.5481C155.718 20.1211 156.002 19.8364 156.429 19.8364C156.856 19.8364 157.141 20.1211 157.141 20.5481C157.141 21.1175 156.856 21.2598 156.429 21.2598ZM156.999 22.3985V28.3767H155.86V22.3985H156.999Z" fill="black"/>
<path d="M159.845 28.3769H158.706V19.4097H159.845V24.8185L161.837 22.3988H163.261L161.126 24.9608L163.688 28.3769H162.264L159.987 25.2455V28.3769H159.845Z" fill="black"/>
<path d="M165.823 30.7965V27.3804L163.546 22.3986H164.827L166.393 26.0994L167.958 22.3986H169.239L166.962 27.3804V30.7965H165.823Z" fill="black"/>
<path d="M10.533 0.0515137L0 3.60995V0.0515137H10.533ZM0 4.1793C0 4.74865 0.854025 5.17566 1.85039 5.17566C2.2774 5.17566 2.56207 5.03333 2.84675 5.03333C3.27376 4.89099 12.9527 1.47489 12.9527 1.47489V15.5663C12.9527 15.5663 3.13142 18.9824 2.84675 19.1247C2.56207 19.2671 2.13506 19.2671 1.85039 19.2671C0.854025 19.2671 0 18.6977 0 17.8437V4.1793Z" fill="#FCC400"/>
<path d="M26.1903 9.44548C26.1903 11.7229 25.3363 13.0039 23.0589 13.0039C20.7815 13.0039 19.7852 11.7229 19.7852 9.44548V2.75562H21.0662V9.44548C21.0662 11.0112 21.4932 11.8652 22.9166 11.8652C24.34 11.8652 24.767 11.0112 24.767 9.44548V2.75562H26.048V9.44548H26.1903Z" fill="black"/>
<path d="M32.026 8.59186C32.026 7.88017 31.599 7.31082 30.8873 7.31082C30.0332 7.31082 29.6062 7.88017 29.6062 8.59186V13.0043H28.3252V6.17212H29.6062V6.74147C29.8909 6.45679 30.3179 6.17212 31.1719 6.17212C32.453 6.17212 33.4493 7.02614 33.4493 8.59186V13.0043H32.1683V8.59186H32.026Z" fill="black"/>
<path d="M35.8687 4.89067C35.2993 4.89067 35.0146 4.60599 35.0146 4.03664C35.0146 3.46729 35.2993 3.18262 35.8687 3.18262C36.438 3.18262 36.7227 3.46729 36.7227 4.03664C36.7227 4.74833 36.438 4.89067 35.8687 4.89067ZM36.5804 6.1717V13.0039H35.2993V6.1717H36.5804Z" fill="black"/>
<path d="M37.5771 6.17212H39.0005L40.7086 11.2963L42.4166 6.17212H43.84L41.2779 13.0043H39.9969L37.5771 6.17212Z" fill="black"/>
<path d="M45.4058 10.1573C45.5481 11.4384 46.2598 11.8654 47.1138 11.8654C48.1102 11.8654 48.6796 11.5807 49.1066 11.296L49.3912 12.5771C48.8219 12.8617 48.1102 13.0041 47.1138 13.0041C45.4058 13.0041 43.9824 12.0077 43.9824 9.58798C43.9824 7.31058 45.2635 6.02954 46.8292 6.02954C48.6796 6.02954 49.6759 7.31058 49.6759 9.3033V10.015H45.4058V10.1573ZM48.3949 9.16097C48.3949 8.02227 47.8255 7.31058 46.9715 7.31058C46.2598 7.31058 45.5481 7.73759 45.4058 9.16097H48.3949Z" fill="black"/>
<path d="M54.2305 7.59519C54.0882 7.59519 53.8035 7.45285 53.3765 7.45285C52.9495 7.45285 52.6648 7.87987 52.6648 8.59156V13.004H51.3838V6.17182H52.6648V6.88351C52.8072 6.45649 53.2342 6.02948 53.9459 6.02948C54.2305 6.02948 54.3729 6.02948 54.5152 6.17182L54.2305 7.59519Z" fill="black"/>
<path d="M60.0668 13.0043H55.085L58.3587 7.31082H55.2273V6.17212H60.2091L57.0777 11.8656H60.0668V13.0043Z" fill="black"/>
<path d="M62.2007 4.89067C61.6314 4.89067 61.3467 4.60599 61.3467 4.03664C61.3467 3.46729 61.6314 3.18262 62.2007 3.18262C62.7701 3.18262 63.0547 3.46729 63.0547 4.03664C63.0547 4.74833 62.6277 4.89067 62.2007 4.89067ZM62.7701 6.1717V13.0039H61.489V6.1717H62.7701Z" fill="black"/>
<path d="M68.0377 12.8617C67.753 13.0041 67.4683 13.1464 66.899 13.1464C66.1873 13.1464 65.1909 12.8617 65.1909 11.4384V7.31058H64.3369V6.17188H65.1909V3.60981L66.472 3.46747V6.17188H67.6107V7.16824H66.472V11.1537C66.472 11.5807 66.7566 11.723 67.0413 11.723C67.326 11.723 67.6107 11.5807 67.8954 11.5807L68.0377 12.8617Z" fill="black"/>
<path d="M72.7347 12.435C72.5924 12.5773 72.1654 13.0043 71.169 13.0043C69.7456 13.0043 68.8916 12.2926 68.8916 10.8693C68.8916 9.44588 69.888 8.73419 71.169 8.73419C71.8807 8.73419 72.45 9.01887 72.7347 9.30354V8.44952C72.7347 7.59549 72.1654 7.31082 71.4537 7.31082C70.5997 7.31082 69.888 7.59549 69.6033 7.73783L69.4609 6.59913C69.888 6.45679 70.5996 6.17212 71.596 6.17212C73.1617 6.17212 74.0157 7.02614 74.0157 8.44952V13.0043H72.7347V12.435ZM72.7347 10.7269C72.7347 10.1576 72.1654 9.87289 71.4537 9.87289C70.742 9.87289 70.1726 10.1576 70.1726 11.0116C70.1726 11.7233 70.742 12.008 71.4537 12.008C72.1654 12.008 72.7347 11.5809 72.7347 11.0116V10.7269Z" fill="black"/>
<path d="M81.2752 13.0039V4.03665H78.8555V2.75562H85.1183V4.03665H82.5562V13.0039H81.2752Z" fill="black"/>
<path d="M87.6802 13.0043C85.9722 13.0043 84.5488 12.008 84.5488 9.58822C84.5488 7.02614 85.9722 6.17212 87.6802 6.17212C89.246 6.17212 90.8117 7.16848 90.8117 9.58822C90.8117 12.1503 89.3883 13.0043 87.6802 13.0043ZM87.6802 7.31082C86.6839 7.31082 85.9722 8.16484 85.9722 9.58822C85.9722 11.0116 86.6839 11.8656 87.6802 11.8656C88.6766 11.8656 89.3883 11.1539 89.3883 9.58822C89.3883 8.02251 88.6766 7.31082 87.6802 7.31082Z" fill="black"/>
<path d="M99.9211 8.59186C99.9211 7.88017 99.4941 7.31082 98.7824 7.31082C97.9284 7.31082 97.5013 7.88017 97.5013 8.59186V13.0043H96.2203V8.59186C96.2203 7.88017 95.7933 7.31082 95.0816 7.31082C94.2276 7.31082 93.8006 7.88017 93.8006 8.59186V13.0043H92.5195V6.17212H93.8006V6.74147C94.0852 6.45679 94.5123 6.17212 95.3663 6.17212C96.2203 6.17212 96.932 6.45679 97.2167 7.16848C97.6437 6.59913 98.213 6.17212 99.0671 6.17212C100.348 6.17212 101.344 7.02614 101.344 8.59186V13.0043H100.063V8.59186H99.9211Z" fill="black"/>
<path d="M106.752 12.435C106.61 12.7197 106.041 13.1467 105.187 13.1467C103.763 13.1467 102.909 12.435 102.909 11.0117C102.909 9.5883 103.906 8.87661 105.187 8.87661C105.898 8.87661 106.468 9.16128 106.752 9.44596V8.4496C106.752 7.59557 106.183 7.3109 105.471 7.3109C104.617 7.3109 103.906 7.59557 103.621 7.73791L103.479 6.59921C103.906 6.45687 104.617 6.1722 105.614 6.1722C107.179 6.1722 108.033 7.02622 108.033 8.4496V13.0044H106.752V12.435ZM106.752 10.727C106.752 10.1576 106.183 9.87297 105.471 9.87297C104.76 9.87297 104.19 10.1576 104.19 11.0117C104.19 11.7234 104.76 12.008 105.471 12.008C106.183 11.8657 106.752 11.4387 106.752 10.8693V10.727ZM105.898 3.04077H107.322L106.041 5.31817H105.044L105.898 3.04077Z" fill="black"/>
<path d="M111.735 13.0044C110.739 13.0044 109.885 12.7197 109.458 12.5774L109.885 11.4387C110.454 11.7234 111.166 11.8657 111.878 11.8657C112.447 11.8657 113.016 11.7234 113.016 11.154C113.016 10.5847 112.305 10.4423 111.593 10.1576C110.597 9.87297 109.6 9.5883 109.6 8.16492C109.6 6.74155 110.597 6.1722 112.162 6.1722C113.159 6.1722 113.728 6.31453 114.155 6.59921L113.87 7.73791C113.301 7.45323 112.874 7.3109 112.02 7.3109C111.308 7.3109 110.739 7.59557 110.739 8.16492C110.739 8.59193 111.308 8.73427 111.878 9.01895C112.874 9.30362 114.155 9.5883 114.155 11.0117C114.297 12.2927 113.586 13.0044 111.735 13.0044ZM110.027 3.04077H111.166L112.02 4.32181L112.874 3.04077H114.013L112.732 5.31817H111.308L110.027 3.04077Z" fill="black"/>
<path d="M116.858 10.1573C117 11.4383 117.712 11.8653 118.566 11.8653C119.562 11.8653 120.132 11.5806 120.559 11.296L120.843 12.577C120.274 12.8617 119.562 13.004 118.566 13.004C116.858 13.004 115.435 12.0077 115.435 9.58792C115.435 7.31052 116.716 6.02948 118.281 6.02948C120.132 6.02948 121.128 7.31052 121.128 9.30324V10.0149H116.858V10.1573ZM119.847 9.16091C119.847 8.02221 119.278 7.31052 118.424 7.31052C117.712 7.31052 117 7.73753 116.858 9.16091H119.847Z" fill="black"/>
<path d="M128.956 13.0039H126.109V2.75562H129.098C130.949 2.75562 132.088 3.75198 132.088 5.46003C132.088 6.59873 131.518 7.31042 130.664 7.73743C131.518 8.16444 132.23 9.01847 132.23 10.1572C132.23 11.8652 130.949 13.0039 128.956 13.0039ZM129.098 4.03665H127.39V7.02574H128.956C129.952 7.02574 130.664 6.45639 130.664 5.46003C130.664 4.46367 130.095 4.03665 129.098 4.03665ZM128.956 8.30678H127.39V11.7229H128.956C129.952 11.7229 130.807 11.1535 130.807 10.1572C130.807 9.01847 129.952 8.30678 128.956 8.30678Z" fill="black"/>
<path d="M137.355 12.435C137.212 12.7196 136.643 13.1467 135.789 13.1467C134.366 13.1467 133.512 12.435 133.512 11.0116C133.512 9.58822 134.508 8.87653 135.789 8.87653C136.501 8.87653 137.07 9.16121 137.355 9.44588V8.44952C137.355 7.59549 136.785 7.31082 136.074 7.31082C135.22 7.31082 134.508 7.59549 134.223 7.73783L134.081 6.59913C134.508 6.45679 135.22 6.17212 136.216 6.17212C137.782 6.17212 138.636 7.02614 138.636 8.44952V13.0043H137.355V12.435ZM137.355 10.7269C137.355 10.1576 136.785 9.87289 136.074 9.87289C135.362 9.87289 134.793 10.1576 134.793 11.0116C134.793 11.7233 135.362 12.008 136.074 12.008C136.785 12.008 137.355 11.5809 137.355 11.0116V10.7269Z" fill="black"/>
<path d="M143.619 12.8618C143.334 13.0041 143.049 13.1465 142.48 13.1465C141.768 13.1465 140.772 12.8618 140.772 11.4384V7.31064H139.918V6.17194H140.914V3.60987L142.195 3.46753V6.17194H143.334V7.1683H142.195V11.1538C142.195 11.5808 142.48 11.7231 142.765 11.7231C143.049 11.7231 143.334 11.5808 143.619 11.5808V12.8618Z" fill="black"/>
<path d="M145.611 4.89067C145.042 4.89067 144.757 4.60599 144.757 4.03664C144.757 3.46729 145.042 3.18262 145.611 3.18262C146.18 3.18262 146.465 3.46729 146.465 4.03664C146.465 4.74833 146.038 4.89067 145.611 4.89067ZM146.18 6.1717V13.0039H144.899V6.1717H146.18Z" fill="black"/>
<path d="M150.451 6.17212H151.875L153.583 11.2963L155.291 6.17212H156.714L154.294 13.0043H153.013L150.451 6.17212Z" fill="black"/>
<path d="M158.28 10.1573C158.422 11.4383 159.134 11.8653 159.988 11.8653C160.984 11.8653 161.554 11.5806 161.981 11.296L162.265 12.577C161.696 12.8617 160.984 13.004 159.988 13.004C158.28 13.004 156.856 12.0077 156.856 9.58792C156.856 7.31052 158.137 6.02948 159.703 6.02948C161.554 6.02948 162.55 7.31052 162.55 9.30324V10.0149H158.28V10.1573ZM161.269 9.16091C161.269 8.02221 160.7 7.31052 159.846 7.31052C159.134 7.31052 158.422 7.73753 158.28 9.16091H161.269Z" fill="black"/>
<path d="M172.798 13.0039H166.82L171.09 4.03665H167.105V2.75562H173.083L168.813 11.7229H172.798V13.0039Z" fill="black"/>
<path d="M175.644 2.75562V13.0039H174.363V2.75562H175.644Z" fill="black"/>
<path d="M178.492 3.04071H179.915L178.634 5.31811H177.638L178.492 3.04071ZM178.919 6.17214V13.0043H177.638V6.17214H178.919Z" fill="black"/>
<path d="M184.754 8.59186C184.754 7.88017 184.327 7.31082 183.616 7.31082C182.762 7.31082 182.335 7.88017 182.335 8.59186V13.0043H181.054V6.17212H182.335V6.74147C182.619 6.45679 183.046 6.17212 183.9 6.17212C185.181 6.17212 186.178 7.02614 186.178 8.59186V13.0043H184.897V8.59186H184.754Z" fill="black"/>
<path d="M188.882 10.1576C189.025 11.4387 189.736 11.8657 190.59 11.8657C191.587 11.8657 192.156 11.581 192.583 11.2963L192.868 12.5774C192.298 12.8621 191.587 13.0044 190.59 13.0044C188.882 13.0044 187.459 12.008 187.459 9.5883C187.459 7.3109 188.74 6.02986 190.306 6.02986C192.156 6.02986 193.152 7.3109 193.152 9.30362V10.0153H188.882V10.1576ZM188.455 3.04077H189.594L190.448 4.32181L191.302 3.04077H192.441L191.16 5.31817H189.736L188.455 3.04077ZM191.871 9.16128C191.871 8.02258 191.302 7.3109 190.448 7.3109C189.736 7.3109 189.025 7.73791 188.882 9.16128H191.871Z" fill="black"/>
</svg>
