<svg width="195" height="31" viewBox="0 0 195 31" fill="none" xmlns="http://www.w3.org/2000/svg">
<path d="M24.1969 23.0589V24.1976H21.0655V28.3254H19.9268V19.3582H24.7662V20.4969H21.0655V23.0589H24.1969Z" fill="black"/>
<path d="M28.3253 27.7558C28.1829 27.8981 27.7559 28.3251 26.9019 28.3251C25.6209 28.3251 24.9092 27.6134 24.9092 26.4747C24.9092 25.1937 25.7632 24.482 26.9019 24.482C27.4713 24.482 28.0406 24.7667 28.3253 24.909V24.1973C28.3253 23.4856 27.8983 23.201 27.1866 23.201C26.4749 23.201 25.9055 23.4856 25.4785 23.628L25.3362 22.6316C25.7632 22.4893 26.3326 22.2046 27.1866 22.2046C28.4676 22.2046 29.3216 22.9163 29.3216 24.1973V28.1828H28.1829V27.7558H28.3253ZM28.3253 26.3324C28.3253 25.9054 27.7559 25.6207 27.1866 25.6207C26.6172 25.6207 26.0479 25.9054 26.0479 26.6171C26.0479 27.1864 26.6172 27.4711 27.1866 27.4711C27.8983 27.4711 28.3253 27.0441 28.3253 26.6171V26.3324Z" fill="black"/>
<path d="M32.3106 28.3254H31.1719V19.3582H32.3106V24.767L34.3033 22.3472H35.7267L33.5916 24.9093L36.1537 28.3254H34.7303L32.4529 25.194V28.3254H32.3106Z" fill="black"/>
<path d="M40.139 27.7562C39.9967 28.0409 39.5696 28.3256 38.7156 28.3256C37.5769 28.3256 36.8652 27.4716 36.8652 26.1905V22.3474H38.0039V26.1905C38.0039 26.9022 38.2886 27.3292 39.0003 27.3292C39.8543 27.3292 40.2813 26.7599 40.2813 26.0482V22.3474H41.2777V28.3256H40.139V27.7562Z" fill="black"/>
<path d="M44.125 19.3582V28.3254H42.9863V19.3582H44.125Z" fill="black"/>
<path d="M48.5377 28.1831C48.3953 28.3254 48.1107 28.3254 47.5413 28.3254C46.8296 28.3254 46.1179 28.0407 46.1179 26.7597V23.2013H45.4062V22.2049H46.1179V19.9275L47.2566 19.7852V22.2049H48.253V23.2013H47.2566V26.7597C47.2566 27.1867 47.5413 27.329 47.6837 27.329C47.9683 27.329 48.253 27.1867 48.3953 27.1867L48.5377 28.1831Z" fill="black"/>
<path d="M52.6641 27.7558C52.5218 27.8981 52.0948 28.3251 51.2408 28.3251C49.9597 28.3251 49.248 27.6134 49.248 26.4747C49.248 25.1937 50.1021 24.482 51.2408 24.482C51.8101 24.482 52.3795 24.7667 52.6641 24.909V24.1973C52.6641 23.4856 52.2371 23.201 51.5254 23.201C50.8138 23.201 50.2444 23.4856 49.8174 23.628V22.6316C50.2444 22.4893 50.8138 22.2046 51.6678 22.2046C52.9488 22.2046 53.8028 22.9163 53.8028 24.1973V28.1828H52.6641V27.7558ZM52.6641 26.3324C52.6641 25.9054 52.0948 25.6207 51.5254 25.6207C50.9561 25.6207 50.3868 25.9054 50.3868 26.6171C50.3868 27.1864 50.9561 27.4711 51.5254 27.4711C52.2371 27.4711 52.6641 27.0441 52.6641 26.6171V26.3324Z" fill="black"/>
<path d="M65.0483 24.4821C65.0483 23.7704 64.6212 23.3433 64.0519 23.3433C63.3402 23.3433 62.9132 23.7704 62.9132 24.4821V28.3252H61.7745V24.4821C61.7745 23.7704 61.3475 23.3433 60.7781 23.3433C60.0664 23.3433 59.6394 23.7704 59.6394 24.4821V28.3252H58.3584V22.347H59.4971V22.774C59.6394 22.4893 60.2088 22.2047 60.9205 22.2047C61.6322 22.2047 62.2015 22.4893 62.6285 23.0587C62.9132 22.6317 63.4825 22.2047 64.3366 22.2047C65.4753 22.2047 66.3293 23.0587 66.3293 24.3397V28.1828H65.1906V24.4821H65.0483Z" fill="black"/>
<path d="M70.8848 27.7558C70.7425 27.8981 70.3155 28.3251 69.4615 28.3251C68.1804 28.3251 67.4688 27.6134 67.4688 26.4747C67.4688 25.1937 68.3228 24.482 69.4615 24.482C70.0308 24.482 70.6002 24.7667 70.8848 24.909V24.1973C70.8848 23.4856 70.4578 23.201 69.7461 23.201C69.0345 23.201 68.4651 23.4856 68.0381 23.628L67.8958 22.6316C68.3228 22.4893 68.8921 22.2046 69.7461 22.2046C71.0272 22.2046 71.8812 22.9163 71.8812 24.1973V28.1828H70.7425V27.7558H70.8848ZM70.8848 26.3324C70.8848 25.9054 70.3155 25.6207 69.7461 25.6207C69.1768 25.6207 68.6074 25.9054 68.6074 26.6171C68.6074 27.1864 69.1768 27.4711 69.7461 27.4711C70.4578 27.4711 70.8848 27.0441 70.8848 26.6171V26.3324Z" fill="black"/>
<path d="M77.1458 24.482C77.1458 23.7703 76.7188 23.3433 76.1495 23.3433C75.4378 23.3433 75.0108 23.7703 75.0108 24.482V28.3251H73.8721V22.3469H75.0108V22.7739C75.1531 22.4893 75.7225 22.2046 76.4341 22.2046C77.5728 22.2046 78.4269 23.0586 78.4269 24.3397V28.1828H77.2882V24.482H77.1458Z" fill="black"/>
<path d="M82.9825 27.7558C82.8402 27.8981 82.4132 28.3251 81.5591 28.3251C80.2781 28.3251 79.5664 27.6134 79.5664 26.4747C79.5664 25.1937 80.4204 24.482 81.5591 24.482C82.1285 24.482 82.6978 24.7667 82.9825 24.909V24.1973C82.9825 23.4856 82.5555 23.201 81.8438 23.201C81.1321 23.201 80.5628 23.4856 80.1358 23.628L79.9934 22.6316C80.4204 22.4893 80.9898 22.2046 81.8438 22.2046C83.1248 22.2046 83.9789 22.9163 83.9789 24.1973V28.1828H82.8402V27.7558H82.9825ZM82.9825 26.3324C82.9825 25.9054 82.4132 25.6207 81.8438 25.6207C81.2745 25.6207 80.7051 25.9054 80.7051 26.6171C80.7051 27.1864 81.2745 27.4711 81.8438 27.4711C82.5555 27.4711 82.9825 27.0441 82.9825 26.6171V26.3324Z" fill="black"/>
<path d="M90.6679 28.3253C90.6679 30.1757 89.6715 30.7451 88.2481 30.7451C87.2518 30.7451 86.5401 30.4604 86.2554 30.3181L86.3977 29.3217C86.8247 29.464 87.3941 29.7487 88.1058 29.7487C88.8175 29.7487 89.3868 29.1794 89.3868 28.3253V27.6137C89.2445 27.756 88.6751 28.3253 87.8211 28.3253C86.6824 28.3253 85.4014 27.6137 85.4014 25.4786C85.4014 23.3435 86.5401 22.4895 87.8211 22.4895C88.8175 22.4895 89.1021 22.7742 89.2445 23.0589V22.6318H90.3832V28.3253H90.6679ZM89.5292 24.6246C89.5292 23.6282 88.9598 23.2012 88.2481 23.2012C87.5364 23.2012 86.8247 23.7705 86.8247 25.1939C86.8247 26.6173 87.3941 27.0443 88.2481 27.0443C88.9598 27.0443 89.6715 26.6173 89.6715 25.6209V24.6246H89.5292Z" fill="black"/>
<path d="M93.2305 25.7636C93.3728 26.9023 93.9422 27.3293 94.7962 27.3293C95.6502 27.3293 96.2196 27.1869 96.6466 26.9023L96.7889 28.041C96.2196 28.3256 95.6502 28.468 94.7962 28.468C93.3728 28.468 92.0918 27.614 92.0918 25.4789C92.0918 23.4862 93.2305 22.3475 94.6539 22.3475C96.2196 22.3475 97.0736 23.4862 97.0736 25.1942V25.7636H93.2305ZM95.9349 24.9095C95.9349 23.9132 95.3656 23.3438 94.6539 23.3438C94.0845 23.3438 93.5152 23.6285 93.3728 24.9095H95.9349Z" fill="black"/>
<path d="M105.046 24.4821C105.046 23.7704 104.619 23.3433 104.049 23.3433C103.338 23.3433 102.911 23.7704 102.911 24.4821V28.3252H101.772V24.4821C101.772 23.7704 101.345 23.3433 100.775 23.3433C100.064 23.3433 99.6368 23.7704 99.6368 24.4821V28.3252H98.498V22.347H99.6368V22.774C99.7791 22.4893 100.348 22.2047 101.06 22.2047C101.772 22.2047 102.341 22.4893 102.768 23.0587C103.053 22.6317 103.622 22.2047 104.476 22.2047C105.615 22.2047 106.469 23.0587 106.469 24.3397V28.1828H105.33V24.4821H105.046Z" fill="black"/>
<path d="M108.745 25.7635C108.887 26.9022 109.457 27.3292 110.311 27.3292C111.165 27.3292 111.734 27.1869 112.161 26.9022L112.304 28.0409C111.734 28.3256 111.165 28.4679 110.311 28.4679C108.887 28.4679 107.606 27.6139 107.606 25.4788C107.606 23.4861 108.745 22.3474 110.169 22.3474C111.734 22.3474 112.588 23.4861 112.588 25.1942V25.7635H108.745ZM111.45 24.9095C111.45 23.9131 110.88 23.3438 110.169 23.3438C109.599 23.3438 109.03 23.6284 108.887 24.9095H111.45Z" fill="black"/>
<path d="M117.285 24.482C117.285 23.7703 116.857 23.3433 116.288 23.3433C115.576 23.3433 115.149 23.7703 115.149 24.482V28.3251H114.011V22.3469H115.149V22.7739C115.292 22.4893 115.861 22.2046 116.573 22.2046C117.712 22.2046 118.566 23.0586 118.566 24.3397V28.1828H117.427V24.482H117.285Z" fill="black"/>
<path d="M122.836 28.1831C122.694 28.3254 122.409 28.3254 121.84 28.3254C121.128 28.3254 120.417 28.0407 120.417 26.7597V23.2013H119.562V22.2049H120.274V19.9275L121.413 19.7852V22.2049H122.409V23.2013H121.413V26.7597C121.413 27.1867 121.698 27.329 121.84 27.329C122.125 27.329 122.409 27.1867 122.552 27.1867L122.836 28.1831Z" fill="black"/>
<path d="M127.249 27.7562C127.107 28.0409 126.68 28.3256 125.826 28.3256C124.687 28.3256 123.976 27.4716 123.976 26.1905V22.3474H125.114V26.1905C125.114 26.9022 125.399 27.3292 126.111 27.3292C126.965 27.3292 127.392 26.7599 127.392 26.0482V22.3474H128.53V28.3256H127.392V27.7562H127.249Z" fill="black"/>
<path d="M135.932 27.7558C135.789 27.8981 135.362 28.3251 134.508 28.3251C133.227 28.3251 132.516 27.6134 132.516 26.4747C132.516 25.1937 133.37 24.482 134.508 24.482C135.078 24.482 135.647 24.7667 135.932 24.909V24.1973C135.932 23.4856 135.505 23.201 134.793 23.201C134.081 23.201 133.512 23.4856 133.085 23.628L132.943 22.6316C133.37 22.4893 133.939 22.2046 134.793 22.2046C136.074 22.2046 136.928 22.9163 136.928 24.1973V28.1828H135.789V27.7558H135.932ZM135.932 26.3324C135.932 25.9054 135.362 25.6207 134.793 25.6207C134.224 25.6207 133.654 25.9054 133.654 26.6171C133.654 27.1864 134.224 27.4711 134.793 27.4711C135.505 27.4711 135.932 27.0441 135.932 26.6171V26.3324Z" fill="black"/>
<path d="M142.622 25.7635C142.764 26.9022 143.334 27.3292 144.188 27.3292C145.042 27.3292 145.611 27.1869 146.038 26.9022L146.181 28.0409C145.611 28.3256 145.042 28.4679 144.188 28.4679C142.764 28.4679 141.483 27.6139 141.483 25.4788C141.483 23.4861 142.622 22.3474 144.045 22.3474C145.611 22.3474 146.465 23.4861 146.465 25.1942V25.7635H142.622ZM145.184 24.9095C145.184 23.9131 144.615 23.3438 143.903 23.3438C143.334 23.3438 142.764 23.6284 142.622 24.9095H145.184Z" fill="black"/>
<path d="M148.885 28.3254H147.746V19.3582H148.885V24.767L150.878 22.3472H152.301L150.166 24.9093L152.728 28.3254H151.305L149.027 25.194V28.3254H148.885Z" fill="black"/>
<path d="M155.29 28.3256C153.867 28.3256 152.586 27.4716 152.586 25.3365C152.586 23.2014 153.867 22.3474 155.29 22.3474C156.714 22.3474 157.995 23.2014 157.995 25.3365C157.995 27.6139 156.714 28.3256 155.29 28.3256ZM155.29 23.3438C154.436 23.3438 153.725 24.0555 153.725 25.3365C153.725 26.6175 154.436 27.3292 155.29 27.3292C156.144 27.3292 156.856 26.6175 156.856 25.3365C156.856 24.0555 156.144 23.3438 155.29 23.3438Z" fill="black"/>
<path d="M162.692 24.482C162.692 23.7703 162.265 23.3433 161.695 23.3433C160.984 23.3433 160.557 23.7703 160.557 24.482V28.3251H159.418V22.3469H160.557V22.7739C160.699 22.4893 161.268 22.2046 161.98 22.2046C163.119 22.2046 163.973 23.0586 163.973 24.3397V28.1828H162.834V24.482H162.692Z" fill="black"/>
<path d="M167.816 28.3256C166.392 28.3256 165.111 27.4716 165.111 25.3365C165.111 23.2014 166.392 22.3474 167.816 22.3474C169.239 22.3474 170.52 23.2014 170.52 25.3365C170.52 27.6139 169.239 28.3256 167.816 28.3256ZM167.816 23.3438C166.962 23.3438 166.25 24.0555 166.25 25.3365C166.25 26.6175 166.962 27.3292 167.816 27.3292C168.67 27.3292 169.381 26.6175 169.381 25.3365C169.381 24.0555 168.812 23.3438 167.816 23.3438Z" fill="black"/>
<path d="M178.633 24.482C178.633 23.7703 178.206 23.3433 177.637 23.3433C176.925 23.3433 176.498 23.7703 176.498 24.482V28.3251H175.36V24.482C175.36 23.7703 174.933 23.3433 174.363 23.3433C173.652 23.3433 173.225 23.7703 173.225 24.482V28.3251H172.086V22.3469H173.225V22.7739C173.367 22.4893 173.936 22.2046 174.648 22.2046C175.36 22.2046 175.929 22.4893 176.356 23.0586C176.641 22.6316 177.21 22.2046 178.064 22.2046C179.203 22.2046 180.057 23.0586 180.057 24.3397V28.1828H178.918V24.482H178.633Z" fill="black"/>
<path d="M182.05 21.2085C181.623 21.2085 181.338 20.9239 181.338 20.4968C181.338 20.0698 181.623 19.7852 182.05 19.7852C182.477 19.7852 182.761 20.0698 182.761 20.4968C182.761 21.0662 182.477 21.2085 182.05 21.2085ZM182.619 22.3472V28.3254H181.48V22.3472H182.619Z" fill="black"/>
<path d="M185.466 28.3254H184.327V19.3582H185.466V24.767L187.459 22.3472H188.882L186.747 24.9093L189.309 28.3254H187.886L185.608 25.194V28.3254H185.466Z" fill="black"/>
<path d="M191.443 30.7453V27.3292L189.166 22.3474H190.447L192.013 26.0482L193.578 22.3474H194.86L192.582 27.3292V30.7453H191.443Z" fill="black"/>
<path d="M10.533 0L0 3.55844V0H10.533ZM0 4.12779C0 4.69714 0.854025 5.12415 1.85039 5.12415C2.2774 5.12415 2.56207 4.98181 2.84675 4.98181C3.27376 4.83947 12.9527 1.42337 12.9527 1.42337V15.5148C12.9527 15.5148 3.13142 18.9309 2.84675 19.0732C2.56207 19.2156 2.13506 19.2156 1.85039 19.2156C0.854025 19.2156 0 18.6462 0 17.7922V4.12779Z" fill="#64B9E4"/>
<path d="M26.1903 9.39421C26.1903 11.6716 25.3363 12.9526 23.0589 12.9526C20.7815 12.9526 19.7852 11.6716 19.7852 9.39421V2.70435H21.0662V9.39421C21.0662 10.9599 21.4932 11.8139 22.9166 11.8139C24.34 11.8139 24.767 10.9599 24.767 9.39421V2.70435H26.048V9.39421H26.1903Z" fill="black"/>
<path d="M32.026 8.54034C32.026 7.82866 31.599 7.25931 30.8873 7.25931C30.0332 7.25931 29.6062 7.82866 29.6062 8.54034V12.9528H28.3252V6.12061H29.6062V6.68995C29.8909 6.40528 30.3179 6.12061 31.1719 6.12061C32.453 6.12061 33.4493 6.97463 33.4493 8.54034V12.9528H32.1683V8.54034H32.026Z" fill="black"/>
<path d="M35.8687 4.8394C35.2993 4.8394 35.0146 4.55472 35.0146 3.98537C35.0146 3.41602 35.2993 3.13135 35.8687 3.13135C36.438 3.13135 36.7227 3.41602 36.7227 3.98537C36.7227 4.69706 36.438 4.8394 35.8687 4.8394ZM36.5804 6.12044V12.9526H35.2993V6.12044H36.5804Z" fill="black"/>
<path d="M37.5771 6.12061H39.0005L40.7086 11.2448L42.4166 6.12061H43.84L41.2779 12.9528H39.9969L37.5771 6.12061Z" fill="black"/>
<path d="M45.4058 10.1058C45.5481 11.3869 46.2598 11.8139 47.1138 11.8139C48.1102 11.8139 48.6796 11.5292 49.1066 11.2445L49.3912 12.5256C48.8219 12.8102 48.1102 12.9526 47.1138 12.9526C45.4058 12.9526 43.9824 11.9562 43.9824 9.53646C43.9824 7.25906 45.2635 5.97803 46.8292 5.97803C48.6796 5.97803 49.6759 7.25907 49.6759 9.25179V9.96348H45.4058V10.1058ZM48.3949 9.10945C48.3949 7.97075 47.8255 7.25906 46.9715 7.25906C46.2598 7.25906 45.5481 7.68608 45.4058 9.10945H48.3949Z" fill="black"/>
<path d="M54.2305 7.54374C54.0882 7.54374 53.8035 7.4014 53.3765 7.4014C52.9495 7.4014 52.6648 7.82841 52.6648 8.5401V12.9526H51.3838V6.12037H52.6648V6.83205C52.8072 6.40504 53.2342 5.97803 53.9459 5.97803C54.2305 5.97803 54.3729 5.97803 54.5152 6.12037L54.2305 7.54374Z" fill="black"/>
<path d="M60.0668 12.9528H55.085L58.3587 7.25931H55.2273V6.12061H60.2091L57.0777 11.8141H60.0668V12.9528Z" fill="black"/>
<path d="M62.2007 4.8394C61.6314 4.8394 61.3467 4.55472 61.3467 3.98537C61.3467 3.41602 61.6314 3.13135 62.2007 3.13135C62.7701 3.13135 63.0547 3.41602 63.0547 3.98537C63.0547 4.69706 62.6277 4.8394 62.2007 4.8394ZM62.7701 6.12044V12.9526H61.489V6.12044H62.7701Z" fill="black"/>
<path d="M68.0377 12.8103C67.753 12.9526 67.4683 13.095 66.899 13.095C66.1873 13.095 65.1909 12.8103 65.1909 11.3869V7.25913H64.3369V6.12043H65.1909V3.55835L66.472 3.41602V6.12043H67.6107V7.11679H66.472V11.1022C66.472 11.5293 66.7566 11.6716 67.0413 11.6716C67.326 11.6716 67.6107 11.5293 67.8954 11.5293L68.0377 12.8103Z" fill="black"/>
<path d="M72.7347 12.3835C72.5924 12.5258 72.1654 12.9528 71.169 12.9528C69.7456 12.9528 68.8916 12.2411 68.8916 10.8177C68.8916 9.39437 69.888 8.68268 71.169 8.68268C71.8807 8.68268 72.45 8.96736 72.7347 9.25203V8.39801C72.7347 7.54398 72.1654 7.25931 71.4537 7.25931C70.5997 7.25931 69.888 7.54398 69.6033 7.68632L69.4609 6.54762C69.888 6.40528 70.5996 6.12061 71.596 6.12061C73.1617 6.12061 74.0157 6.97463 74.0157 8.39801V12.9528H72.7347V12.3835ZM72.7347 10.6754C72.7347 10.1061 72.1654 9.82138 71.4537 9.82138C70.742 9.82138 70.1726 10.1061 70.1726 10.9601C70.1726 11.6718 70.742 11.9564 71.4537 11.9564C72.1654 11.9564 72.7347 11.5294 72.7347 10.9601V10.6754Z" fill="black"/>
<path d="M81.2752 12.9526V3.98538H78.8555V2.70435H85.1183V3.98538H82.5562V12.9526H81.2752Z" fill="black"/>
<path d="M87.6802 12.9528C85.9722 12.9528 84.5488 11.9564 84.5488 9.5367C84.5488 6.97463 85.9722 6.12061 87.6802 6.12061C89.246 6.12061 90.8117 7.11697 90.8117 9.5367C90.8117 12.0988 89.3883 12.9528 87.6802 12.9528ZM87.6802 7.25931C86.6839 7.25931 85.9722 8.11333 85.9722 9.5367C85.9722 10.9601 86.6839 11.8141 87.6802 11.8141C88.6766 11.8141 89.3883 11.1024 89.3883 9.5367C89.3883 7.97099 88.6766 7.25931 87.6802 7.25931Z" fill="black"/>
<path d="M99.9211 8.54034C99.9211 7.82866 99.4941 7.25931 98.7824 7.25931C97.9284 7.25931 97.5013 7.82866 97.5013 8.54034V12.9528H96.2203V8.54034C96.2203 7.82866 95.7933 7.25931 95.0816 7.25931C94.2276 7.25931 93.8006 7.82866 93.8006 8.54034V12.9528H92.5195V6.12061H93.8006V6.68995C94.0852 6.40528 94.5123 6.12061 95.3663 6.12061C96.2203 6.12061 96.932 6.40528 97.2167 7.11697C97.6437 6.54762 98.213 6.12061 99.0671 6.12061C100.348 6.12061 101.344 6.97463 101.344 8.54034V12.9528H100.063V8.54034H99.9211Z" fill="black"/>
<path d="M106.752 12.3835C106.61 12.6682 106.041 13.0952 105.187 13.0952C103.763 13.0952 102.909 12.3835 102.909 10.9602C102.909 9.53678 103.906 8.82509 105.187 8.82509C105.898 8.82509 106.468 9.10977 106.752 9.39444V8.39808C106.752 7.54406 106.183 7.25938 105.471 7.25938C104.617 7.25938 103.906 7.54406 103.621 7.6864L103.479 6.5477C103.906 6.40536 104.617 6.12068 105.614 6.12068C107.179 6.12068 108.033 6.97471 108.033 8.39808V12.9529H106.752V12.3835ZM106.752 10.6755C106.752 10.1061 106.183 9.82146 105.471 9.82146C104.76 9.82146 104.19 10.1061 104.19 10.9602C104.19 11.6718 104.76 11.9565 105.471 11.9565C106.183 11.8142 106.752 11.3872 106.752 10.8178V10.6755ZM105.898 2.98926H107.322L106.041 5.26666H105.044L105.898 2.98926Z" fill="black"/>
<path d="M111.735 12.9529C110.739 12.9529 109.885 12.6682 109.458 12.5259L109.885 11.3872C110.454 11.6718 111.166 11.8142 111.878 11.8142C112.447 11.8142 113.016 11.6718 113.016 11.1025C113.016 10.5331 112.305 10.3908 111.593 10.1061C110.597 9.82146 109.6 9.53678 109.6 8.11341C109.6 6.69003 110.597 6.12068 112.162 6.12068C113.159 6.12068 113.728 6.26302 114.155 6.5477L113.87 7.6864C113.301 7.40172 112.874 7.25938 112.02 7.25938C111.308 7.25938 110.739 7.54406 110.739 8.11341C110.739 8.54042 111.308 8.68276 111.878 8.96743C112.874 9.25211 114.155 9.53678 114.155 10.9602C114.297 12.2412 113.586 12.9529 111.735 12.9529ZM110.027 2.98926H111.166L112.02 4.2703L112.874 2.98926H114.013L112.732 5.26666H111.308L110.027 2.98926Z" fill="black"/>
<path d="M116.858 10.1058C117 11.3869 117.712 11.8139 118.566 11.8139C119.562 11.8139 120.132 11.5292 120.559 11.2445L120.843 12.5256C120.274 12.8102 119.562 12.9526 118.566 12.9526C116.858 12.9526 115.435 11.9562 115.435 9.53646C115.435 7.25906 116.716 5.97803 118.281 5.97803C120.132 5.97803 121.128 7.25907 121.128 9.25179V9.96348H116.858V10.1058ZM119.847 9.10945C119.847 7.97075 119.278 7.25906 118.424 7.25906C117.712 7.25906 117 7.68608 116.858 9.10945H119.847Z" fill="black"/>
<path d="M128.956 12.9526H126.109V2.70435H129.098C130.949 2.70435 132.088 3.70071 132.088 5.40876C132.088 6.54746 131.518 7.25915 130.664 7.68616C131.518 8.11317 132.23 8.9672 132.23 10.1059C132.23 11.8139 130.949 12.9526 128.956 12.9526ZM129.098 3.98538H127.39V6.97447H128.956C129.952 6.97447 130.664 6.40512 130.664 5.40876C130.664 4.4124 130.095 3.98538 129.098 3.98538ZM128.956 8.25551H127.39V11.6716H128.956C129.952 11.6716 130.807 11.1023 130.807 10.1059C130.807 8.9672 129.952 8.25551 128.956 8.25551Z" fill="black"/>
<path d="M137.355 12.3835C137.212 12.6681 136.643 13.0951 135.789 13.0951C134.366 13.0951 133.512 12.3835 133.512 10.9601C133.512 9.5367 134.508 8.82502 135.789 8.82502C136.501 8.82502 137.07 9.10969 137.355 9.39437V8.39801C137.355 7.54398 136.785 7.25931 136.074 7.25931C135.22 7.25931 134.508 7.54398 134.223 7.68632L134.081 6.54762C134.508 6.40528 135.22 6.12061 136.216 6.12061C137.782 6.12061 138.636 6.97463 138.636 8.39801V12.9528H137.355V12.3835ZM137.355 10.6754C137.355 10.1061 136.785 9.82138 136.074 9.82138C135.362 9.82138 134.793 10.1061 134.793 10.9601C134.793 11.6718 135.362 11.9564 136.074 11.9564C136.785 11.9564 137.355 11.5294 137.355 10.9601V10.6754Z" fill="black"/>
<path d="M143.619 12.8103C143.334 12.9526 143.049 13.095 142.48 13.095C141.768 13.095 140.772 12.8103 140.772 11.3869V7.25913H139.918V6.12043H140.914V3.55835L142.195 3.41602V6.12043H143.334V7.11679H142.195V11.1022C142.195 11.5293 142.48 11.6716 142.765 11.6716C143.049 11.6716 143.334 11.5293 143.619 11.5293V12.8103Z" fill="black"/>
<path d="M145.611 4.8394C145.042 4.8394 144.757 4.55472 144.757 3.98537C144.757 3.41602 145.042 3.13135 145.611 3.13135C146.18 3.13135 146.465 3.41602 146.465 3.98537C146.465 4.69706 146.038 4.8394 145.611 4.8394ZM146.18 6.12044V12.9526H144.899V6.12044H146.18Z" fill="black"/>
<path d="M150.451 6.12054H151.875L153.583 11.2447L155.291 6.12054H156.714L154.294 12.9527H153.013L150.451 6.12054Z" fill="black"/>
<path d="M158.28 10.1058C158.422 11.3869 159.134 11.8139 159.988 11.8139C160.984 11.8139 161.554 11.5292 161.981 11.2445L162.265 12.5256C161.696 12.8102 160.984 12.9526 159.988 12.9526C158.28 12.9526 156.856 11.9562 156.856 9.53646C156.856 7.25906 158.137 5.97803 159.703 5.97803C161.554 5.97803 162.55 7.25907 162.55 9.25179V9.96348H158.28V10.1058ZM161.269 9.10945C161.269 7.97075 160.7 7.25906 159.846 7.25906C159.134 7.25906 158.422 7.68608 158.28 9.10945H161.269Z" fill="black"/>
<path d="M172.798 12.9526H166.82L171.09 3.98538H167.105V2.70435H173.083L168.813 11.6716H172.798V12.9526Z" fill="black"/>
<path d="M175.644 2.70435V12.9526H174.363V2.70435H175.644Z" fill="black"/>
<path d="M178.492 2.98926H179.915L178.634 5.26666H177.638L178.492 2.98926ZM178.919 6.12068V12.9529H177.638V6.12068H178.919Z" fill="black"/>
<path d="M184.754 8.54028C184.754 7.82859 184.327 7.25924 183.616 7.25924C182.762 7.25924 182.335 7.82859 182.335 8.54028V12.9527H181.054V6.12054H182.335V6.68989C182.619 6.40522 183.046 6.12054 183.9 6.12054C185.181 6.12054 186.178 6.97457 186.178 8.54028V12.9527H184.897V8.54028H184.754Z" fill="black"/>
<path d="M188.882 10.1061C189.025 11.3872 189.736 11.8142 190.59 11.8142C191.587 11.8142 192.156 11.5295 192.583 11.2448L192.868 12.5259C192.298 12.8105 191.587 12.9529 190.59 12.9529C188.882 12.9529 187.459 11.9565 187.459 9.53678C187.459 7.25938 188.74 5.97834 190.306 5.97834C192.156 5.97834 193.152 7.25938 193.152 9.25211V9.96379H188.882V10.1061ZM188.455 2.98926H189.594L190.448 4.2703L191.302 2.98926H192.441L191.16 5.26666H189.736L188.455 2.98926ZM191.871 9.10977C191.871 7.97107 191.302 7.25938 190.448 7.25938C189.736 7.25938 189.025 7.6864 188.882 9.10977H191.871Z" fill="black"/>
</svg>
