<svg width="194" height="29" viewBox="0 0 194 29" fill="none" xmlns="http://www.w3.org/2000/svg">
<path d="M24.6205 23.5858V24.7245H21.3467V28.8523H20.208V19.885H25.0475V21.0237H21.3467V23.5858H24.6205Z" fill="black"/>
<path d="M28.7481 28.2826C28.6058 28.4249 28.1788 28.852 27.3248 28.852C26.0437 28.852 25.332 28.1403 25.332 27.0016C25.332 25.7205 26.1861 25.0088 27.3248 25.0088C27.8941 25.0088 28.4635 25.2935 28.7481 25.4359V24.7242C28.7481 24.0125 28.3211 23.7278 27.6094 23.7278C26.8977 23.7278 26.3284 24.0125 25.9014 24.1548L25.759 23.1585C26.1861 23.0161 26.7554 22.7314 27.6094 22.7314C28.8905 22.7314 29.7445 23.4431 29.7445 24.7242V28.7096H28.6058V28.2826H28.7481ZM28.7481 26.8592C28.7481 26.4322 28.1788 26.1475 27.6094 26.1475C27.0401 26.1475 26.4707 26.4322 26.4707 27.1439C26.4707 27.7133 27.0401 27.9979 27.6094 27.9979C28.3211 27.9979 28.7481 27.5709 28.7481 27.1439V26.8592Z" fill="black"/>
<path d="M32.7337 28.8523H31.7373V19.885H32.7337V25.2938L34.7264 22.8741H36.1498L34.0147 25.4362L36.5768 28.8523H35.0111L32.7337 25.7208V28.8523Z" fill="black"/>
<path d="M40.5618 28.2828C40.4195 28.5675 39.9925 28.8522 39.1385 28.8522C37.9998 28.8522 37.2881 27.9982 37.2881 26.7171V22.874H38.4268V26.7171C38.4268 27.4288 38.7115 27.8558 39.4231 27.8558C40.2772 27.8558 40.7042 27.2865 40.7042 26.5748V22.874H41.7005V28.8522H40.5618V28.2828Z" fill="black"/>
<path d="M44.5479 19.885H43.4092V28.8523H44.5479V19.885Z" fill="black"/>
<path d="M48.9615 28.7094C48.8192 28.8518 48.5345 28.8518 47.9651 28.8518C47.2535 28.8518 46.5418 28.5671 46.5418 27.2861V23.7276H45.8301V22.7313H46.5418V20.4539L47.6805 20.3115V22.7313H48.6768V23.7276H47.6805V27.2861C47.6805 27.7131 47.9651 27.8554 48.1075 27.8554C48.3922 27.8554 48.6768 27.7131 48.8192 27.7131L48.9615 28.7094Z" fill="black"/>
<path d="M53.088 28.2826C52.9456 28.4249 52.5186 28.852 51.6646 28.852C50.3836 28.852 49.6719 28.1403 49.6719 27.0016C49.6719 25.7205 50.5259 25.0088 51.6646 25.0088C52.234 25.0088 52.8033 25.2935 53.088 25.4359V24.7242C53.088 24.0125 52.661 23.7278 51.9493 23.7278C51.2376 23.7278 50.6682 24.0125 50.2412 24.1548V23.1585C50.6682 23.0161 51.2376 22.7314 52.0916 22.7314C53.3727 22.7314 54.2267 23.4431 54.2267 24.7242V28.7096H53.088V28.2826ZM53.088 26.8592C53.088 26.4322 52.5186 26.1475 51.9493 26.1475C51.3799 26.1475 50.8106 26.4322 50.8106 27.1439C50.8106 27.7133 51.3799 27.9979 51.9493 27.9979C52.661 27.9979 53.088 27.5709 53.088 27.1439V26.8592Z" fill="black"/>
<path d="M62.1983 25.0092C62.1983 24.2975 61.7713 23.8705 61.202 23.8705C60.4903 23.8705 60.0633 24.2975 60.0633 25.0092V28.8523H58.7822V19.885H59.9209V23.4434C60.0633 23.1588 60.6326 22.8741 61.3443 22.8741C62.483 22.8741 63.337 23.7281 63.337 25.0092V28.8523H62.1983V25.0092Z" fill="black"/>
<path d="M68.3187 28.2828C68.1763 28.5675 67.7493 28.8521 66.8953 28.8521C65.7566 28.8521 65.0449 27.9981 65.0449 26.7171V22.874H66.1836V26.7171C66.1836 27.4288 66.4683 27.8558 67.18 27.8558C68.034 27.8558 68.461 27.2864 68.461 26.5747V22.874H69.5997V28.8521H68.461V28.2828H68.3187Z" fill="black"/>
<path d="M77.8542 25.0088C77.8542 24.2972 77.4272 23.8701 76.8578 23.8701C76.1461 23.8701 75.7191 24.2972 75.7191 25.0088V28.852H74.5804V25.0088C74.5804 24.2972 74.1534 23.8701 73.584 23.8701C72.8724 23.8701 72.4453 24.2972 72.4453 25.0088V28.852H71.3066V22.8738H72.4453V23.3008C72.5877 23.0161 73.157 22.7314 73.8687 22.7314C74.5804 22.7314 75.1498 23.0161 75.5768 23.5855C75.8614 23.1585 76.4308 22.7314 77.2848 22.7314C78.4235 22.7314 79.2775 23.5855 79.2775 24.8665V28.7096H78.1388V25.0088H77.8542Z" fill="black"/>
<path d="M83.6905 28.2826C83.5482 28.4249 83.1212 28.852 82.2671 28.852C80.9861 28.852 80.2744 28.1403 80.2744 27.0016C80.2744 25.7205 81.1284 25.0088 82.2671 25.0088C82.8365 25.0088 83.4058 25.2935 83.6905 25.4359V24.7242C83.6905 24.0125 83.2635 23.7278 82.5518 23.7278C81.8401 23.7278 81.2708 24.0125 80.8438 24.1548L80.7014 23.1585C81.1284 23.0161 81.6978 22.7314 82.5518 22.7314C83.8329 22.7314 84.6869 23.4431 84.6869 24.7242V28.7096H83.5482V28.2826H83.6905ZM83.6905 26.8592C83.6905 26.4322 83.1212 26.1475 82.5518 26.1475C81.9825 26.1475 81.4131 26.4322 81.4131 27.1439C81.4131 27.7133 81.9825 27.9979 82.5518 27.9979C83.2635 27.9979 83.6905 27.5709 83.6905 27.1439V26.8592Z" fill="black"/>
<path d="M89.9525 25.0088C89.9525 24.2972 89.5255 23.8701 88.9561 23.8701C88.2444 23.8701 87.8174 24.2972 87.8174 25.0088V28.852H86.6787V22.8738H87.8174V23.3008C87.9598 23.0161 88.5291 22.7314 89.2408 22.7314C90.3795 22.7314 91.2335 23.5855 91.2335 24.8665V28.7096H90.0948V25.0088H89.9525Z" fill="black"/>
<path d="M93.3689 21.7349C92.9419 21.7349 92.6572 21.4502 92.6572 21.0232C92.6572 20.5962 92.9419 20.3115 93.3689 20.3115C93.7959 20.3115 94.0806 20.5962 94.0806 21.0232C94.0806 21.5926 93.7959 21.7349 93.3689 21.7349ZM93.9383 28.8518H92.7996V22.8736H93.9383V28.8518Z" fill="black"/>
<path d="M98.4937 28.7097C98.3514 28.8521 98.0667 28.8521 97.4974 28.8521C96.7857 28.8521 96.074 28.5674 96.074 27.2864V23.7279H95.3623V22.7316H96.074V20.4542H97.2127V22.8739H98.2091V23.8703H97.2127V27.4287C97.2127 27.8557 97.4974 27.998 97.6397 27.998C97.9244 27.998 98.2091 27.8557 98.3514 27.8557L98.4937 28.7097Z" fill="black"/>
<path d="M102.907 25.0088C102.907 24.2972 102.48 23.8701 101.91 23.8701C101.199 23.8701 100.772 24.2972 100.772 25.0088V28.852H99.6328V22.8738H100.772V23.3008C100.914 23.0161 101.483 22.7314 102.195 22.7314C103.334 22.7314 104.188 23.5855 104.188 24.8665V28.7096H102.907V25.0088Z" fill="black"/>
<path d="M106.606 20.1697H107.887L106.748 22.1624H105.752L106.606 20.1697ZM106.891 28.8523H105.752V22.8741H106.891V28.8523Z" fill="black"/>
<path d="M112.442 28.5673C112.3 28.7097 111.588 28.9943 110.877 28.9943C109.738 28.9943 108.314 28.425 108.314 26.0053C108.314 23.5855 109.738 23.0162 110.877 23.0162C111.588 23.0162 112.158 23.3008 112.442 23.4432L112.158 24.4395C111.873 24.2972 111.304 24.0125 110.877 24.0125C110.165 24.0125 109.595 24.5819 109.595 26.0053C109.595 27.4286 110.307 27.998 110.877 27.998C111.304 27.998 111.873 27.7133 112.158 27.571L112.442 28.5673Z" fill="black"/>
<path d="M116.996 25.0092C116.996 24.2975 116.569 23.8705 116 23.8705C115.288 23.8705 114.861 24.2975 114.861 25.0092V28.8523H113.723V19.885H114.861V23.4434C115.004 23.1588 115.573 22.8741 116.285 22.8741C117.423 22.8741 118.277 23.7281 118.277 25.0092V28.8523H117.139V25.0092H116.996Z" fill="black"/>
<path d="M124.398 28.8522C123.402 28.8522 122.832 28.5675 122.405 28.4252L122.548 27.4288C122.975 27.7135 123.686 27.8558 124.256 27.8558C124.825 27.8558 125.252 27.7135 125.252 27.1441C125.252 26.5748 124.683 26.4325 124.113 26.2901C123.259 26.1478 122.405 25.8631 122.405 24.5821C122.405 23.4434 123.259 22.874 124.683 22.874C125.537 22.874 126.106 23.0164 126.533 23.1587L126.391 24.1551C125.964 24.0127 125.537 23.728 124.825 23.728C124.113 23.728 123.686 24.0127 123.686 24.4397C123.686 24.8667 124.113 25.0091 124.683 25.1514C125.537 25.4361 126.675 25.7208 126.675 27.0018C126.533 28.2828 125.964 28.8522 124.398 28.8522Z" fill="black"/>
<path d="M130.519 28.7094C130.377 28.8518 130.092 28.8518 129.523 28.8518C128.811 28.8518 128.099 28.5671 128.099 27.2861V23.7276H127.388V22.7313H128.099V20.4539L129.238 20.3115V22.7313H130.234V23.7276H129.238V27.2861C129.238 27.7131 129.523 27.8554 129.665 27.8554C129.95 27.8554 130.234 27.7131 130.377 27.7131L130.519 28.7094Z" fill="black"/>
<path d="M134.933 28.2828C134.791 28.5675 134.364 28.8522 133.51 28.8522C132.371 28.8522 131.659 27.9982 131.659 26.7171V22.874H132.798V26.7171C132.798 27.4288 133.083 27.8558 133.794 27.8558C134.648 27.8558 135.075 27.2865 135.075 26.5748V22.874H136.214V28.8522H135.075V28.2828H134.933Z" fill="black"/>
<path d="M141.48 28.2827C141.337 28.425 140.768 28.852 139.914 28.852C138.775 28.852 137.494 28.1403 137.494 25.8629C137.494 23.7279 138.633 22.7315 139.914 22.7315C140.91 22.7315 141.195 23.0162 141.337 23.3009V19.7424H142.476V28.7097H141.337V28.2827H141.48ZM141.48 25.1513C141.48 24.1549 140.91 23.7279 140.199 23.7279C139.487 23.7279 138.775 24.2972 138.775 25.8629C138.775 27.2863 139.345 27.7133 140.199 27.7133C140.91 27.7133 141.622 27.2863 141.622 26.29V25.1513H141.48Z" fill="black"/>
<path d="M144.895 21.7349C144.468 21.7349 144.184 21.4502 144.184 21.0232C144.184 20.5962 144.468 20.3115 144.895 20.3115C145.322 20.3115 145.607 20.5962 145.607 21.0232C145.749 21.5926 145.465 21.7349 144.895 21.7349ZM145.465 28.8518H144.326V22.8736H145.465V28.8518Z" fill="black"/>
<path d="M148.311 20.1697H149.592L148.454 22.1624H147.6L148.311 20.1697ZM148.738 28.8523H147.6V22.8741H148.738V28.8523Z" fill="black"/>
<path d="M10.9558 0.526855L0.422852 4.08529V0.526855H10.9558ZM0.422852 4.65464C0.422852 5.22399 1.27688 5.651 2.27324 5.651C2.70025 5.651 2.98493 5.50867 3.2696 5.50867C3.69661 5.36633 13.3756 1.95023 13.3756 1.95023V16.0416C13.3756 16.0416 3.55428 19.4577 3.2696 19.6001C2.98493 19.7424 2.55791 19.7424 2.27324 19.7424C1.27688 19.7424 0.422852 19.1731 0.422852 18.319V4.65464Z" fill="#8F3E0F"/>
<path d="M26.6132 9.92106C26.6132 12.1985 25.7592 13.4795 23.4818 13.4795C21.2044 13.4795 20.208 12.1985 20.208 9.92106V3.2312H21.489V9.92106C21.489 11.4868 21.9161 12.3408 23.3394 12.3408C24.7628 12.3408 25.1898 11.4868 25.1898 9.92106V3.2312H26.4709V9.92106H26.6132Z" fill="black"/>
<path d="M32.4488 9.0672C32.4488 8.35551 32.0218 7.78616 31.3101 7.78616C30.4561 7.78616 30.0291 8.35551 30.0291 9.0672V13.4797H28.748V6.64746H30.0291V7.21681C30.3138 6.93214 30.7408 6.64746 31.5948 6.64746C32.8758 6.64746 33.8722 7.50149 33.8722 9.0672V13.4797H32.5912V9.0672H32.4488Z" fill="black"/>
<path d="M36.2915 5.36625C35.7222 5.36625 35.4375 5.08158 35.4375 4.51223C35.4375 3.94288 35.7222 3.6582 36.2915 3.6582C36.8609 3.6582 37.1455 3.94288 37.1455 4.51223C37.1455 5.22392 36.8609 5.36625 36.2915 5.36625ZM37.0032 13.4795H35.7222V6.64729H37.0032V13.4795Z" fill="black"/>
<path d="M38 6.64746H39.4234L40.9891 11.7716L42.6971 6.64746H44.1205L41.7008 13.4797H40.4197L38 6.64746Z" fill="black"/>
<path d="M45.8286 10.6327C45.971 11.9137 46.6827 12.3407 47.5367 12.3407C48.5331 12.3407 49.1024 12.056 49.5294 11.7714L49.8141 13.0524C49.2447 13.3371 48.5331 13.4794 47.5367 13.4794C45.8286 13.4794 44.4053 12.4831 44.4053 10.0633C44.4053 7.78592 45.6863 6.50488 47.252 6.50488C49.1024 6.50488 50.0988 7.78592 50.0988 9.77865V10.4903H45.8286V10.6327ZM48.8177 9.63631C48.8177 8.49761 48.2484 7.78592 47.3944 7.78592C46.6827 7.78592 45.971 8.21293 45.8286 9.63631H48.8177Z" fill="black"/>
<path d="M54.6534 8.07066C54.5111 7.92832 54.2264 7.92832 53.7994 7.92832C53.3724 7.92832 53.0877 8.35533 53.0877 9.06702V13.4795H51.8066V6.64728H53.0877V7.35897C53.23 6.93196 53.657 6.50494 54.3687 6.50494C54.6534 6.50494 54.9381 6.64728 54.9381 6.64728L54.6534 8.07066Z" fill="black"/>
<path d="M60.4896 13.4797H55.5078L58.6392 7.78616H55.6501V6.64746H60.632L57.5005 12.341H60.4896V13.4797Z" fill="black"/>
<path d="M62.6236 5.36625C62.0542 5.36625 61.7695 5.08158 61.7695 4.51223C61.7695 3.94288 62.0542 3.6582 62.6236 3.6582C63.1929 3.6582 63.4776 3.94288 63.4776 4.51223C63.4776 5.22392 63.0506 5.36625 62.6236 5.36625ZM63.1929 13.4795H61.9119V6.64729H63.1929V13.4795Z" fill="black"/>
<path d="M68.4605 13.3372C68.1759 13.4795 67.8912 13.6219 67.3218 13.6219C66.4678 13.6219 65.6138 13.3372 65.6138 11.9138V7.78604H64.7598V6.64734H65.6138V4.08527L66.8948 3.94293V6.78968H68.0335V7.78604H66.8948V11.7715C66.8948 12.1985 67.1795 12.3408 67.4642 12.3408C67.7488 12.3408 68.0335 12.1985 68.3182 12.0562L68.4605 13.3372Z" fill="black"/>
<path d="M73.1576 12.9103C73.0152 13.0526 72.5882 13.4797 71.5919 13.4797C70.1685 13.4797 69.3145 12.768 69.3145 11.3446C69.3145 9.92122 70.3108 9.20954 71.5919 9.20954C72.3035 9.20954 72.8729 9.49421 73.1576 9.77889V8.92486C73.1576 8.07084 72.5882 7.78616 71.8765 7.78616C71.0225 7.78616 70.3108 8.07084 70.0261 8.21317L69.8838 7.07447C70.3108 6.93214 71.0225 6.64746 72.0189 6.64746C73.5846 6.64746 74.4386 7.50149 74.4386 8.92486V13.4797H73.1576V12.9103ZM73.1576 11.2023C73.1576 10.6329 72.4459 10.3482 71.8765 10.3482C71.1648 10.3482 70.5955 10.6329 70.5955 11.4869C70.5955 12.1986 71.1648 12.4833 71.8765 12.4833C72.5882 12.4833 73.1576 12.0563 73.1576 11.4869V11.2023Z" fill="black"/>
<path d="M81.6981 13.4795V4.51224H79.2783V3.2312H85.5412V4.51224H82.9791V13.4795H81.6981Z" fill="black"/>
<path d="M88.1041 13.4797C86.396 13.4797 84.9727 12.4833 84.9727 10.0636C84.9727 7.50149 86.396 6.64746 88.1041 6.64746C89.6698 6.64746 91.2355 7.64382 91.2355 10.0636C91.2355 12.6256 89.8121 13.4797 88.1041 13.4797ZM88.1041 7.78616C87.1077 7.78616 86.396 8.64019 86.396 10.0636C86.396 11.4869 87.1077 12.341 88.1041 12.341C89.1004 12.341 89.8121 11.6293 89.8121 10.0636C89.8121 8.49785 89.1004 7.78616 88.1041 7.78616Z" fill="black"/>
<path d="M100.344 9.0672C100.344 8.35551 99.9169 7.78616 99.2052 7.78616C98.3512 7.78616 97.9242 8.35551 97.9242 9.0672V13.4797H96.6432V9.0672C96.6432 8.35551 96.2161 7.78616 95.5045 7.78616C94.6504 7.78616 94.2234 8.35551 94.2234 9.0672V13.4797H92.9424V6.64746H94.2234V7.21681C94.5081 6.93214 94.9351 6.64746 95.7891 6.64746C96.6432 6.64746 97.3548 7.07447 97.6395 7.64382C98.0665 7.07447 98.6359 6.64746 99.4899 6.64746C100.771 6.64746 101.767 7.50149 101.767 9.0672V13.4797H100.486V9.0672H100.344Z" fill="black"/>
<path d="M107.175 12.9104C107.033 13.1951 106.463 13.6221 105.609 13.6221C104.186 13.6221 103.332 12.9104 103.332 11.487C103.332 10.0636 104.328 9.35195 105.609 9.35195C106.321 9.35195 106.89 9.63663 107.175 9.9213V8.92494C107.175 8.07091 106.606 7.78624 105.894 7.78624C105.04 7.78624 104.328 8.07091 104.044 8.21325L103.901 7.07455C104.328 6.93221 105.04 6.64754 106.036 6.64754C107.602 6.64754 108.456 7.50156 108.456 8.92494V13.4797H107.175V12.9104ZM107.175 11.2023C107.175 10.633 106.606 10.3483 105.894 10.3483C105.182 10.3483 104.613 10.633 104.613 11.487C104.613 12.1987 105.182 12.4834 105.894 12.4834C106.606 12.341 107.175 11.914 107.175 11.3447V11.2023ZM106.321 3.51611H107.744L106.463 5.79351H105.467L106.321 3.51611Z" fill="black"/>
<path d="M112.158 13.4797C111.162 13.4797 110.308 13.1951 109.881 13.0527L110.308 11.914C110.877 12.1987 111.589 12.341 112.301 12.341C112.87 12.341 113.439 12.1987 113.439 11.6294C113.439 11.06 112.728 10.9177 112.016 10.633C111.02 10.3483 110.023 10.0636 110.023 8.64026C110.023 7.21689 111.02 6.64754 112.585 6.64754C113.582 6.64754 114.151 6.78988 114.578 7.07455L114.436 8.21325C113.866 7.92858 113.439 7.78624 112.585 7.78624C111.874 7.78624 111.304 8.07091 111.304 8.64026C111.304 9.06728 111.874 9.20961 112.585 9.49429C113.582 9.77896 114.863 10.0636 114.863 11.487C114.72 12.7681 114.009 13.4797 112.158 13.4797ZM110.45 3.51611H111.589L112.443 4.79715L113.297 3.51611H114.436L113.155 5.79351H111.731L110.45 3.51611Z" fill="black"/>
<path d="M117.281 10.6327C117.423 11.9138 118.135 12.3408 118.989 12.3408C119.985 12.3408 120.555 12.0561 120.982 11.7714L121.266 13.0525C120.697 13.3371 119.985 13.4795 118.989 13.4795C117.281 13.4795 115.857 12.4831 115.857 10.0634C115.857 7.78598 117.138 6.50494 118.704 6.50494C120.555 6.50494 121.551 7.78598 121.551 9.77871V10.4904H117.281V10.6327ZM120.27 9.63637C120.27 8.49767 119.701 7.78598 118.847 7.78598C118.135 7.78598 117.423 8.21299 117.281 9.63637H120.27Z" fill="black"/>
<path d="M129.379 13.4795H126.532V3.2312H129.521C131.372 3.2312 132.51 4.22756 132.51 5.93561C132.51 7.07431 131.941 7.786 131.087 8.21301C132.083 8.64003 132.653 9.49405 132.653 10.6328C132.653 12.3408 131.372 13.4795 129.379 13.4795ZM129.521 4.51224H127.813V7.50133H129.379C130.375 7.50133 131.087 6.93198 131.087 5.93561C131.087 4.93925 130.518 4.51224 129.521 4.51224ZM129.379 8.78236H127.813V12.1985H129.379C130.518 12.1985 131.229 11.6291 131.229 10.6328C131.229 9.49405 130.375 8.78236 129.379 8.78236Z" fill="black"/>
<path d="M137.778 12.9103C137.635 13.195 137.066 13.622 136.212 13.622C134.789 13.622 133.935 12.9103 133.935 11.4869C133.935 10.0636 134.931 9.35187 136.212 9.35187C136.924 9.35187 137.493 9.63655 137.778 9.92122V8.92486C137.778 8.07084 137.208 7.78616 136.497 7.78616C135.643 7.78616 134.931 8.07084 134.646 8.21317L134.504 7.07447C134.931 6.93214 135.643 6.64746 136.639 6.64746C138.205 6.64746 139.059 7.50149 139.059 8.92486V13.4797H137.778V12.9103ZM137.778 11.2023C137.778 10.6329 137.208 10.3482 136.497 10.3482C135.785 10.3482 135.216 10.6329 135.216 11.4869C135.216 12.1986 135.785 12.4833 136.497 12.4833C137.208 12.4833 137.778 12.0563 137.778 11.4869V11.2023Z" fill="black"/>
<path d="M144.042 13.3371C143.757 13.4795 143.472 13.6218 142.903 13.6218C142.191 13.6218 141.195 13.3371 141.195 11.9138V7.78598H140.341V6.64728H141.337V4.08521L142.618 3.94287V6.78962H143.757V7.78598H142.618V11.7714C142.618 12.1984 142.903 12.3408 143.188 12.3408C143.472 12.3408 143.757 12.1984 144.042 12.0561V13.3371Z" fill="black"/>
<path d="M146.034 5.36625C145.464 5.36625 145.18 5.08158 145.18 4.51223C145.18 3.94288 145.464 3.6582 146.034 3.6582C146.603 3.6582 146.888 3.94288 146.888 4.51223C146.888 5.22392 146.461 5.36625 146.034 5.36625ZM146.603 13.4795H145.322V6.64729H146.603V13.4795Z" fill="black"/>
<path d="M150.874 6.64746H152.297L154.005 11.7716L155.714 6.64746H157.137L154.575 13.4797H153.436L150.874 6.64746Z" fill="black"/>
<path d="M158.703 10.6327C158.845 11.9138 159.557 12.3408 160.411 12.3408C161.407 12.3408 161.976 12.0561 162.403 11.7714L162.688 13.0525C162.119 13.3371 161.407 13.4795 160.411 13.4795C158.703 13.4795 157.279 12.4831 157.279 10.0634C157.279 7.78598 158.56 6.50494 160.126 6.50494C161.976 6.50494 162.973 7.78598 162.973 9.77871V10.4904H158.703V10.6327ZM161.692 9.63637C161.692 8.49767 161.122 7.78598 160.268 7.78598C159.557 7.78598 158.845 8.21299 158.703 9.63637H161.692Z" fill="black"/>
<path d="M173.221 13.4795H167.243L171.513 4.51224H167.528V3.2312H173.506L169.236 12.1985H173.221V13.4795Z" fill="black"/>
<path d="M176.067 3.2312H174.786V13.4795H176.067V3.2312Z" fill="black"/>
<path d="M178.915 3.51617H180.338L179.057 5.79357H178.061L178.915 3.51617ZM179.342 13.4798H178.061V6.6476H179.342V13.4798Z" fill="black"/>
<path d="M185.177 9.0672C185.177 8.35551 184.75 7.78616 184.039 7.78616C183.185 7.78616 182.758 8.35551 182.758 9.0672V13.4797H181.477V6.64746H182.758V7.21681C183.042 6.93214 183.469 6.64746 184.323 6.64746C185.604 6.64746 186.601 7.50149 186.601 9.0672V13.4797H185.32V9.0672H185.177Z" fill="black"/>
<path d="M189.305 10.633C189.448 11.914 190.159 12.341 191.013 12.341C192.01 12.341 192.579 12.0564 193.006 11.7717L193.291 13.0527C192.721 13.3374 192.01 13.4797 191.013 13.4797C189.305 13.4797 187.882 12.4834 187.882 10.0636C187.882 7.78624 189.163 6.5052 190.729 6.5052C192.579 6.5052 193.575 7.78624 193.575 9.77896V10.4907H189.305V10.633ZM188.878 3.51611H190.017L190.871 4.79715L191.725 3.51611H192.864L191.583 5.79351H190.159L188.878 3.51611ZM192.294 9.63663C192.294 8.49793 191.725 7.78624 190.871 7.78624C190.159 7.78624 189.448 8.21325 189.305 9.63663H192.294Z" fill="black"/>
</svg>
