<svg width="194" height="31" viewBox="0 0 194 31" fill="none" xmlns="http://www.w3.org/2000/svg">
<path d="M24.6217 23.2142V24.3529H21.4903V28.4807H20.3516V19.5134H25.191V20.6521H21.4903V23.2142H24.6217Z" fill="black"/>
<path d="M28.7501 27.911C28.6077 28.0534 28.1807 28.4804 27.3267 28.4804C26.0457 28.4804 25.334 27.7687 25.334 26.63C25.334 25.349 26.188 24.6373 27.3267 24.6373C27.8961 24.6373 28.4654 24.9219 28.7501 25.0643V24.3526C28.7501 23.6409 28.3231 23.3562 27.6114 23.3562C26.8997 23.3562 26.3303 23.6409 25.9033 23.7832L25.761 22.7869C26.188 22.6445 26.7574 22.3599 27.6114 22.3599C28.8924 22.3599 29.7464 23.0716 29.7464 24.3526V28.338H28.6077V27.911H28.7501ZM28.7501 26.4876C28.7501 26.0606 28.1807 25.776 27.6114 25.776C27.042 25.776 26.4727 26.0606 26.4727 26.7723C26.4727 27.3417 27.042 27.6263 27.6114 27.6263C28.3231 27.6263 28.7501 27.1993 28.7501 26.7723V26.4876Z" fill="black"/>
<path d="M32.7354 28.4807H31.5967V19.5134H32.7354V24.9223L34.7281 22.5025H36.1515L34.0164 25.0646L36.5785 28.4807H35.1551L32.8777 25.3493V28.4807H32.7354Z" fill="black"/>
<path d="M40.5638 27.9115C40.4215 28.1962 39.9945 28.4809 39.1404 28.4809C38.0017 28.4809 37.29 27.6268 37.29 26.3458V22.5027H38.4287V26.3458C38.4287 27.0575 38.7134 27.4845 39.4251 27.4845C40.2791 27.4845 40.7061 26.9151 40.7061 26.2035V22.5027H41.7025V28.4809H40.5638V27.9115Z" fill="black"/>
<path d="M44.5498 19.5134V28.4807H43.4111V19.5134H44.5498Z" fill="black"/>
<path d="M48.9625 28.3383C48.8201 28.4807 48.5355 28.4807 47.9661 28.4807C47.2544 28.4807 46.5427 28.196 46.5427 26.915V23.3565H45.8311V22.3602H46.5427V20.0828L47.6814 19.9404V22.3602H48.6778V23.3565H47.6814V26.915C47.6814 27.342 47.9661 27.4843 48.1085 27.4843C48.3931 27.4843 48.6778 27.342 48.8201 27.342L48.9625 28.3383Z" fill="black"/>
<path d="M53.089 27.911C52.9466 28.0534 52.5196 28.4804 51.6656 28.4804C50.3845 28.4804 49.6729 27.7687 49.6729 26.63C49.6729 25.349 50.5269 24.6373 51.6656 24.6373C52.2349 24.6373 52.8043 24.9219 53.089 25.0643V24.3526C53.089 23.6409 52.6619 23.3562 51.9503 23.3562C51.2386 23.3562 50.6692 23.6409 50.2422 23.7832V22.7869C50.6692 22.6445 51.2386 22.3599 52.0926 22.3599C53.3736 22.3599 54.2277 23.0716 54.2277 24.3526V28.338H53.089V27.911ZM53.089 26.4876C53.089 26.0606 52.5196 25.776 51.9503 25.776C51.3809 25.776 50.8116 26.0606 50.8116 26.7723C50.8116 27.3417 51.3809 27.6263 51.9503 27.6263C52.6619 27.6263 53.089 27.1993 53.089 26.7723V26.4876Z" fill="black"/>
<path d="M59.9219 19.5134V28.4807H58.7832V19.5134H59.9219Z" fill="black"/>
<path d="M64.0482 28.4809C62.6248 28.4809 61.3438 27.6268 61.3438 25.4918C61.3438 23.3567 62.6248 22.5027 64.0482 22.5027C65.4715 22.5027 66.7526 23.3567 66.7526 25.4918C66.7526 27.7692 65.4715 28.4809 64.0482 28.4809ZM64.0482 23.499C63.1941 23.499 62.4824 24.2107 62.4824 25.4918C62.4824 26.7728 63.1941 27.4845 64.0482 27.4845C64.9022 27.4845 65.6139 26.7728 65.6139 25.4918C65.4715 24.2107 64.9022 23.499 64.0482 23.499Z" fill="black"/>
<path d="M72.8749 28.4806C72.8749 30.3309 71.8785 30.9003 70.4551 30.9003C69.4588 30.9003 68.7471 30.6156 68.4624 30.4733L68.6048 29.4769C69.0318 29.6193 69.6011 29.9039 70.3128 29.9039C71.0245 29.9039 71.5938 29.3346 71.5938 28.4806V27.7689C71.4515 27.9112 70.8822 28.4806 70.0281 28.4806C68.8894 28.4806 67.6084 27.7689 67.6084 25.6338C67.6084 23.4987 68.7471 22.6447 70.0281 22.6447C71.0245 22.6447 71.3092 22.9294 71.4515 23.2141V22.7871H72.5902V28.4806H72.8749ZM71.7362 24.7798C71.7362 23.7834 71.1668 23.3564 70.4551 23.3564C69.7435 23.3564 69.0318 23.9258 69.0318 25.3491C69.0318 26.7725 69.6011 27.1995 70.4551 27.1995C71.1668 27.1995 71.8785 26.7725 71.8785 25.7761V24.7798H71.7362Z" fill="black"/>
<path d="M75.1521 21.3638C74.7251 21.3638 74.4404 21.0791 74.4404 20.6521C74.4404 20.2251 74.7251 19.9404 75.1521 19.9404C75.5791 19.9404 75.8638 20.2251 75.8638 20.6521C75.8638 21.2215 75.5791 21.3638 75.1521 21.3638ZM75.7215 22.5025V28.4807H74.5828V22.5025H75.7215Z" fill="black"/>
<path d="M78.9947 28.4809C77.9983 28.4809 77.429 28.1962 77.002 28.0538L77.1443 27.0575C77.5713 27.3422 78.283 27.4845 78.8523 27.4845C79.4217 27.4845 79.8487 27.3422 79.8487 26.7728C79.8487 26.2035 79.2794 26.0611 78.71 25.9188C77.856 25.7764 77.002 25.4918 77.002 24.2107C77.002 23.072 77.856 22.5027 79.2794 22.5027C80.1334 22.5027 80.7027 22.645 81.1297 22.7874L80.9874 23.7837C80.5604 23.6414 80.1334 23.3567 79.4217 23.3567C78.71 23.3567 78.283 23.6414 78.283 24.0684C78.283 24.4954 78.71 24.6377 79.2794 24.7801C80.1334 25.0648 81.2721 25.3494 81.2721 26.6305C81.2721 27.9115 80.5604 28.4809 78.9947 28.4809Z" fill="black"/>
<path d="M85.2584 28.3383C85.116 28.4807 84.8314 28.4807 84.262 28.4807C83.5503 28.4807 82.8386 28.196 82.8386 26.915V23.3565H82.127V22.3602H82.8386V20.0828L83.9773 19.9404V22.3602H84.9737V23.3565H83.9773V26.915C83.9773 27.342 84.262 27.4843 84.4044 27.4843C84.689 27.4843 84.9737 27.342 85.116 27.342L85.2584 28.3383Z" fill="black"/>
<path d="M86.9656 21.3638C86.5386 21.3638 86.2539 21.0791 86.2539 20.6521C86.2539 20.2251 86.5386 19.9404 86.9656 19.9404C87.3926 19.9404 87.6773 20.2251 87.6773 20.6521C87.6773 21.2215 87.3926 21.3638 86.9656 21.3638ZM87.5349 22.5025V28.4807H86.3962V22.5025H87.5349Z" fill="black"/>
<path d="M90.3819 28.4807H89.2432V19.5134H90.3819V24.9223L92.3746 22.5025H93.798L91.5206 25.0646L94.0826 28.4807H92.6593L90.3819 25.3493V28.4807Z" fill="black"/>
<path d="M96.3604 30.9006V27.4845L94.083 22.5027H95.364L96.9298 26.2035L98.4955 22.5027H99.7765L97.4991 27.4845V30.9006H96.3604Z" fill="black"/>
<path d="M106.465 27.911C106.323 28.0534 105.896 28.4804 105.042 28.4804C103.761 28.4804 103.049 27.7687 103.049 26.63C103.049 25.349 103.903 24.6373 105.042 24.6373C105.611 24.6373 106.18 24.9219 106.465 25.0643V24.3526C106.465 23.6409 106.038 23.3562 105.326 23.3562C104.615 23.3562 104.045 23.6409 103.618 23.7832L103.476 22.7869C103.903 22.6445 104.472 22.3599 105.326 22.3599C106.607 22.3599 107.461 23.0716 107.461 24.3526V28.338H106.323V27.911H106.465ZM106.465 26.4876C106.465 26.0606 105.896 25.776 105.326 25.776C104.757 25.776 104.188 26.0606 104.188 26.7723C104.188 27.3417 104.757 27.6263 105.326 27.6263C106.038 27.6263 106.465 27.1993 106.465 26.7723V26.4876Z" fill="black"/>
<path d="M113.299 28.4807H112.16V19.5134H113.299V24.9223L115.292 22.5025H116.715L114.58 25.0646L117.142 28.4807H115.719L113.441 25.3493V28.4807H113.299Z" fill="black"/>
<path d="M120.556 23.7837C120.414 23.7837 120.129 23.6414 119.844 23.6414C119.417 23.6414 118.99 24.0684 118.99 24.6377V28.4809H117.852V22.5027H118.99V23.2144C119.133 22.7874 119.417 22.5027 120.129 22.5027C120.414 22.5027 120.556 22.5027 120.698 22.645L120.556 23.7837Z" fill="black"/>
<path d="M122.264 21.3638C121.837 21.3638 121.553 21.0791 121.553 20.6521C121.553 20.2251 121.837 19.9404 122.264 19.9404C122.691 19.9404 122.976 20.2251 122.976 20.6521C123.118 21.2215 122.834 21.3638 122.264 21.3638ZM122.834 22.5025V28.4807H121.695V22.5025H122.834Z" fill="black"/>
<path d="M128.385 28.4809H123.973L126.819 23.499H124.115V22.5027H128.527L125.823 27.4845H128.385V28.4809Z" fill="black"/>
<path d="M131.945 28.4809C130.521 28.4809 129.24 27.6269 129.24 25.4918C129.24 23.3568 130.521 22.5027 131.945 22.5027C133.368 22.5027 134.649 23.3568 134.649 25.4918C134.649 27.7692 133.368 28.4809 131.945 28.4809ZM131.945 23.4991C131.091 23.4991 130.379 24.2108 130.379 25.4918C130.379 26.7729 131.091 27.4846 131.945 27.4846C132.799 27.4846 133.51 26.7729 133.51 25.4918C133.368 24.2108 132.799 23.4991 131.945 23.4991Z" fill="black"/>
<path d="M134.791 22.5027H136.072L137.495 26.9151L138.919 22.5027H140.2L138.065 28.4809H137.068L134.791 22.5027Z" fill="black"/>
<path d="M141.765 25.9186C141.907 27.0573 142.476 27.4843 143.33 27.4843C144.184 27.4843 144.754 27.342 145.181 27.0573L145.323 28.196C144.754 28.4807 144.184 28.623 143.33 28.623C141.907 28.623 140.626 27.769 140.626 25.6339C140.626 23.6412 141.765 22.5025 143.188 22.5025C144.754 22.5025 145.608 23.6412 145.608 25.3493V25.9186H141.765ZM144.327 25.0646C144.327 24.0682 143.757 23.4989 143.046 23.4989C142.476 23.4989 141.907 23.7835 141.765 25.0646H144.327ZM143.188 19.7981H144.469L143.33 21.7908H142.476L143.188 19.7981Z" fill="black"/>
<path d="M150.163 24.6376C150.163 23.9259 149.736 23.4989 149.167 23.4989C148.455 23.4989 148.028 23.9259 148.028 24.6376V28.4807H146.89V19.5134H148.028V23.0719C148.171 22.7872 148.74 22.5025 149.452 22.5025C150.59 22.5025 151.444 23.3565 151.444 24.6376V28.4807H150.306V24.6376H150.163Z" fill="black"/>
<path d="M155.43 28.4809C154.007 28.4809 152.726 27.6269 152.726 25.4918C152.726 23.3568 154.007 22.5027 155.43 22.5027C156.853 22.5027 158.134 23.3568 158.134 25.4918C158.134 27.7692 156.853 28.4809 155.43 28.4809ZM155.43 23.4991C154.576 23.4991 153.864 24.2108 153.864 25.4918C153.864 26.7729 154.576 27.4846 155.43 27.4846C156.284 27.4846 156.996 26.7729 156.996 25.4918C156.853 24.2108 156.284 23.4991 155.43 23.4991Z" fill="black"/>
<path d="M161.978 19.7981H162.974L163.686 20.9368L164.397 19.7981H165.394L164.255 21.7908H163.116L161.978 19.7981ZM164.967 23.7835C164.824 23.7835 164.54 23.6412 164.255 23.6412C163.828 23.6412 163.401 24.0682 163.401 24.6376V28.4807H162.262V22.5025H163.401V23.2142C163.543 22.7872 163.828 22.5025 164.54 22.5025C164.824 22.5025 164.967 22.5025 165.109 22.6448L164.967 23.7835Z" fill="black"/>
<path d="M166.96 19.7981H168.241L167.102 21.7908H166.248L166.96 19.7981ZM167.387 22.5025V28.4807H166.248V22.5025H167.387Z" fill="black"/>
<path d="M172.795 28.4809H168.383L171.23 23.4991H168.525V22.5027H172.938L170.233 27.4846H172.795V28.4809Z" fill="black"/>
<path d="M174.788 25.9188C174.93 27.0575 175.5 27.4845 176.354 27.4845C177.208 27.4845 177.777 27.3422 178.204 27.0575L178.347 28.1962C177.777 28.4809 177.208 28.6232 176.354 28.6232C174.93 28.6232 173.649 27.7692 173.649 25.6341C173.649 23.6414 174.788 22.5027 176.211 22.5027C177.777 22.5027 178.631 23.6414 178.631 25.3494V25.9188H174.788ZM177.493 25.0648C177.493 24.0684 176.923 23.499 176.211 23.499C175.642 23.499 175.073 23.7837 174.93 25.0648H177.493Z" fill="black"/>
<path d="M183.327 24.6373C183.327 23.9256 182.9 23.4986 182.331 23.4986C181.619 23.4986 181.192 23.9256 181.192 24.6373V28.4804H180.054V22.5022H181.192V22.9292C181.335 22.6445 181.904 22.3599 182.616 22.3599C183.754 22.3599 184.609 23.2139 184.609 24.4949V28.338H183.47V24.6373H183.327Z" fill="black"/>
<path d="M186.886 19.7981H188.168L187.029 21.7908H186.175L186.886 19.7981ZM187.314 22.5025V28.4807H186.175V22.5025H187.314Z" fill="black"/>
<path d="M10.9578 0.155273L0.424805 3.71371V0.155273H10.9578ZM0.424805 4.28306C0.424805 4.85241 1.27883 5.27942 2.27519 5.27942C2.7022 5.27942 2.98688 5.13709 3.27155 5.13709C3.69857 4.99475 13.3775 1.57865 13.3775 1.57865V15.6701C13.3775 15.6701 3.55623 19.0862 3.27155 19.2285C2.98688 19.3708 2.55987 19.3708 2.27519 19.3708C1.27883 19.3708 0.424805 18.8015 0.424805 17.9475V4.28306Z" fill="#C9D30E"/>
<path d="M26.6151 9.54948C26.6151 11.8269 25.7611 13.1079 23.4837 13.1079C21.2063 13.1079 20.21 11.8269 20.21 9.54948V2.85962H21.491V9.54948C21.491 11.1152 21.918 11.9692 23.3414 11.9692C24.7648 11.9692 25.1918 11.1152 25.1918 9.54948V2.85962H26.4728V9.54948H26.6151Z" fill="black"/>
<path d="M32.4508 8.69562C32.4508 7.98393 32.0238 7.41458 31.3121 7.41458C30.4581 7.41458 30.031 7.98393 30.031 8.69562V13.1081H28.75V6.27588H30.031V6.84523C30.3157 6.56055 30.7427 6.27588 31.5967 6.27588C32.8778 6.27588 33.8742 7.1299 33.8742 8.69562V13.1081H32.5931V8.69562H32.4508Z" fill="black"/>
<path d="M36.2935 4.99467C35.7241 4.99467 35.4395 4.71 35.4395 4.14065C35.4395 3.5713 35.7241 3.28662 36.2935 3.28662C36.8628 3.28662 37.1475 3.5713 37.1475 4.14065C37.1475 4.85233 36.8628 4.99467 36.2935 4.99467ZM37.0052 6.27571V13.1079H35.7241V6.27571H37.0052Z" fill="black"/>
<path d="M38.002 6.27588H39.4253L41.1334 11.4L42.8414 6.27588H44.2648L41.7027 13.1081H40.4217L38.002 6.27588Z" fill="black"/>
<path d="M45.8306 10.2611C45.9729 11.5421 46.6846 11.9691 47.5386 11.9691C48.535 11.9691 49.1044 11.6845 49.5314 11.3998L49.8161 12.6808C49.2467 12.9655 48.535 13.1078 47.5386 13.1078C45.8306 13.1078 44.4072 12.1115 44.4072 9.69174C44.4072 7.41434 45.6883 6.1333 47.254 6.1333C49.1044 6.1333 50.1007 7.41434 50.1007 9.40706V10.1188H45.8306V10.2611ZM48.8197 9.26473C48.8197 8.12603 48.2503 7.41434 47.3963 7.41434C46.6846 7.41434 45.9729 7.84135 45.8306 9.26473H48.8197Z" fill="black"/>
<path d="M54.6553 7.69907C54.513 7.69907 54.2283 7.55674 53.8013 7.55674C53.3743 7.55674 53.0896 7.98375 53.0896 8.69544V13.1079H51.8086V6.2757H53.0896V6.98739C53.232 6.56037 53.659 6.13336 54.3707 6.13336C54.6553 6.13336 54.7977 6.13336 54.94 6.2757L54.6553 7.69907Z" fill="black"/>
<path d="M60.4916 13.1081H55.5098L58.7835 7.41458H55.6521V6.27588H60.6339L57.5025 11.9694H60.4916V13.1081Z" fill="black"/>
<path d="M62.6255 4.99467C62.0562 4.99467 61.7715 4.71 61.7715 4.14065C61.7715 3.5713 62.0562 3.28662 62.6255 3.28662C63.1949 3.28662 63.4795 3.5713 63.4795 4.14065C63.4795 4.85233 63.0525 4.99467 62.6255 4.99467ZM63.1949 6.27571V13.1079H61.9138V6.27571H63.1949Z" fill="black"/>
<path d="M68.4625 12.9656C68.1778 13.108 67.8931 13.2503 67.3238 13.2503C66.6121 13.2503 65.6157 12.9656 65.6157 11.5423V7.41446H64.7617V6.27576H65.6157V3.71369L66.8968 3.57135V6.27576H68.0355V7.27213H66.8968V11.2576C66.8968 11.6846 67.1815 11.8269 67.4661 11.8269C67.7508 11.8269 68.0355 11.6846 68.3202 11.6846L68.4625 12.9656Z" fill="black"/>
<path d="M73.1595 12.5387C73.0172 12.6811 72.5902 13.1081 71.5938 13.1081C70.1704 13.1081 69.3164 12.3964 69.3164 10.973C69.3164 9.54964 70.3128 8.83795 71.5938 8.83795C72.3055 8.83795 72.8748 9.12263 73.1595 9.4073V8.55328C73.1595 7.69925 72.5902 7.41458 71.8785 7.41458C71.0245 7.41458 70.3128 7.69925 70.0281 7.84159L69.8858 6.70289C70.3128 6.56055 71.0245 6.27588 72.0208 6.27588C73.5865 6.27588 74.4406 7.1299 74.4406 8.55328V13.1081H73.1595V12.5387ZM73.1595 10.8307C73.1595 10.2613 72.5902 9.97665 71.8785 9.97665C71.1668 9.97665 70.5974 10.2613 70.5974 11.1154C70.5974 11.827 71.1668 12.1117 71.8785 12.1117C72.5902 12.1117 73.1595 11.6847 73.1595 11.1154V10.8307Z" fill="black"/>
<path d="M81.7 13.1079V4.14066H79.2803V2.85962H85.5431V4.14066H82.981V13.1079H81.7Z" fill="black"/>
<path d="M88.106 13.1081C86.398 13.1081 84.9746 12.1117 84.9746 9.69198C84.9746 7.1299 86.398 6.27588 88.106 6.27588C89.6717 6.27588 91.2375 7.27224 91.2375 9.69198C91.2375 12.2541 89.8141 13.1081 88.106 13.1081ZM88.106 7.41458C87.1097 7.41458 86.398 8.2686 86.398 9.69198C86.398 11.1154 87.1097 11.9694 88.106 11.9694C89.1024 11.9694 89.8141 11.2577 89.8141 9.69198C89.8141 8.12627 89.1024 7.41458 88.106 7.41458Z" fill="black"/>
<path d="M100.346 8.69562C100.346 7.98393 99.9189 7.41458 99.2072 7.41458C98.3532 7.41458 97.9261 7.98393 97.9261 8.69562V13.1081H96.6451V8.69562C96.6451 7.98393 96.2181 7.41458 95.5064 7.41458C94.6524 7.41458 94.2254 7.98393 94.2254 8.69562V13.1081H92.9443V6.27588H94.2254V6.84523C94.5101 6.56055 94.9371 6.27588 95.7911 6.27588C96.6451 6.27588 97.3568 6.56055 97.6415 7.27224C98.0685 6.70289 98.6378 6.27588 99.4919 6.27588C100.773 6.27588 101.769 7.1299 101.769 8.69562V13.1081H100.488V8.69562H100.346Z" fill="black"/>
<path d="M107.177 12.5388C107.035 12.8235 106.465 13.2505 105.611 13.2505C104.188 13.2505 103.334 12.5388 103.334 11.1154C103.334 9.69206 104.33 8.98037 105.611 8.98037C106.323 8.98037 106.892 9.26504 107.177 9.54972V8.55336C107.177 7.69933 106.608 7.41466 105.896 7.41466C105.042 7.41466 104.33 7.69933 104.046 7.84167L103.903 6.70297C104.33 6.56063 105.042 6.27596 106.038 6.27596C107.604 6.27596 108.458 7.12998 108.458 8.55336V13.1082H107.177V12.5388ZM107.177 10.8308C107.177 10.2614 106.608 9.97673 105.896 9.97673C105.184 9.97673 104.615 10.2614 104.615 11.1154C104.615 11.8271 105.184 12.1118 105.896 12.1118C106.608 11.9695 107.177 11.5424 107.177 10.9731V10.8308ZM106.323 3.14453H107.746L106.465 5.42193H105.469L106.323 3.14453Z" fill="black"/>
<path d="M112.16 13.1082C111.164 13.1082 110.31 12.8235 109.883 12.6811L110.31 11.5424C110.879 11.8271 111.591 11.9695 112.303 11.9695C112.872 11.9695 113.441 11.8271 113.441 11.2578C113.441 10.6884 112.73 10.5461 112.018 10.2614C111.022 9.97673 110.025 9.69206 110.025 8.26868C110.025 6.84531 111.022 6.27596 112.587 6.27596C113.584 6.27596 114.153 6.41829 114.58 6.70297L114.295 7.84167C113.726 7.55699 113.299 7.41466 112.445 7.41466C111.733 7.41466 111.164 7.69933 111.164 8.26868C111.164 8.69569 111.733 8.83803 112.303 9.12271C113.299 9.40738 114.58 9.69206 114.58 11.1154C114.722 12.3965 114.011 13.1082 112.16 13.1082ZM110.452 3.14453H111.591L112.445 4.42557L113.299 3.14453H114.438L113.157 5.42193H111.733L110.452 3.14453Z" fill="black"/>
<path d="M117.283 10.2611C117.425 11.5422 118.137 11.9692 118.991 11.9692C119.987 11.9692 120.557 11.6845 120.984 11.3998L121.268 12.6809C120.699 12.9656 119.987 13.1079 118.991 13.1079C117.283 13.1079 115.859 12.1115 115.859 9.6918C115.859 7.4144 117.14 6.13336 118.706 6.13336C120.557 6.13336 121.553 7.4144 121.553 9.40712V10.1188H117.283V10.2611ZM120.272 9.26479C120.272 8.12609 119.702 7.4144 118.848 7.4144C118.137 7.4144 117.425 7.84141 117.283 9.26479H120.272Z" fill="black"/>
<path d="M129.381 13.1079H126.534V2.85962H129.523C131.374 2.85962 132.512 3.85598 132.512 5.56403C132.512 6.70273 131.943 7.41442 131.089 7.84143C131.943 8.26844 132.655 9.12247 132.655 10.2612C132.655 11.9692 131.374 13.1079 129.381 13.1079ZM129.523 4.14066H127.815V7.12974H129.381C130.377 7.12974 131.089 6.56039 131.089 5.56403C131.089 4.56767 130.52 4.14066 129.523 4.14066ZM129.381 8.41078H127.815V11.8269H129.381C130.377 11.8269 131.231 11.2575 131.231 10.2612C131.231 9.12247 130.377 8.41078 129.381 8.41078Z" fill="black"/>
<path d="M137.78 12.5387C137.637 12.8234 137.068 13.2504 136.214 13.2504C134.791 13.2504 133.937 12.5387 133.937 11.1154C133.937 9.69198 134.933 8.98029 136.214 8.98029C136.926 8.98029 137.495 9.26497 137.78 9.54964V8.55328C137.78 7.69925 137.21 7.41458 136.499 7.41458C135.645 7.41458 134.933 7.69925 134.648 7.84159L134.506 6.70289C134.933 6.56055 135.645 6.27588 136.641 6.27588C138.207 6.27588 139.061 7.1299 139.061 8.55328V13.1081H137.78V12.5387ZM137.78 10.8307C137.78 10.2613 137.21 9.97665 136.499 9.97665C135.787 9.97665 135.218 10.2613 135.218 11.1154C135.218 11.827 135.787 12.1117 136.499 12.1117C137.21 12.1117 137.78 11.6847 137.78 11.1154V10.8307Z" fill="black"/>
<path d="M144.044 12.9656C143.759 13.1079 143.474 13.2502 142.905 13.2502C142.193 13.2502 141.197 12.9656 141.197 11.5422V7.4144H140.343V6.2757H141.339V3.71363L142.62 3.57129V6.2757H143.759V7.27206H142.62V11.2575C142.62 11.6845 142.905 11.8269 143.19 11.8269C143.474 11.8269 143.759 11.6845 144.044 11.6845V12.9656Z" fill="black"/>
<path d="M146.036 4.99467C145.466 4.99467 145.182 4.71 145.182 4.14065C145.182 3.5713 145.466 3.28662 146.036 3.28662C146.605 3.28662 146.89 3.5713 146.89 4.14065C146.89 4.85233 146.463 4.99467 146.036 4.99467ZM146.605 6.27571V13.1079H145.324V6.27571H146.605Z" fill="black"/>
<path d="M150.876 6.27588H152.299L154.007 11.4L155.715 6.27588H157.139L154.719 13.1081H153.438L150.876 6.27588Z" fill="black"/>
<path d="M158.705 10.2611C158.847 11.5422 159.559 11.9692 160.413 11.9692C161.409 11.9692 161.978 11.6845 162.405 11.3998L162.69 12.6809C162.121 12.9656 161.409 13.1079 160.413 13.1079C158.705 13.1079 157.281 12.1115 157.281 9.6918C157.281 7.4144 158.562 6.13336 160.128 6.13336C161.978 6.13336 162.975 7.4144 162.975 9.40712V10.1188H158.705V10.2611ZM161.694 9.26479C161.694 8.12609 161.124 7.4144 160.27 7.4144C159.559 7.4144 158.847 7.84141 158.705 9.26479H161.694Z" fill="black"/>
<path d="M173.223 13.1079H167.245L171.515 4.14066H167.53V2.85962H173.508L169.238 11.8269H173.223V13.1079Z" fill="black"/>
<path d="M176.069 2.85962V13.1079H174.788V2.85962H176.069Z" fill="black"/>
<path d="M178.917 3.14459H180.34L179.059 5.42199H178.062L178.917 3.14459ZM179.344 6.27602V13.1082H178.062V6.27602H179.344Z" fill="black"/>
<path d="M185.179 8.69562C185.179 7.98393 184.752 7.41458 184.041 7.41458C183.187 7.41458 182.76 7.98393 182.76 8.69562V13.1081H181.479V6.27588H182.76V6.84523C183.044 6.56055 183.471 6.27588 184.325 6.27588C185.606 6.27588 186.603 7.1299 186.603 8.69562V13.1081H185.322V8.69562H185.179Z" fill="black"/>
<path d="M189.307 10.2614C189.45 11.5424 190.161 11.9695 191.015 11.9695C192.012 11.9695 192.581 11.6848 193.008 11.4001L193.293 12.6811C192.723 12.9658 192.012 13.1082 191.015 13.1082C189.307 13.1082 187.884 12.1118 187.884 9.69206C187.884 7.41466 189.165 6.13362 190.731 6.13362C192.581 6.13362 193.577 7.41466 193.577 9.40738V10.1191H189.307V10.2614ZM188.88 3.14453H190.019L190.873 4.42557L191.727 3.14453H192.866L191.585 5.42193H190.161L188.88 3.14453ZM192.296 9.26504C192.296 8.12634 191.727 7.41466 190.873 7.41466C190.161 7.41466 189.45 7.84167 189.307 9.26504H192.296Z" fill="black"/>
</svg>
