<svg width="196" height="30" viewBox="0 0 196 30" fill="none" xmlns="http://www.w3.org/2000/svg">
<path d="M24.1969 23.6892V24.8279H21.0655V28.9557H19.9268V19.9885H24.7662V21.1272H21.0655V23.6892H24.1969Z" fill="black"/>
<path d="M28.3253 28.3866C28.1829 28.5289 27.7559 28.956 26.9019 28.956C25.6209 28.956 24.9092 28.2443 24.9092 27.1056C24.9092 25.8245 25.7632 25.1128 26.9019 25.1128C27.4713 25.1128 28.0406 25.3975 28.3253 25.5399V24.8282C28.3253 24.1165 27.8983 23.8318 27.1866 23.8318C26.4749 23.8318 25.9055 24.1165 25.4785 24.2588L25.3362 23.2625C25.7632 23.1201 26.3326 22.8354 27.1866 22.8354C28.4676 22.8354 29.3216 23.5471 29.3216 24.8282V28.8136H28.1829V28.3866H28.3253ZM28.3253 26.9632C28.3253 26.5362 27.7559 26.2515 27.1866 26.2515C26.6172 26.2515 26.0479 26.5362 26.0479 27.2479C26.0479 27.8173 26.6172 28.1019 27.1866 28.1019C27.8983 28.1019 28.3253 27.6749 28.3253 27.2479V26.9632Z" fill="black"/>
<path d="M32.3106 28.9557H31.1719V19.9885H32.3106V25.3973L34.3033 22.9776H35.7267L33.5916 25.5396L36.1537 28.9557H34.7303L32.4529 25.8243V28.9557H32.3106Z" fill="black"/>
<path d="M40.139 28.3864C39.9967 28.671 39.5696 28.9557 38.7156 28.9557C37.5769 28.9557 36.8652 28.1017 36.8652 26.8207V22.9775H38.0039V26.8207C38.0039 27.5323 38.2886 27.9594 39.0003 27.9594C39.8543 27.9594 40.2813 27.39 40.2813 26.6783V22.9775H41.2777V28.9557H40.139V28.3864Z" fill="black"/>
<path d="M44.125 19.9885V28.9558H42.9863V19.9885H44.125Z" fill="black"/>
<path d="M48.5377 28.8132C48.3953 28.9555 48.1107 28.9555 47.5413 28.9555C46.8296 28.9555 46.1179 28.6709 46.1179 27.3898V23.8314H45.4062V22.835H46.1179V20.5576L47.2566 20.4153V22.835H48.253V23.8314H47.2566V27.3898C47.2566 27.8168 47.5413 27.9592 47.6837 27.9592C47.9683 27.9592 48.253 27.8168 48.3953 27.8168L48.5377 28.8132Z" fill="black"/>
<path d="M52.6641 28.3866C52.5218 28.5289 52.0948 28.956 51.2408 28.956C49.9597 28.956 49.248 28.2443 49.248 27.1056C49.248 25.8245 50.1021 25.1128 51.2408 25.1128C51.8101 25.1128 52.3795 25.3975 52.6641 25.5399V24.8282C52.6641 24.1165 52.2371 23.8318 51.5254 23.8318C50.8138 23.8318 50.2444 24.1165 49.8174 24.2588V23.2625C50.2444 23.1201 50.8138 22.8354 51.6678 22.8354C52.9488 22.8354 53.8028 23.5471 53.8028 24.8282V28.8136H52.6641V28.3866ZM52.6641 26.9632C52.6641 26.5362 52.0948 26.2515 51.5254 26.2515C50.9561 26.2515 50.3868 26.5362 50.3868 27.2479C50.3868 27.8173 50.9561 28.1019 51.5254 28.1019C52.2371 28.1019 52.6641 27.6749 52.6641 27.2479V26.9632Z" fill="black"/>
<path d="M65.0483 25.1129C65.0483 24.4012 64.6212 23.9742 64.0519 23.9742C63.3402 23.9742 62.9132 24.4012 62.9132 25.1129V28.956H61.7745V25.1129C61.7745 24.4012 61.3475 23.9742 60.7781 23.9742C60.0664 23.9742 59.6394 24.4012 59.6394 25.1129V28.956H58.3584V22.9778H59.4971V23.4049C59.6394 23.1202 60.2088 22.8355 60.9205 22.8355C61.6322 22.8355 62.2015 23.1202 62.6285 23.6895C62.9132 23.2625 63.4825 22.8355 64.3366 22.8355C65.4753 22.8355 66.3293 23.6895 66.3293 24.9706V28.8137H65.1906V25.1129H65.0483Z" fill="black"/>
<path d="M71.1683 28.3863C71.026 28.671 70.5989 28.9557 69.7449 28.9557C68.6062 28.9557 67.8945 28.1016 67.8945 26.8206V22.9775H69.0332V26.8206C69.0332 27.5323 69.3179 27.9593 70.0296 27.9593C70.8836 27.9593 71.3106 27.3899 71.3106 26.6783V22.9775H72.4493V28.9557H71.1683V28.3863Z" fill="black"/>
<path d="M75.1533 19.9885V28.9558H74.0146V19.9885H75.1533Z" fill="black"/>
<path d="M79.566 28.8136C79.4237 28.9559 79.139 28.9559 78.5696 28.9559C77.8579 28.9559 77.1463 28.6712 77.1463 27.3902V23.8317H76.4346V22.8354H77.1463V20.558H78.285V22.9777H79.2813V23.9741H78.285V27.5325C78.285 27.9595 78.5696 28.1019 78.712 28.1019C78.9966 28.1019 79.2813 27.9595 79.4237 27.9595L79.566 28.8136Z" fill="black"/>
<path d="M81.2732 21.8387C80.8462 21.8387 80.5615 21.554 80.5615 21.127C80.5615 20.7 80.8462 20.4153 81.2732 20.4153C81.7002 20.4153 81.9849 20.7 81.9849 21.127C81.9849 21.6963 81.7002 21.8387 81.2732 21.8387ZM81.8426 22.9774V28.9555H80.7039V22.9774H81.8426Z" fill="black"/>
<path d="M90.2426 25.1129C90.2426 24.4012 89.8156 23.9742 89.2462 23.9742C88.5345 23.9742 88.1075 24.4012 88.1075 25.1129V28.956H86.8265V25.1129C86.8265 24.4012 86.3995 23.9742 85.8301 23.9742C85.1184 23.9742 84.6914 24.4012 84.6914 25.1129V28.956H83.5527V22.9778H84.6914V23.4049C84.8338 23.1202 85.4031 22.8355 86.1148 22.8355C86.8265 22.8355 87.3958 23.1202 87.8229 23.6895C88.1075 23.2625 88.6769 22.8355 89.5309 22.8355C90.6696 22.8355 91.5236 23.6895 91.5236 24.9706V28.8137H90.3849V25.1129H90.2426Z" fill="black"/>
<path d="M93.9424 26.3936C94.0848 27.5323 94.6541 27.9594 95.5081 27.9594C96.3622 27.9594 96.9315 27.817 97.3585 27.5323L97.5009 28.671C96.9315 28.9557 96.3622 29.0981 95.5081 29.0981C94.0848 29.0981 92.8037 28.244 92.8037 26.109C92.8037 24.1162 93.9424 22.9775 95.3658 22.9775C96.9315 22.9775 97.7855 24.1162 97.7855 25.8243V26.3936H93.9424ZM96.5045 25.5396C96.5045 24.5433 95.9351 23.9739 95.2235 23.9739C94.6541 23.9739 94.0848 24.2586 93.9424 25.5396H96.5045Z" fill="black"/>
<path d="M102.768 28.3864C102.625 28.5288 102.056 28.9558 101.202 28.9558C100.063 28.9558 98.7822 28.2441 98.7822 25.9667C98.7822 23.8316 99.9209 22.8353 101.202 22.8353C102.198 22.8353 102.483 23.12 102.625 23.4046V19.8462H103.906V28.8135H102.768V28.3864ZM102.768 25.255C102.768 24.2587 102.198 23.8316 101.487 23.8316C100.775 23.8316 100.063 24.401 100.063 25.9667C100.063 27.3901 100.633 27.8171 101.487 27.8171C102.198 27.8171 102.91 27.3901 102.91 26.3937V25.255H102.768Z" fill="black"/>
<path d="M106.182 21.8387C105.755 21.8387 105.471 21.554 105.471 21.127C105.471 20.7 105.755 20.4153 106.182 20.4153C106.609 20.4153 106.894 20.7 106.894 21.127C106.894 21.6963 106.609 21.8387 106.182 21.8387ZM106.752 22.9774V28.9555H105.613V22.9774H106.752Z" fill="black"/>
<path d="M111.45 28.3864C111.308 28.5288 110.881 28.9558 110.027 28.9558C108.746 28.9558 108.034 28.2441 108.034 27.1054C108.034 25.8244 108.888 25.1127 110.027 25.1127C110.596 25.1127 111.166 25.3973 111.45 25.5397V24.828C111.45 24.1163 111.023 23.8316 110.312 23.8316C109.6 23.8316 109.031 24.1163 108.604 24.2586L108.461 23.2623C108.888 23.1199 109.458 22.8353 110.312 22.8353C111.593 22.8353 112.447 23.547 112.447 24.828V28.8134H111.308V28.3864H111.45ZM111.45 26.9631C111.45 26.536 110.881 26.2514 110.312 26.2514C109.742 26.2514 109.173 26.536 109.173 27.2477C109.173 27.8171 109.742 28.1018 110.312 28.1018C111.023 28.1018 111.45 27.6747 111.45 27.2477V26.9631ZM110.739 20.2732H112.02L110.881 22.2659H110.027L110.739 20.2732Z" fill="black"/>
<path d="M115.435 19.9885V28.9558H114.296V19.9885H115.435Z" fill="black"/>
<path d="M120.56 25.1128C120.56 24.4012 120.133 23.9741 119.564 23.9741C118.852 23.9741 118.425 24.4012 118.425 25.1128V28.956H117.286V22.9778H118.425V23.4048C118.567 23.1201 119.137 22.8354 119.848 22.8354C120.987 22.8354 121.841 23.6895 121.841 24.9705V28.8136H120.702V25.1128H120.56Z" fill="black"/>
<path d="M124.118 20.2732H125.399L124.26 22.2659H123.406L124.118 20.2732ZM124.545 22.9776V28.9558H123.406V22.9776H124.545Z" fill="black"/>
<path d="M130.097 28.671C129.954 28.8134 129.243 29.098 128.531 29.098C127.392 29.098 125.969 28.5287 125.969 26.109C125.969 23.6892 127.392 23.1199 128.531 23.1199C129.243 23.1199 129.812 23.4045 130.097 23.5469L129.812 24.5432C129.527 24.4009 128.958 24.1162 128.531 24.1162C127.819 24.1162 127.25 24.6856 127.25 26.109C127.25 27.5323 127.961 28.1017 128.531 28.1017C129.1 28.1017 129.527 27.817 129.812 27.6747L130.097 28.671Z" fill="black"/>
<path d="M134.65 25.1127C134.65 24.401 134.223 23.974 133.653 23.974C132.942 23.974 132.515 24.401 132.515 25.1127V28.9558H131.376V19.9885H132.372V23.547C132.515 23.2623 133.084 22.9776 133.796 22.9776C134.934 22.9776 135.788 23.8316 135.788 25.1127V28.9558H134.65V25.1127Z" fill="black"/>
<path d="M141.482 28.9558H140.344V19.9885H141.482V25.3973L143.475 22.9776H144.899L142.763 25.5397L145.326 28.9558H143.902L141.625 25.8244V28.9558H141.482Z" fill="black"/>
<path d="M147.888 28.9557C146.465 28.9557 145.184 28.1016 145.184 25.9666C145.184 23.8315 146.465 22.9775 147.888 22.9775C149.311 22.9775 150.592 23.8315 150.592 25.9666C150.592 28.244 149.311 28.9557 147.888 28.9557ZM147.888 23.9738C147.034 23.9738 146.322 24.6855 146.322 25.9666C146.322 27.2476 147.034 27.9593 147.888 27.9593C148.742 27.9593 149.454 27.2476 149.454 25.9666C149.454 24.6855 148.742 23.9738 147.888 23.9738Z" fill="black"/>
<path d="M158.563 25.1129C158.563 24.4012 158.136 23.9742 157.567 23.9742C156.855 23.9742 156.428 24.4012 156.428 25.1129V28.956H155.289V25.1129C155.289 24.4012 154.862 23.9742 154.293 23.9742C153.581 23.9742 153.154 24.4012 153.154 25.1129V28.956H152.016V22.9778H153.154V23.4049C153.297 23.1202 153.866 22.8355 154.578 22.8355C155.289 22.8355 155.859 23.1202 156.286 23.6895C156.57 23.2625 157.14 22.8355 157.994 22.8355C159.132 22.8355 159.987 23.6895 159.987 24.9706V28.8137H158.848V25.1129H158.563Z" fill="black"/>
<path d="M164.827 28.3864C164.684 28.671 164.257 28.9557 163.403 28.9557C162.264 28.9557 161.553 28.1017 161.553 26.8207V22.9775H162.691V26.8207C162.691 27.5323 162.976 27.9594 163.688 27.9594C164.542 27.9594 164.969 27.39 164.969 26.6783V22.9775H166.108V28.9557H164.969V28.3864H164.827Z" fill="black"/>
<path d="M170.946 25.1129C170.946 24.4012 170.519 23.9742 169.949 23.9742C169.238 23.9742 168.811 24.4012 168.811 25.1129V28.956H167.672V22.9778H168.811V23.4049C168.953 23.1202 169.522 22.8355 170.234 22.8355C171.373 22.8355 172.227 23.6895 172.227 24.9706V28.8137H171.088V25.1129H170.946Z" fill="black"/>
<path d="M174.363 21.8387C173.936 21.8387 173.651 21.554 173.651 21.127C173.651 20.7 173.936 20.4153 174.363 20.4153C174.79 20.4153 175.075 20.7 175.075 21.127C175.217 21.6963 174.932 21.8387 174.363 21.8387ZM174.932 22.9774V28.9555H173.794V22.9774H174.932Z" fill="black"/>
<path d="M177.922 28.9557H176.783V19.9885H177.922V25.3973L179.915 22.9776H181.338L179.203 25.5396L181.765 28.9557H180.342L178.064 25.8243V28.9557H177.922Z" fill="black"/>
<path d="M185.323 28.3867C185.181 28.529 184.754 28.956 183.9 28.956C182.619 28.956 181.907 28.2443 181.907 27.1056C181.907 25.8246 182.761 25.1129 183.9 25.1129C184.469 25.1129 185.039 25.3976 185.323 25.5399V24.8282C185.323 24.1165 184.896 23.8319 184.185 23.8319C183.473 23.8319 182.904 24.1165 182.477 24.2589L182.334 23.2625C182.761 23.1202 183.331 22.8355 184.185 22.8355C185.466 22.8355 186.32 23.5472 186.32 24.8282V28.8137H185.181V28.3867H185.323ZM185.323 26.9633C185.323 26.5363 184.754 26.2516 184.185 26.2516C183.615 26.2516 183.046 26.5363 183.046 27.248C183.046 27.8173 183.615 28.102 184.185 28.102C184.896 28.102 185.323 27.675 185.323 27.248V26.9633Z" fill="black"/>
<path d="M192.014 28.671C191.871 28.8134 191.16 29.098 190.448 29.098C189.309 29.098 187.886 28.5287 187.886 26.109C187.886 23.6892 189.309 23.1199 190.448 23.1199C191.16 23.1199 191.729 23.4045 192.014 23.5469L191.729 24.5432C191.444 24.4009 190.875 24.1162 190.448 24.1162C189.736 24.1162 189.167 24.6856 189.167 26.109C189.167 27.5323 189.878 28.1017 190.448 28.1017C191.017 28.1017 191.444 27.817 191.729 27.6747L192.014 28.671Z" fill="black"/>
<path d="M194.005 20.2732H195.286L194.148 22.2659H193.294L194.005 20.2732ZM194.29 22.9776V28.9558H193.151V22.9776H194.29Z" fill="black"/>
<path d="M10.533 0.630615L0 4.18905V0.630615H10.533ZM0 4.7584C0 5.32775 0.854025 5.75476 1.85039 5.75476C2.2774 5.75476 2.56207 5.61243 2.84675 5.61243C3.27376 5.47009 12.9527 2.05399 12.9527 2.05399V16.1454C12.9527 16.1454 3.13142 19.5615 2.84675 19.7038C2.56207 19.8462 2.13506 19.8462 1.85039 19.8462C0.854025 19.8462 0 19.2768 0 18.4228V4.7584Z" fill="#E53B38"/>
<path d="M26.1903 10.0246C26.1903 12.302 25.3363 13.583 23.0589 13.583C20.7815 13.583 19.7852 12.302 19.7852 10.0246V3.33472H21.0662V10.0246C21.0662 11.5903 21.4932 12.4443 22.9166 12.4443C24.34 12.4443 24.767 11.5903 24.767 10.0246V3.33472H26.048V10.0246H26.1903Z" fill="black"/>
<path d="M32.026 9.17096C32.026 8.45927 31.599 7.88992 30.8873 7.88992C30.0332 7.88992 29.6062 8.45927 29.6062 9.17096V13.5834H28.3252V6.75122H29.6062V7.32057C29.8909 7.0359 30.3179 6.75122 31.1719 6.75122C32.453 6.75122 33.4493 7.60525 33.4493 9.17096V13.5834H32.1683V9.17096H32.026Z" fill="black"/>
<path d="M35.8687 5.46977C35.2993 5.46977 35.0146 5.18509 35.0146 4.61574C35.0146 4.04639 35.2993 3.76172 35.8687 3.76172C36.438 3.76172 36.7227 4.04639 36.7227 4.61574C36.7227 5.32743 36.438 5.46977 35.8687 5.46977ZM36.5804 6.75081V13.583H35.2993V6.75081H36.5804Z" fill="black"/>
<path d="M37.5771 6.75122H39.0005L40.7086 11.8754L42.4166 6.75122H43.84L41.2779 13.5834H39.9969L37.5771 6.75122Z" fill="black"/>
<path d="M45.4058 10.7364C45.5481 12.0175 46.2598 12.4445 47.1138 12.4445C48.1102 12.4445 48.6796 12.1598 49.1066 11.8751L49.3912 13.1562C48.8219 13.4408 48.1102 13.5832 47.1138 13.5832C45.4058 13.5832 43.9824 12.5868 43.9824 10.1671C43.9824 7.88968 45.2635 6.60864 46.8292 6.60864C48.6796 6.60864 49.6759 7.88968 49.6759 9.88241V10.5941H45.4058V10.7364ZM48.3949 9.74007C48.3949 8.60137 47.8255 7.88968 46.9715 7.88968C46.2598 7.88968 45.5481 8.31669 45.4058 9.74007H48.3949Z" fill="black"/>
<path d="M54.2305 8.17436C54.0882 8.17436 53.8035 8.03202 53.3765 8.03202C52.9495 8.03202 52.6648 8.45903 52.6648 9.17072V13.5832H51.3838V6.75098H52.6648V7.46267C52.8072 7.03566 53.2342 6.60864 53.9459 6.60864C54.2305 6.60864 54.3729 6.60864 54.5152 6.75098L54.2305 8.17436Z" fill="black"/>
<path d="M60.0668 13.5834H55.085L58.3587 7.88992H55.2273V6.75122H60.2091L57.0777 12.4447H60.0668V13.5834Z" fill="black"/>
<path d="M62.2007 5.46977C61.6314 5.46977 61.3467 5.18509 61.3467 4.61574C61.3467 4.04639 61.6314 3.76172 62.2007 3.76172C62.7701 3.76172 63.0547 4.04639 63.0547 4.61574C63.0547 5.32743 62.6277 5.46977 62.2007 5.46977ZM62.7701 6.75081V13.583H61.489V6.75081H62.7701Z" fill="black"/>
<path d="M68.0377 13.4408C67.753 13.5832 67.4683 13.7255 66.899 13.7255C66.1873 13.7255 65.1909 13.4408 65.1909 12.0175V7.88968H64.3369V6.75098H65.1909V4.18891L66.472 4.04657V6.75098H67.6107V7.74734H66.472V11.7328C66.472 12.1598 66.7566 12.3021 67.0413 12.3021C67.326 12.3021 67.6107 12.1598 67.8954 12.1598L68.0377 13.4408Z" fill="black"/>
<path d="M72.7347 13.0141C72.5924 13.1564 72.1654 13.5834 71.169 13.5834C69.7456 13.5834 68.8916 12.8717 68.8916 11.4484C68.8916 10.025 69.888 9.3133 71.169 9.3133C71.8807 9.3133 72.45 9.59797 72.7347 9.88265V9.02862C72.7347 8.1746 72.1654 7.88992 71.4537 7.88992C70.5997 7.88992 69.888 8.1746 69.6033 8.31693L69.4609 7.17823C69.888 7.0359 70.5996 6.75122 71.596 6.75122C73.1617 6.75122 74.0157 7.60525 74.0157 9.02862V13.5834H72.7347V13.0141ZM72.7347 11.306C72.7347 10.7367 72.1654 10.452 71.4537 10.452C70.742 10.452 70.1726 10.7367 70.1726 11.5907C70.1726 12.3024 70.742 12.5871 71.4537 12.5871C72.1654 12.5871 72.7347 12.16 72.7347 11.5907V11.306Z" fill="black"/>
<path d="M81.2752 13.583V4.61575H78.8555V3.33472H85.1183V4.61575H82.5562V13.583H81.2752Z" fill="black"/>
<path d="M87.6802 13.5834C85.9722 13.5834 84.5488 12.5871 84.5488 10.1673C84.5488 7.60525 85.9722 6.75122 87.6802 6.75122C89.246 6.75122 90.8117 7.74758 90.8117 10.1673C90.8117 12.7294 89.3883 13.5834 87.6802 13.5834ZM87.6802 7.88992C86.6839 7.88992 85.9722 8.74395 85.9722 10.1673C85.9722 11.5907 86.6839 12.4447 87.6802 12.4447C88.6766 12.4447 89.3883 11.733 89.3883 10.1673C89.3883 8.60161 88.6766 7.88992 87.6802 7.88992Z" fill="black"/>
<path d="M99.9211 9.17096C99.9211 8.45927 99.4941 7.88992 98.7824 7.88992C97.9284 7.88992 97.5013 8.45927 97.5013 9.17096V13.5834H96.2203V9.17096C96.2203 8.45927 95.7933 7.88992 95.0816 7.88992C94.2276 7.88992 93.8006 8.45927 93.8006 9.17096V13.5834H92.5195V6.75122H93.8006V7.32057C94.0852 7.0359 94.5123 6.75122 95.3663 6.75122C96.2203 6.75122 96.932 7.0359 97.2167 7.74758C97.6437 7.17823 98.213 6.75122 99.0671 6.75122C100.348 6.75122 101.344 7.60525 101.344 9.17096V13.5834H100.063V9.17096H99.9211Z" fill="black"/>
<path d="M106.752 13.0141C106.61 13.2988 106.041 13.7258 105.187 13.7258C103.763 13.7258 102.909 13.0141 102.909 11.5908C102.909 10.1674 103.906 9.45571 105.187 9.45571C105.898 9.45571 106.468 9.74039 106.752 10.0251V9.0287C106.752 8.17467 106.183 7.89 105.471 7.89C104.617 7.89 103.906 8.17467 103.621 8.31701L103.479 7.17831C103.906 7.03597 104.617 6.7513 105.614 6.7513C107.179 6.7513 108.033 7.60532 108.033 9.0287V13.5835H106.752V13.0141ZM106.752 11.3061C106.752 10.7367 106.183 10.4521 105.471 10.4521C104.76 10.4521 104.19 10.7367 104.19 11.5908C104.19 12.3025 104.76 12.5871 105.471 12.5871C106.183 12.4448 106.752 12.0178 106.752 11.4484V11.3061ZM105.898 3.61987H107.322L106.041 5.89727H105.044L105.898 3.61987Z" fill="black"/>
<path d="M111.735 13.5835C110.739 13.5835 109.885 13.2988 109.458 13.1565L109.885 12.0178C110.454 12.3025 111.166 12.4448 111.878 12.4448C112.447 12.4448 113.016 12.3025 113.016 11.7331C113.016 11.1638 112.305 11.0214 111.593 10.7367C110.597 10.4521 109.6 10.1674 109.6 8.74402C109.6 7.32065 110.597 6.7513 112.162 6.7513C113.159 6.7513 113.728 6.89364 114.155 7.17831L113.87 8.31701C113.301 8.03234 112.874 7.89 112.02 7.89C111.308 7.89 110.739 8.17467 110.739 8.74402C110.739 9.17103 111.308 9.31337 111.878 9.59805C112.874 9.88272 114.155 10.1674 114.155 11.5908C114.297 12.8718 113.586 13.5835 111.735 13.5835ZM110.027 3.61987H111.166L112.02 4.90091L112.874 3.61987H114.013L112.732 5.89727H111.308L110.027 3.61987Z" fill="black"/>
<path d="M116.858 10.7364C117 12.0175 117.712 12.4445 118.566 12.4445C119.562 12.4445 120.132 12.1598 120.559 11.8751L120.843 13.1562C120.274 13.4408 119.562 13.5832 118.566 13.5832C116.858 13.5832 115.435 12.5868 115.435 10.1671C115.435 7.88968 116.716 6.60864 118.281 6.60864C120.132 6.60864 121.128 7.88968 121.128 9.88241V10.5941H116.858V10.7364ZM119.847 9.74007C119.847 8.60137 119.278 7.88968 118.424 7.88968C117.712 7.88968 117 8.31669 116.858 9.74007H119.847Z" fill="black"/>
<path d="M128.956 13.583H126.109V3.33472H129.098C130.949 3.33472 132.088 4.33108 132.088 6.03913C132.088 7.17783 131.518 7.88952 130.664 8.31653C131.518 8.74354 132.23 9.59757 132.23 10.7363C132.23 12.4443 130.949 13.583 128.956 13.583ZM129.098 4.61575H127.39V7.60484H128.956C129.952 7.60484 130.664 7.03549 130.664 6.03913C130.664 5.04277 130.095 4.61575 129.098 4.61575ZM128.956 8.88588H127.39V12.302H128.956C129.952 12.302 130.807 11.7326 130.807 10.7363C130.807 9.59757 129.952 8.88588 128.956 8.88588Z" fill="black"/>
<path d="M137.355 13.0141C137.212 13.2987 136.643 13.7258 135.789 13.7258C134.366 13.7258 133.512 13.0141 133.512 11.5907C133.512 10.1673 134.508 9.45563 135.789 9.45563C136.501 9.45563 137.07 9.74031 137.355 10.025V9.02862C137.355 8.1746 136.785 7.88992 136.074 7.88992C135.22 7.88992 134.508 8.1746 134.223 8.31693L134.081 7.17823C134.508 7.0359 135.22 6.75122 136.216 6.75122C137.782 6.75122 138.636 7.60525 138.636 9.02862V13.5834H137.355V13.0141ZM137.355 11.306C137.355 10.7367 136.785 10.452 136.074 10.452C135.362 10.452 134.793 10.7367 134.793 11.5907C134.793 12.3024 135.362 12.5871 136.074 12.5871C136.785 12.5871 137.355 12.16 137.355 11.5907V11.306Z" fill="black"/>
<path d="M143.619 13.4409C143.334 13.5832 143.049 13.7256 142.48 13.7256C141.768 13.7256 140.772 13.4409 140.772 12.0175V7.88974H139.918V6.75104H140.914V4.18897L142.195 4.04663V6.75104H143.334V7.74741H142.195V11.7329C142.195 12.1599 142.48 12.3022 142.765 12.3022C143.049 12.3022 143.334 12.1599 143.619 12.1599V13.4409Z" fill="black"/>
<path d="M145.611 5.46977C145.042 5.46977 144.757 5.18509 144.757 4.61574C144.757 4.04639 145.042 3.76172 145.611 3.76172C146.18 3.76172 146.465 4.04639 146.465 4.61574C146.465 5.32743 146.038 5.46977 145.611 5.46977ZM146.18 6.75081V13.583H144.899V6.75081H146.18Z" fill="black"/>
<path d="M150.451 6.75116H151.875L153.583 11.8753L155.291 6.75116H156.714L154.294 13.5834H153.013L150.451 6.75116Z" fill="black"/>
<path d="M158.28 10.7364C158.422 12.0175 159.134 12.4445 159.988 12.4445C160.984 12.4445 161.554 12.1598 161.981 11.8751L162.265 13.1562C161.696 13.4408 160.984 13.5832 159.988 13.5832C158.28 13.5832 156.856 12.5868 156.856 10.1671C156.856 7.88968 158.137 6.60864 159.703 6.60864C161.554 6.60864 162.55 7.88968 162.55 9.88241V10.5941H158.28V10.7364ZM161.269 9.74007C161.269 8.60137 160.7 7.88968 159.846 7.88968C159.134 7.88968 158.422 8.31669 158.28 9.74007H161.269Z" fill="black"/>
<path d="M172.798 13.583H166.82L171.09 4.61575H167.105V3.33472H173.083L168.813 12.302H172.798V13.583Z" fill="black"/>
<path d="M175.644 3.33472V13.583H174.363V3.33472H175.644Z" fill="black"/>
<path d="M178.492 3.61987H179.915L178.634 5.89727H177.638L178.492 3.61987ZM178.919 6.7513V13.5835H177.638V6.7513H178.919Z" fill="black"/>
<path d="M184.754 9.1709C184.754 8.45921 184.327 7.88986 183.616 7.88986C182.762 7.88986 182.335 8.45921 182.335 9.1709V13.5834H181.054V6.75116H182.335V7.32051C182.619 7.03583 183.046 6.75116 183.9 6.75116C185.181 6.75116 186.178 7.60518 186.178 9.1709V13.5834H184.897V9.1709H184.754Z" fill="black"/>
<path d="M188.882 10.7367C189.025 12.0178 189.736 12.4448 190.59 12.4448C191.587 12.4448 192.156 12.1601 192.583 11.8754L192.868 13.1565C192.298 13.4412 191.587 13.5835 190.59 13.5835C188.882 13.5835 187.459 12.5871 187.459 10.1674C187.459 7.89 188.74 6.60896 190.306 6.60896C192.156 6.60896 193.152 7.89 193.152 9.88272V10.5944H188.882V10.7367ZM188.455 3.61987H189.594L190.448 4.90091L191.302 3.61987H192.441L191.16 5.89727H189.736L188.455 3.61987ZM191.871 9.74039C191.871 8.60169 191.302 7.89 190.448 7.89C189.736 7.89 189.025 8.31701 188.882 9.74039H191.871Z" fill="black"/>
</svg>
