<svg width="194" height="32" viewBox="0 0 194 32" fill="none" xmlns="http://www.w3.org/2000/svg">
<path d="M24.6217 23.3181V24.4568H21.4903V28.5846H20.3516V19.6173H25.191V20.756H21.4903V23.3181H24.6217Z" fill="black"/>
<path d="M28.7501 28.0149C28.6077 28.1572 28.1807 28.5843 27.3267 28.5843C26.0457 28.5843 25.334 27.8726 25.334 26.7339C25.334 25.4528 26.188 24.7411 27.3267 24.7411C27.8961 24.7411 28.4654 25.0258 28.7501 25.1682V24.4565C28.7501 23.7448 28.3231 23.4601 27.6114 23.4601C26.8997 23.4601 26.3303 23.7448 25.9033 23.8871L25.761 22.8908C26.188 22.7484 26.7574 22.4637 27.6114 22.4637C28.8924 22.4637 29.7464 23.1754 29.7464 24.4565V28.4419H28.6077V28.0149H28.7501ZM28.7501 26.5915C28.7501 26.1645 28.1807 25.8798 27.6114 25.8798C27.042 25.8798 26.4727 26.1645 26.4727 26.8762C26.4727 27.4456 27.042 27.7302 27.6114 27.7302C28.3231 27.7302 28.7501 27.3032 28.7501 26.8762V26.5915Z" fill="black"/>
<path d="M32.7354 28.5846H31.5967V19.6173H32.7354V25.0261L34.7281 22.6064H36.1515L34.0164 25.1685L36.5785 28.5846H35.1551L32.8777 25.4531V28.5846H32.7354Z" fill="black"/>
<path d="M40.5638 28.0154C40.4215 28.3001 39.9945 28.5847 39.1404 28.5847C38.0017 28.5847 37.29 27.7307 37.29 26.4497V22.6066H38.4287V26.4497C38.4287 27.1614 38.7134 27.5884 39.4251 27.5884C40.2791 27.5884 40.7061 27.019 40.7061 26.3073V22.6066H41.7025V28.5847H40.5638V28.0154Z" fill="black"/>
<path d="M44.5498 19.6173V28.5846H43.4111V19.6173H44.5498Z" fill="black"/>
<path d="M48.9625 28.4422C48.8201 28.5846 48.5355 28.5846 47.9661 28.5846C47.2544 28.5846 46.5427 28.2999 46.5427 27.0188V23.4604H45.8311V22.464H46.5427V20.1866L47.6814 20.0443V22.464H48.6778V23.4604H47.6814V27.0188C47.6814 27.4459 47.9661 27.5882 48.1085 27.5882C48.3931 27.5882 48.6778 27.4459 48.8201 27.4459L48.9625 28.4422Z" fill="black"/>
<path d="M53.089 28.0149C52.9466 28.1572 52.5196 28.5843 51.6656 28.5843C50.3845 28.5843 49.6729 27.8726 49.6729 26.7339C49.6729 25.4528 50.5269 24.7411 51.6656 24.7411C52.2349 24.7411 52.8043 25.0258 53.089 25.1682V24.4565C53.089 23.7448 52.6619 23.4601 51.9503 23.4601C51.2386 23.4601 50.6692 23.7448 50.2422 23.8871V22.8908C50.6692 22.7484 51.2386 22.4637 52.0926 22.4637C53.3736 22.4637 54.2277 23.1754 54.2277 24.4565V28.4419H53.089V28.0149ZM53.089 26.5915C53.089 26.1645 52.5196 25.8798 51.9503 25.8798C51.3809 25.8798 50.8116 26.1645 50.8116 26.8762C50.8116 27.4456 51.3809 27.7302 51.9503 27.7302C52.6619 27.7302 53.089 27.3032 53.089 26.8762V26.5915Z" fill="black"/>
<path d="M61.3433 28.4422C61.201 28.5846 60.9163 28.5846 60.347 28.5846C59.6353 28.5846 58.9236 28.2999 58.9236 27.0188V23.4604H58.2119V22.464H58.9236V20.1866L60.0623 20.0443V22.464H61.0587V23.4604H60.0623V27.0188C60.0623 27.4459 60.347 27.5882 60.4893 27.5882C60.774 27.5882 61.0587 27.4459 61.201 27.4459L61.3433 28.4422Z" fill="black"/>
<path d="M63.3379 26.0227C63.4803 27.1614 64.0496 27.5884 64.9036 27.5884C65.7577 27.5884 66.327 27.4461 66.754 27.1614L66.8964 28.3001C66.327 28.5848 65.7577 28.7271 64.9036 28.7271C63.4803 28.7271 62.1992 27.8731 62.1992 25.7381C62.1992 23.7453 63.3379 22.6066 64.7613 22.6066C66.327 22.6066 67.181 23.7453 67.181 25.4534V26.0227H63.3379ZM66.0423 25.1687C66.0423 24.1723 65.473 23.603 64.7613 23.603C64.1919 23.603 63.6226 23.8877 63.4803 25.1687H66.0423Z" fill="black"/>
<path d="M72.3036 28.2998C72.1612 28.4422 71.4495 28.7268 70.7379 28.7268C69.5992 28.7268 68.1758 28.1575 68.1758 25.7377C68.1758 23.318 69.5992 22.7487 70.7379 22.7487C71.4495 22.7487 72.0189 23.0333 72.3036 23.1757L72.0189 24.172C71.7342 24.0297 71.1649 23.745 70.7379 23.745C70.0262 23.745 69.4568 24.3144 69.4568 25.7377C69.4568 27.1611 70.1685 27.7305 70.7379 27.7305C71.3072 27.7305 71.7342 27.4458 72.0189 27.3035L72.3036 28.2998Z" fill="black"/>
<path d="M76.8597 24.7415C76.8597 24.0298 76.4327 23.6028 75.8633 23.6028C75.1516 23.6028 74.7246 24.0298 74.7246 24.7415V28.5846H73.5859V19.6173H74.7246V23.1757C74.867 22.8911 75.4363 22.6064 76.148 22.6064C77.2867 22.6064 78.1407 23.4604 78.1407 24.7415V28.5846H77.002V24.7415H76.8597Z" fill="black"/>
<path d="M83.1224 24.7411C83.1224 24.0295 82.6954 23.6024 82.126 23.6024C81.4143 23.6024 80.9873 24.0295 80.9873 24.7411V28.5843H79.8486V22.6061H80.9873V23.0331C81.1297 22.7484 81.699 22.4637 82.4107 22.4637C83.5494 22.4637 84.4034 23.3178 84.4034 24.5988V28.4419H83.2647V24.7411H83.1224Z" fill="black"/>
<path d="M88.2454 28.5847C86.8221 28.5847 85.541 27.7307 85.541 25.5957C85.541 23.4606 86.8221 22.6066 88.2454 22.6066C89.6688 22.6066 90.9498 23.4606 90.9498 25.5957C90.9498 27.8731 89.6688 28.5847 88.2454 28.5847ZM88.2454 23.6029C87.3914 23.6029 86.6797 24.3146 86.6797 25.5957C86.6797 26.8767 87.3914 27.5884 88.2454 27.5884C89.0995 27.5884 89.8111 26.8767 89.8111 25.5957C89.8111 24.3146 89.0995 23.6029 88.2454 23.6029Z" fill="black"/>
<path d="M93.5137 19.6173V28.5846H92.375V19.6173H93.5137Z" fill="black"/>
<path d="M97.4993 28.5847C96.076 28.5847 94.7949 27.7307 94.7949 25.5957C94.7949 23.4606 96.076 22.6066 97.4993 22.6066C98.9227 22.6066 100.204 23.4606 100.204 25.5957C100.204 27.8731 98.9227 28.5847 97.4993 28.5847ZM97.4993 23.6029C96.6453 23.6029 95.9336 24.3146 95.9336 25.5957C95.9336 26.8767 96.6453 27.5884 97.4993 27.5884C98.3534 27.5884 99.065 26.8767 99.065 25.5957C99.065 24.3146 98.4957 23.6029 97.4993 23.6029Z" fill="black"/>
<path d="M106.465 28.5845C106.465 30.4349 105.468 31.0042 104.045 31.0042C103.049 31.0042 102.337 30.7196 102.052 30.5772L102.195 29.5809C102.622 29.7232 103.191 30.0079 103.903 30.0079C104.614 30.0079 105.184 29.4385 105.184 28.5845V27.8728C105.041 28.0151 104.472 28.5845 103.618 28.5845C102.479 28.5845 101.198 27.8728 101.198 25.7377C101.198 23.6027 102.337 22.7487 103.618 22.7487C104.614 22.7487 104.899 23.0333 105.041 23.318V22.891H106.18V28.5845H106.465ZM105.326 24.8837C105.326 23.8874 104.757 23.4603 104.045 23.4603C103.333 23.4603 102.622 24.0297 102.622 25.4531C102.622 26.8764 103.191 27.3035 104.045 27.3035C104.757 27.3035 105.468 26.8764 105.468 25.8801V24.8837H105.326Z" fill="black"/>
<path d="M108.743 21.4677C108.316 21.4677 108.031 21.183 108.031 20.756C108.031 20.329 108.316 20.0443 108.743 20.0443C109.17 20.0443 109.455 20.329 109.455 20.756C109.455 21.3253 109.17 21.4677 108.743 21.4677ZM109.312 22.6064V28.5846H108.174V22.6064H109.312Z" fill="black"/>
<path d="M114.722 28.2998C114.579 28.4422 113.868 28.7268 113.156 28.7268C112.017 28.7268 110.594 28.1575 110.594 25.7377C110.594 23.318 112.017 22.7487 113.156 22.7487C113.868 22.7487 114.437 23.0333 114.722 23.1757L114.437 24.172C114.152 24.0297 113.583 23.745 113.156 23.745C112.444 23.745 111.875 24.3144 111.875 25.7377C111.875 27.1611 112.586 27.7305 113.156 27.7305C113.725 27.7305 114.152 27.4458 114.437 27.3035L114.722 28.2998Z" fill="black"/>
<path d="M117.142 28.5846H116.003V19.6173H117.142V25.0261L119.134 22.6064H120.558L118.423 25.1685L120.985 28.5846H119.561L117.142 25.4531V28.5846Z" fill="black"/>
<path d="M124.542 28.015C124.4 28.1574 123.973 28.5844 123.119 28.5844C121.838 28.5844 121.126 27.8727 121.126 26.734C121.126 25.453 121.98 24.7413 123.119 24.7413C123.688 24.7413 124.257 25.0259 124.542 25.1683V24.4566C124.542 23.7449 124.115 23.4602 123.403 23.4602C122.692 23.4602 122.122 23.7449 121.695 23.8872L121.553 22.8909C121.98 22.7485 122.549 22.4639 123.403 22.4639C124.684 22.4639 125.538 23.1756 125.538 24.4566V28.442H124.4V28.015H124.542ZM124.542 26.5917C124.542 26.1646 123.973 25.88 123.403 25.88C122.834 25.88 122.265 26.1646 122.265 26.8763C122.265 27.4457 122.834 27.7304 123.403 27.7304C124.115 27.7304 124.542 27.3033 124.542 26.8763V26.5917ZM123.83 19.9018H125.111L123.973 21.8945H123.119L123.83 19.9018Z" fill="black"/>
<path d="M10.9578 0.259033L0.424805 3.81747V0.259033H10.9578ZM0.424805 4.38682C0.424805 4.95617 1.27883 5.38318 2.27519 5.38318C2.7022 5.38318 2.98688 5.24085 3.27155 5.24085C3.69857 5.09851 13.3775 1.68241 13.3775 1.68241V15.7738C13.3775 15.7738 3.55623 19.1899 3.27155 19.3323C2.98688 19.4746 2.55987 19.4746 2.27519 19.4746C1.27883 19.4746 0.424805 18.9052 0.424805 18.0512V4.38682Z" fill="#172983"/>
<path d="M26.6151 9.65324C26.6151 11.9306 25.7611 13.2117 23.4837 13.2117C21.2063 13.2117 20.21 11.9306 20.21 9.65324V2.96338H21.491V9.65324C21.491 11.219 21.918 12.073 23.3414 12.073C24.7648 12.073 25.1918 11.219 25.1918 9.65324V2.96338H26.4728V9.65324H26.6151Z" fill="black"/>
<path d="M32.4508 8.79938C32.4508 8.08769 32.0238 7.51834 31.3121 7.51834C30.4581 7.51834 30.031 8.08769 30.031 8.79938V13.2118H28.75V6.37964H30.031V6.94899C30.3157 6.66431 30.7427 6.37964 31.5967 6.37964C32.8778 6.37964 33.8742 7.23366 33.8742 8.79938V13.2118H32.5931V8.79938H32.4508Z" fill="black"/>
<path d="M36.2935 5.09843C35.7241 5.09843 35.4395 4.81376 35.4395 4.24441C35.4395 3.67506 35.7241 3.39038 36.2935 3.39038C36.8628 3.39038 37.1475 3.67506 37.1475 4.24441C37.1475 4.95609 36.8628 5.09843 36.2935 5.09843ZM37.0052 6.37947V13.2117H35.7241V6.37947H37.0052Z" fill="black"/>
<path d="M38.002 6.37964H39.4253L41.1334 11.5038L42.8414 6.37964H44.2648L41.7027 13.2118H40.4217L38.002 6.37964Z" fill="black"/>
<path d="M45.8306 10.3646C45.9729 11.6456 46.6846 12.0727 47.5386 12.0727C48.535 12.0727 49.1044 11.788 49.5314 11.5033L49.8161 12.7843C49.2467 13.069 48.535 13.2114 47.5386 13.2114C45.8306 13.2114 44.4072 12.215 44.4072 9.79525C44.4072 7.51785 45.6883 6.23682 47.254 6.23682C49.1044 6.23682 50.1007 7.51785 50.1007 9.51058V10.2223H45.8306V10.3646ZM48.8197 9.36824C48.8197 8.22954 48.2503 7.51785 47.3963 7.51785C46.6846 7.51785 45.9729 7.94487 45.8306 9.36824H48.8197Z" fill="black"/>
<path d="M54.6553 7.80253C54.513 7.80253 54.2283 7.66019 53.8013 7.66019C53.3743 7.66019 53.0896 8.0872 53.0896 8.79889V13.2114H51.8086V6.37915H53.0896V7.09084C53.232 6.66383 53.659 6.23682 54.3707 6.23682C54.6553 6.23682 54.7977 6.23682 54.94 6.37915L54.6553 7.80253Z" fill="black"/>
<path d="M60.4916 13.2118H55.5098L58.7835 7.51834H55.6521V6.37964H60.6339L57.5025 12.0731H60.4916V13.2118Z" fill="black"/>
<path d="M62.6255 5.09843C62.0562 5.09843 61.7715 4.81376 61.7715 4.24441C61.7715 3.67506 62.0562 3.39038 62.6255 3.39038C63.1949 3.39038 63.4795 3.67506 63.4795 4.24441C63.4795 4.95609 63.0525 5.09843 62.6255 5.09843ZM63.1949 6.37947V13.2117H61.9138V6.37947H63.1949Z" fill="black"/>
<path d="M68.4625 13.0694C68.1778 13.2117 67.8931 13.3541 67.3238 13.3541C66.6121 13.3541 65.6157 13.0694 65.6157 11.646V7.51822H64.7617V6.37952H65.6157V3.81745L66.8968 3.67511V6.37952H68.0355V7.37588H66.8968V11.3613C66.8968 11.7883 67.1815 11.9307 67.4661 11.9307C67.7508 11.9307 68.0355 11.7883 68.3202 11.7883L68.4625 13.0694Z" fill="black"/>
<path d="M73.1595 12.6425C73.0172 12.7848 72.5902 13.2118 71.5938 13.2118C70.1704 13.2118 69.3164 12.5002 69.3164 11.0768C69.3164 9.6534 70.3128 8.94171 71.5938 8.94171C72.3055 8.94171 72.8748 9.22639 73.1595 9.51106V8.65704C73.1595 7.80301 72.5902 7.51834 71.8785 7.51834C71.0245 7.51834 70.3128 7.80301 70.0281 7.94535L69.8858 6.80665C70.3128 6.66431 71.0245 6.37964 72.0208 6.37964C73.5865 6.37964 74.4406 7.23366 74.4406 8.65704V13.2118H73.1595V12.6425ZM73.1595 10.9344C73.1595 10.3651 72.5902 10.0804 71.8785 10.0804C71.1668 10.0804 70.5974 10.3651 70.5974 11.2191C70.5974 11.9308 71.1668 12.2155 71.8785 12.2155C72.5902 12.2155 73.1595 11.7885 73.1595 11.2191V10.9344Z" fill="black"/>
<path d="M81.7 13.2117V4.24442H79.2803V2.96338H85.5431V4.24442H82.981V13.2117H81.7Z" fill="black"/>
<path d="M88.106 13.2118C86.398 13.2118 84.9746 12.2155 84.9746 9.79574C84.9746 7.23366 86.398 6.37964 88.106 6.37964C89.6717 6.37964 91.2375 7.376 91.2375 9.79574C91.2375 12.3578 89.8141 13.2118 88.106 13.2118ZM88.106 7.51834C87.1097 7.51834 86.398 8.37236 86.398 9.79574C86.398 11.2191 87.1097 12.0731 88.106 12.0731C89.1024 12.0731 89.8141 11.3615 89.8141 9.79574C89.8141 8.23003 89.1024 7.51834 88.106 7.51834Z" fill="black"/>
<path d="M100.346 8.79938C100.346 8.08769 99.9189 7.51834 99.2072 7.51834C98.3532 7.51834 97.9261 8.08769 97.9261 8.79938V13.2118H96.6451V8.79938C96.6451 8.08769 96.2181 7.51834 95.5064 7.51834C94.6524 7.51834 94.2254 8.08769 94.2254 8.79938V13.2118H92.9443V6.37964H94.2254V6.94899C94.5101 6.66431 94.9371 6.37964 95.7911 6.37964C96.6451 6.37964 97.3568 6.66431 97.6415 7.376C98.0685 6.80665 98.6378 6.37964 99.4919 6.37964C100.773 6.37964 101.769 7.23366 101.769 8.79938V13.2118H100.488V8.79938H100.346Z" fill="black"/>
<path d="M107.177 12.6426C107.035 12.9272 106.465 13.3543 105.611 13.3543C104.188 13.3543 103.334 12.6426 103.334 11.2192C103.334 9.79582 104.33 9.08413 105.611 9.08413C106.323 9.08413 106.892 9.3688 107.177 9.65348V8.65712C107.177 7.80309 106.608 7.51842 105.896 7.51842C105.042 7.51842 104.33 7.80309 104.046 7.94543L103.903 6.80673C104.33 6.66439 105.042 6.37972 106.038 6.37972C107.604 6.37972 108.458 7.23374 108.458 8.65712V13.2119H107.177V12.6426ZM107.177 10.9345C107.177 10.3652 106.608 10.0805 105.896 10.0805C105.184 10.0805 104.615 10.3652 104.615 11.2192C104.615 11.9309 105.184 12.2156 105.896 12.2156C106.608 12.0732 107.177 11.6462 107.177 11.0769V10.9345ZM106.323 3.24829H107.746L106.465 5.52569H105.469L106.323 3.24829Z" fill="black"/>
<path d="M112.16 13.2119C111.164 13.2119 110.31 12.9272 109.883 12.7849L110.31 11.6462C110.879 11.9309 111.591 12.0732 112.303 12.0732C112.872 12.0732 113.441 11.9309 113.441 11.3615C113.441 10.7922 112.73 10.6498 112.018 10.3652C111.022 10.0805 110.025 9.79582 110.025 8.37244C110.025 6.94907 111.022 6.37972 112.587 6.37972C113.584 6.37972 114.153 6.52205 114.58 6.80673L114.295 7.94543C113.726 7.66075 113.299 7.51842 112.445 7.51842C111.733 7.51842 111.164 7.80309 111.164 8.37244C111.164 8.79945 111.733 8.94179 112.303 9.22647C113.299 9.51114 114.58 9.79582 114.58 11.2192C114.722 12.5002 114.011 13.2119 112.16 13.2119ZM110.452 3.24829H111.591L112.445 4.52933L113.299 3.24829H114.438L113.157 5.52569H111.733L110.452 3.24829Z" fill="black"/>
<path d="M117.283 10.3646C117.425 11.6456 118.137 12.0727 118.991 12.0727C119.987 12.0727 120.557 11.788 120.984 11.5033L121.268 12.7843C120.699 13.069 119.987 13.2114 118.991 13.2114C117.283 13.2114 115.859 12.215 115.859 9.79525C115.859 7.51785 117.14 6.23682 118.706 6.23682C120.557 6.23682 121.553 7.51785 121.553 9.51058V10.2223H117.283V10.3646ZM120.272 9.36824C120.272 8.22954 119.702 7.51785 118.848 7.51785C118.137 7.51785 117.425 7.94487 117.283 9.36824H120.272Z" fill="black"/>
<path d="M129.381 13.2117H126.534V2.96338H129.523C131.374 2.96338 132.512 3.95974 132.512 5.66779C132.512 6.80649 131.943 7.51818 131.089 7.94519C131.943 8.3722 132.655 9.22623 132.655 10.3649C132.655 12.073 131.374 13.2117 129.381 13.2117ZM129.523 4.24442H127.815V7.2335H129.381C130.377 7.2335 131.089 6.66415 131.089 5.66779C131.089 4.67143 130.52 4.24442 129.523 4.24442ZM129.381 8.51454H127.815V11.9306H129.381C130.377 11.9306 131.231 11.3613 131.231 10.3649C131.231 9.22623 130.377 8.51454 129.381 8.51454Z" fill="black"/>
<path d="M137.78 12.6425C137.637 12.9272 137.068 13.3542 136.214 13.3542C134.791 13.3542 133.937 12.6425 133.937 11.2191C133.937 9.79574 134.933 9.08405 136.214 9.08405C136.926 9.08405 137.495 9.36873 137.78 9.6534V8.65704C137.78 7.80301 137.21 7.51834 136.499 7.51834C135.645 7.51834 134.933 7.80301 134.648 7.94535L134.506 6.80665C134.933 6.66431 135.645 6.37964 136.641 6.37964C138.207 6.37964 139.061 7.23366 139.061 8.65704V13.2118H137.78V12.6425ZM137.78 10.9344C137.78 10.3651 137.21 10.0804 136.499 10.0804C135.787 10.0804 135.218 10.3651 135.218 11.2191C135.218 11.9308 135.787 12.2155 136.499 12.2155C137.21 12.2155 137.78 11.7885 137.78 11.2191V10.9344Z" fill="black"/>
<path d="M144.043 13.0694C143.758 13.2117 143.473 13.3541 142.904 13.3541C142.192 13.3541 141.196 13.0694 141.196 11.646V7.51822H140.342V6.37952H141.338V3.81745L142.619 3.67511V6.37952H143.758V7.37588H142.619V11.3613C142.619 11.7883 142.904 11.9307 143.189 11.9307C143.473 11.9307 143.758 11.7883 144.043 11.7883V13.0694Z" fill="black"/>
<path d="M146.036 5.09843C145.466 5.09843 145.182 4.81376 145.182 4.24441C145.182 3.67506 145.466 3.39038 146.036 3.39038C146.605 3.39038 146.89 3.67506 146.89 4.24441C146.89 4.95609 146.463 5.09843 146.036 5.09843ZM146.605 6.37947V13.2117H145.324V6.37947H146.605Z" fill="black"/>
<path d="M150.876 6.37964H152.299L154.007 11.5038L155.715 6.37964H157.139L154.719 13.2118H153.438L150.876 6.37964Z" fill="black"/>
<path d="M158.704 10.3646C158.846 11.6456 159.558 12.0727 160.412 12.0727C161.408 12.0727 161.977 11.788 162.404 11.5033L162.689 12.7843C162.12 13.069 161.408 13.2114 160.412 13.2114C158.704 13.2114 157.28 12.215 157.28 9.79525C157.28 7.51785 158.561 6.23682 160.127 6.23682C161.977 6.23682 162.974 7.51785 162.974 9.51058V10.2223H158.704V10.3646ZM161.693 9.36824C161.693 8.22954 161.123 7.51785 160.269 7.51785C159.558 7.51785 158.846 7.94487 158.704 9.36824H161.693Z" fill="black"/>
<path d="M173.223 13.2117H167.245L171.515 4.24442H167.53V2.96338H173.508L169.238 11.9306H173.223V13.2117Z" fill="black"/>
<path d="M176.069 2.96338V13.2117H174.788V2.96338H176.069Z" fill="black"/>
<path d="M178.917 3.24835H180.34L179.059 5.52575H178.062L178.917 3.24835ZM179.344 6.37978V13.212H178.062V6.37978H179.344Z" fill="black"/>
<path d="M185.179 8.79938C185.179 8.08769 184.752 7.51834 184.041 7.51834C183.187 7.51834 182.76 8.08769 182.76 8.79938V13.2118H181.479V6.37964H182.76V6.94899C183.044 6.66431 183.471 6.37964 184.325 6.37964C185.606 6.37964 186.603 7.23366 186.603 8.79938V13.2118H185.322V8.79938H185.179Z" fill="black"/>
<path d="M189.307 10.3652C189.45 11.6462 190.161 12.0732 191.015 12.0732C192.012 12.0732 192.581 11.7885 193.008 11.5039L193.293 12.7849C192.723 13.0696 192.012 13.2119 191.015 13.2119C189.307 13.2119 187.884 12.2156 187.884 9.79582C187.884 7.51842 189.165 6.23738 190.731 6.23738C192.581 6.23738 193.577 7.51842 193.577 9.51114V10.2228H189.307V10.3652ZM188.88 3.24829H190.019L190.873 4.52933L191.727 3.24829H192.866L191.585 5.52569H190.161L188.88 3.24829ZM192.296 9.3688C192.296 8.2301 191.727 7.51842 190.873 7.51842C190.161 7.51842 189.45 7.94543 189.307 9.3688H192.296Z" fill="black"/>
</svg>
