<svg width="194" height="30" viewBox="0 0 194 30" fill="none" xmlns="http://www.w3.org/2000/svg">
<path d="M20.9229 29.0593H19.7842V20.092H20.9229V23.9352L23.485 20.092H24.9083L21.9192 24.3622L25.0507 29.0593H23.6273L20.9229 24.7892V29.0593Z" fill="black"/>
<path d="M29.3206 25.2159C29.3206 24.5042 28.8936 24.0772 28.3243 24.0772C27.6126 24.0772 27.1856 24.5042 27.1856 25.2159V29.059H26.0469V23.0808H27.0432V23.5078C27.1856 23.2232 27.7549 22.9385 28.4666 22.9385C29.6053 22.9385 30.4593 23.7925 30.4593 25.0735V28.9166H29.3206V25.2159Z" fill="black"/>
<path d="M32.7361 21.9424C32.3091 21.9424 32.0244 21.6577 32.0244 21.2307C32.0244 20.8037 32.3091 20.519 32.7361 20.519C33.1631 20.519 33.4478 20.8037 33.4478 21.2307C33.4478 21.8001 33.1631 21.9424 32.7361 21.9424ZM33.3055 23.0811V29.0593H32.1668V23.0811H33.3055Z" fill="black"/>
<path d="M38.2884 25.2162C38.2884 24.5045 37.8614 24.0775 37.292 24.0775C36.5804 24.0775 36.1533 24.5045 36.1533 25.2162V29.0593H35.0146V20.092H36.1533V23.6505C36.2957 23.3658 36.865 23.0811 37.5767 23.0811C38.7154 23.0811 39.5694 23.9352 39.5694 25.2162V29.0593H38.4307V25.2162H38.2884Z" fill="black"/>
<path d="M43.555 29.0595C42.1316 29.0595 40.8506 28.2055 40.8506 26.0704C40.8506 23.9354 42.1316 23.0814 43.555 23.0814C44.9784 23.0814 46.2594 23.9354 46.2594 26.0704C46.2594 28.3478 44.9784 29.0595 43.555 29.0595ZM43.555 24.0777C42.701 24.0777 41.9893 24.7894 41.9893 26.0704C41.9893 27.3515 42.701 28.0632 43.555 28.0632C44.409 28.0632 45.1207 27.3515 45.1207 26.0704C45.1207 24.7894 44.409 24.0777 43.555 24.0777Z" fill="black"/>
<path d="M46.5439 23.0813H47.825L49.2484 27.4938L50.6717 23.0813H51.9528L49.8177 29.0595H48.679L46.5439 23.0813Z" fill="black"/>
<path d="M56.0804 25.2159C56.0804 24.5043 55.6534 24.0772 55.084 24.0772C54.3724 24.0772 53.9453 24.5043 53.9453 25.2159V29.059H52.8066V23.0809H53.9453V23.5079C54.0877 23.2232 54.657 22.9385 55.3687 22.9385C56.5074 22.9385 57.3614 23.7926 57.3614 25.0736V28.9167H56.2227V25.2159H56.0804Z" fill="black"/>
<path d="M62.0587 28.4896C61.9163 28.632 61.4893 29.059 60.6353 29.059C59.3543 29.059 58.6426 28.3473 58.6426 27.2086C58.6426 25.9276 59.4966 25.2159 60.6353 25.2159C61.2046 25.2159 61.774 25.5006 62.0587 25.6429V24.9312C62.0587 24.2195 61.6317 23.9348 60.92 23.9348C60.2083 23.9348 59.6389 24.2195 59.2119 24.3619L59.0696 23.3655C59.4966 23.2232 60.066 22.9385 60.92 22.9385C62.201 22.9385 63.055 23.6502 63.055 24.9312V28.9166H61.9163V28.4896H62.0587ZM62.0587 27.0663C62.0587 26.6393 61.4893 26.3546 60.92 26.3546C60.3506 26.3546 59.7813 26.6393 59.7813 27.3509C59.7813 27.9203 60.3506 28.205 60.92 28.205C61.6317 28.205 62.0587 27.778 62.0587 27.3509V27.0663Z" fill="black"/>
<path d="M10.533 0.734131L0 4.29257V0.734131H10.533ZM0 4.86192C0 5.43127 0.854025 5.85828 1.85039 5.85828C2.2774 5.85828 2.56207 5.71594 2.84675 5.71594C3.27376 5.57361 12.9527 2.15751 12.9527 2.15751V16.2489C12.9527 16.2489 3.13142 19.665 2.84675 19.8074C2.56207 19.9497 2.13506 19.9497 1.85039 19.9497C0.854025 19.9497 0 19.3803 0 18.5263V4.86192Z" fill="#EC751A"/>
<path d="M26.1903 10.1283C26.1903 12.4057 25.3363 13.6868 23.0589 13.6868C20.7815 13.6868 19.7852 12.4057 19.7852 10.1283V3.43848H21.0662V10.1283C21.0662 11.6941 21.4932 12.5481 22.9166 12.5481C24.34 12.5481 24.767 11.6941 24.767 10.1283V3.43848H26.048V10.1283H26.1903Z" fill="black"/>
<path d="M32.026 9.27447C32.026 8.56279 31.599 7.99344 30.8873 7.99344C30.0332 7.99344 29.6062 8.56279 29.6062 9.27447V13.6869H28.3252V6.85474H29.6062V7.42409C29.8909 7.13941 30.3179 6.85474 31.1719 6.85474C32.453 6.85474 33.4493 7.70876 33.4493 9.27447V13.6869H32.1683V9.27447H32.026Z" fill="black"/>
<path d="M35.8687 5.57353C35.2993 5.57353 35.0146 5.28885 35.0146 4.7195C35.0146 4.15015 35.2993 3.86548 35.8687 3.86548C36.438 3.86548 36.7227 4.15015 36.7227 4.7195C36.7227 5.43119 36.438 5.57353 35.8687 5.57353ZM36.5804 6.85457V13.6868H35.2993V6.85457H36.5804Z" fill="black"/>
<path d="M37.5771 6.85474H39.0005L40.7086 11.9789L42.4166 6.85474H43.84L41.2779 13.6869H39.9969L37.5771 6.85474Z" fill="black"/>
<path d="M45.4058 10.8399C45.5481 12.121 46.2598 12.548 47.1138 12.548C48.1102 12.548 48.6796 12.2633 49.1066 11.9786L49.3912 13.2597C48.8219 13.5444 48.1102 13.6867 47.1138 13.6867C45.4058 13.6867 43.9824 12.6903 43.9824 10.2706C43.9824 7.9932 45.2635 6.71216 46.8292 6.71216C48.6796 6.71216 49.6759 7.9932 49.6759 9.98592V10.6976H45.4058V10.8399ZM48.3949 9.84358C48.3949 8.70488 47.8255 7.9932 46.9715 7.9932C46.2598 7.9932 45.5481 8.42021 45.4058 9.84358H48.3949Z" fill="black"/>
<path d="M54.2305 8.27793C54.0882 8.27793 53.8035 8.13559 53.3765 8.13559C52.9495 8.13559 52.6648 8.56261 52.6648 9.27429V13.6868H51.3838V6.85456H52.6648V7.56624C52.8072 7.13923 53.2342 6.71222 53.9459 6.71222C54.2305 6.71222 54.3729 6.71222 54.5152 6.85456L54.2305 8.27793Z" fill="black"/>
<path d="M60.0668 13.6869H55.085L58.3587 7.99344H55.2273V6.85474H60.2091L57.0777 12.5482H60.0668V13.6869Z" fill="black"/>
<path d="M62.2007 5.57353C61.6314 5.57353 61.3467 5.28885 61.3467 4.7195C61.3467 4.15015 61.6314 3.86548 62.2007 3.86548C62.7701 3.86548 63.0547 4.15015 63.0547 4.7195C63.0547 5.43119 62.6277 5.57353 62.2007 5.57353ZM62.7701 6.85457V13.6868H61.489V6.85457H62.7701Z" fill="black"/>
<path d="M68.0377 13.5445C67.753 13.6868 67.4683 13.8292 66.899 13.8292C66.1873 13.8292 65.1909 13.5445 65.1909 12.1211V7.99332H64.3369V6.85462H65.1909V4.29254L66.472 4.15021V6.85462H67.6107V7.85098H66.472V11.8364C66.472 12.2634 66.7566 12.4058 67.0413 12.4058C67.326 12.4058 67.6107 12.2634 67.8954 12.2634L68.0377 13.5445Z" fill="black"/>
<path d="M72.7347 13.1176C72.5924 13.2599 72.1654 13.6869 71.169 13.6869C69.7456 13.6869 68.8916 12.9752 68.8916 11.5519C68.8916 10.1285 69.888 9.41681 71.169 9.41681C71.8807 9.41681 72.45 9.70149 72.7347 9.98616V9.13214C72.7347 8.27811 72.1654 7.99344 71.4537 7.99344C70.5997 7.99344 69.888 8.27811 69.6033 8.42045L69.4609 7.28175C69.888 7.13941 70.5996 6.85474 71.596 6.85474C73.1617 6.85474 74.0157 7.70876 74.0157 9.13214V13.6869H72.7347V13.1176ZM72.7347 11.4095C72.7347 10.8402 72.1654 10.5555 71.4537 10.5555C70.742 10.5555 70.1726 10.8402 70.1726 11.6942C70.1726 12.4059 70.742 12.6906 71.4537 12.6906C72.1654 12.6906 72.7347 12.2636 72.7347 11.6942V11.4095Z" fill="black"/>
<path d="M81.2752 13.6868V4.71951H78.8555V3.43848H85.1183V4.71951H82.5562V13.6868H81.2752Z" fill="black"/>
<path d="M87.6802 13.6869C85.9722 13.6869 84.5488 12.6906 84.5488 10.2708C84.5488 7.70876 85.9722 6.85474 87.6802 6.85474C89.246 6.85474 90.8117 7.8511 90.8117 10.2708C90.8117 12.8329 89.3883 13.6869 87.6802 13.6869ZM87.6802 7.99344C86.6839 7.99344 85.9722 8.84746 85.9722 10.2708C85.9722 11.6942 86.6839 12.5482 87.6802 12.5482C88.6766 12.5482 89.3883 11.8365 89.3883 10.2708C89.3883 8.70512 88.6766 7.99344 87.6802 7.99344Z" fill="black"/>
<path d="M99.9211 9.27447C99.9211 8.56279 99.4941 7.99344 98.7824 7.99344C97.9284 7.99344 97.5013 8.56279 97.5013 9.27447V13.6869H96.2203V9.27447C96.2203 8.56279 95.7933 7.99344 95.0816 7.99344C94.2276 7.99344 93.8006 8.56279 93.8006 9.27447V13.6869H92.5195V6.85474H93.8006V7.42409C94.0852 7.13941 94.5123 6.85474 95.3663 6.85474C96.2203 6.85474 96.932 7.13941 97.2167 7.8511C97.6437 7.28175 98.213 6.85474 99.0671 6.85474C100.348 6.85474 101.344 7.70876 101.344 9.27447V13.6869H100.063V9.27447H99.9211Z" fill="black"/>
<path d="M106.752 13.1177C106.61 13.4023 106.041 13.8294 105.187 13.8294C103.763 13.8294 102.909 13.1177 102.909 11.6943C102.909 10.2709 103.906 9.55923 105.187 9.55923C105.898 9.55923 106.468 9.8439 106.752 10.1286V9.13221C106.752 8.27819 106.183 7.99351 105.471 7.99351C104.617 7.99351 103.906 8.27819 103.621 8.42053L103.479 7.28183C103.906 7.13949 104.617 6.85481 105.614 6.85481C107.179 6.85481 108.033 7.70884 108.033 9.13221V13.687H106.752V13.1177ZM106.752 11.4096C106.752 10.8403 106.183 10.5556 105.471 10.5556C104.76 10.5556 104.19 10.8403 104.19 11.6943C104.19 12.406 104.76 12.6906 105.471 12.6906C106.183 12.5483 106.752 12.1213 106.752 11.552V11.4096ZM105.898 3.72339H107.322L106.041 6.00079H105.044L105.898 3.72339Z" fill="black"/>
<path d="M111.735 13.687C110.739 13.687 109.885 13.4023 109.458 13.26L109.885 12.1213C110.454 12.406 111.166 12.5483 111.878 12.5483C112.447 12.5483 113.016 12.406 113.016 11.8366C113.016 11.2673 112.305 11.1249 111.593 10.8403C110.597 10.5556 109.6 10.2709 109.6 8.84754C109.6 7.42416 110.597 6.85481 112.162 6.85481C113.159 6.85481 113.728 6.99715 114.155 7.28183L113.87 8.42053C113.301 8.13585 112.874 7.99351 112.02 7.99351C111.308 7.99351 110.739 8.27819 110.739 8.84754C110.739 9.27455 111.308 9.41689 111.878 9.70156C112.874 9.98624 114.155 10.2709 114.155 11.6943C114.297 12.9753 113.586 13.687 111.735 13.687ZM110.027 3.72339H111.166L112.02 5.00443L112.874 3.72339H114.013L112.732 6.00079H111.308L110.027 3.72339Z" fill="black"/>
<path d="M116.858 10.84C117 12.121 117.712 12.5481 118.566 12.5481C119.562 12.5481 120.132 12.2634 120.559 11.9787L120.843 13.2597C120.274 13.5444 119.562 13.6868 118.566 13.6868C116.858 13.6868 115.435 12.6904 115.435 10.2707C115.435 7.99326 116.716 6.71222 118.281 6.71222C120.132 6.71222 121.128 7.99326 121.128 9.98598V10.6977H116.858V10.84ZM119.847 9.84364C119.847 8.70494 119.278 7.99326 118.424 7.99326C117.712 7.99326 117 8.42027 116.858 9.84364H119.847Z" fill="black"/>
<path d="M128.956 13.6868H126.109V3.43848H129.098C130.949 3.43848 132.088 4.43484 132.088 6.14289C132.088 7.28159 131.518 7.99328 130.664 8.42029C131.518 8.8473 132.23 9.70133 132.23 10.84C132.23 12.5481 130.949 13.6868 128.956 13.6868ZM129.098 4.71951H127.39V7.7086H128.956C129.952 7.7086 130.664 7.13925 130.664 6.14289C130.664 5.14653 130.095 4.71951 129.098 4.71951ZM128.956 8.98964H127.39V12.4057H128.956C129.952 12.4057 130.807 11.8364 130.807 10.84C130.807 9.70133 129.952 8.98964 128.956 8.98964Z" fill="black"/>
<path d="M137.355 13.1176C137.212 13.4023 136.643 13.8293 135.789 13.8293C134.366 13.8293 133.512 13.1176 133.512 11.6942C133.512 10.2708 134.508 9.55915 135.789 9.55915C136.501 9.55915 137.07 9.84382 137.355 10.1285V9.13214C137.355 8.27811 136.785 7.99344 136.074 7.99344C135.22 7.99344 134.508 8.27811 134.223 8.42045L134.081 7.28175C134.508 7.13941 135.22 6.85474 136.216 6.85474C137.782 6.85474 138.636 7.70876 138.636 9.13214V13.6869H137.355V13.1176ZM137.355 11.4095C137.355 10.8402 136.785 10.5555 136.074 10.5555C135.362 10.5555 134.793 10.8402 134.793 11.6942C134.793 12.4059 135.362 12.6906 136.074 12.6906C136.785 12.6906 137.355 12.2636 137.355 11.6942V11.4095Z" fill="black"/>
<path d="M143.619 13.5444C143.334 13.6868 143.049 13.8291 142.48 13.8291C141.768 13.8291 140.772 13.5444 140.772 12.121V7.99326H139.918V6.85456H140.914V4.29248L142.195 4.15015V6.85456H143.334V7.85092H142.195V11.8364C142.195 12.2634 142.48 12.4057 142.765 12.4057C143.049 12.4057 143.334 12.2634 143.619 12.2634V13.5444Z" fill="black"/>
<path d="M145.611 5.57353C145.042 5.57353 144.757 5.28885 144.757 4.7195C144.757 4.15015 145.042 3.86548 145.611 3.86548C146.18 3.86548 146.465 4.15015 146.465 4.7195C146.465 5.43119 146.038 5.57353 145.611 5.57353ZM146.18 6.85457V13.6868H144.899V6.85457H146.18Z" fill="black"/>
<path d="M150.451 6.85474H151.875L153.583 11.9789L155.291 6.85474H156.714L154.294 13.6869H153.013L150.451 6.85474Z" fill="black"/>
<path d="M158.28 10.84C158.422 12.121 159.134 12.5481 159.988 12.5481C160.984 12.5481 161.554 12.2634 161.981 11.9787L162.265 13.2597C161.696 13.5444 160.984 13.6868 159.988 13.6868C158.28 13.6868 156.856 12.6904 156.856 10.2707C156.856 7.99326 158.137 6.71222 159.703 6.71222C161.554 6.71222 162.55 7.99326 162.55 9.98598V10.6977H158.28V10.84ZM161.269 9.84364C161.269 8.70494 160.7 7.99326 159.846 7.99326C159.134 7.99326 158.422 8.42027 158.28 9.84364H161.269Z" fill="black"/>
<path d="M172.798 13.6868H166.82L171.09 4.71951H167.105V3.43848H173.083L168.813 12.4057H172.798V13.6868Z" fill="black"/>
<path d="M175.644 3.43848V13.6868H174.363V3.43848H175.644Z" fill="black"/>
<path d="M178.492 3.72345H179.915L178.634 6.00085H177.638L178.492 3.72345ZM178.919 6.85487V13.6871H177.638V6.85487H178.919Z" fill="black"/>
<path d="M184.754 9.27447C184.754 8.56279 184.327 7.99344 183.616 7.99344C182.762 7.99344 182.335 8.56279 182.335 9.27447V13.6869H181.054V6.85474H182.335V7.42409C182.619 7.13941 183.046 6.85474 183.9 6.85474C185.181 6.85474 186.178 7.70876 186.178 9.27447V13.6869H184.897V9.27447H184.754Z" fill="black"/>
<path d="M188.882 10.8403C189.025 12.1213 189.736 12.5483 190.59 12.5483C191.587 12.5483 192.156 12.2636 192.583 11.979L192.868 13.26C192.298 13.5447 191.587 13.687 190.59 13.687C188.882 13.687 187.459 12.6906 187.459 10.2709C187.459 7.99351 188.74 6.71248 190.306 6.71248C192.156 6.71248 193.152 7.99351 193.152 9.98624V10.6979H188.882V10.8403ZM188.455 3.72339H189.594L190.448 5.00443L191.302 3.72339H192.441L191.16 6.00079H189.736L188.455 3.72339ZM191.871 9.8439C191.871 8.7052 191.302 7.99351 190.448 7.99351C189.736 7.99351 189.025 8.42053 188.882 9.8439H191.871Z" fill="black"/>
</svg>
